<?xml version="1.0" standalone="no"?>
<!DOCTYPE svg PUBLIC "-//W3C//DTD SVG 1.1//EN" "http://www.w3.org/Graphics/SVG/1.1/DTD/svg11.dtd" >
<svg xmlns="http://www.w3.org/2000/svg" xmlns:xlink="http://www.w3.org/1999/xlink" version="1.1">
<metadata>
Created by FontForge 20141024 at Wed Mar 16 12:07:19 2016
 By Jimmy Warting
Copyright (c) 2011 by Vincenzo Vuono. All rights reserved.
</metadata>
<defs>
<font id="Gravity-Bold" horiz-adv-x="691" >
  <font-face 
    font-family="Gravity"
    font-weight="700"
    font-stretch="normal"
    units-per-em="1000"
    panose-1="0 0 8 0 0 0 0 0 0 0"
    ascent="800"
    descent="-200"
    x-height="537"
    cap-height="732"
    bbox="-27 -245 1128 977"
    underline-thickness="85"
    underline-position="-136"
    stemh="107"
    stemv="129"
    unicode-range="U+0020-F8FF"
  />
<missing-glyph horiz-adv-x="698" 
d="M611 707v-683c0 -16 -9 -25 -25 -25h-474c-16 0 -25 9 -25 25v683c0 16 9 25 25 25h474c16 0 25 -9 25 -25zM202 660l147 -227l147 227h-294zM164 142l135 224l-135 222v-446zM400 366l135 -223v445zM202 69l294 1l-147 228z" />
    <glyph glyph-name=".notdef" horiz-adv-x="698" 
d="M611 707v-683c0 -16 -9 -25 -25 -25h-474c-16 0 -25 9 -25 25v683c0 16 9 25 25 25h474c16 0 25 -9 25 -25zM202 660l147 -227l147 227h-294zM164 142l135 224l-135 222v-446zM400 366l135 -223v445zM202 69l294 1l-147 228z" />
    <glyph glyph-name="A" unicode="A" 
d="M474 213h-258l-68 -193c-5 -14 -14 -20 -28 -20h-79c-19 0 -27 11 -20 29l259 683c5 14 14 20 28 20h75c14 0 23 -6 28 -20l259 -683c7 -18 -1 -29 -20 -29h-81c-14 0 -23 6 -28 20zM436 320l-90 260l-92 -260h182z" />
    <glyph glyph-name="Aacute" unicode="&#xc1;" 
d="M463 927l-92 -114c-9 -11 -18 -15 -31 -15h-11c-20 0 -27 12 -18 30l61 112c7 13 16 18 30 18h46c21 0 28 -14 15 -31zM474 213h-258l-68 -193c-5 -14 -14 -20 -28 -20h-79c-19 0 -27 11 -20 29l259 683c5 14 14 20 28 20h75c14 0 23 -6 28 -20l259 -683
c7 -18 -1 -29 -20 -29h-81c-14 0 -23 6 -28 20zM436 320l-90 260l-92 -260h182z" />
    <glyph glyph-name="Abreve" unicode="&#x102;" 
d="M343 787c-85 0 -146 41 -146 133c0 10 9 16 25 16h21c16 0 25 -6 25 -16c0 -51 32 -69 75 -69c45 0 76 18 76 69c0 10 9 16 25 16h22c16 0 25 -6 25 -16c0 -92 -61 -133 -148 -133zM474 213h-258l-68 -193c-5 -14 -14 -20 -28 -20h-79c-19 0 -27 11 -20 29l259 683
c5 14 14 20 28 20h75c14 0 23 -6 28 -20l259 -683c7 -18 -1 -29 -20 -29h-81c-14 0 -23 6 -28 20zM436 320l-90 260l-92 -260h182z" />
    <glyph glyph-name="Acaron" unicode="&#x1cd;" 
d="M353 798h-20c-14 0 -23 4 -31 14l-98 115c-14 17 -7 31 14 31h35c13 0 22 -5 30 -16l57 -82h10l52 82c8 11 17 16 31 16h34c21 0 28 -14 14 -31l-97 -115c-8 -10 -17 -14 -31 -14zM474 213h-258l-68 -193c-5 -14 -14 -20 -28 -20h-79c-19 0 -27 11 -20 29l259 683
c5 14 14 20 28 20h75c14 0 23 -6 28 -20l259 -683c7 -18 -1 -29 -20 -29h-81c-14 0 -23 6 -28 20zM436 320l-90 260l-92 -260h182z" />
    <glyph glyph-name="Acircumflex" unicode="&#xc2;" 
d="M337 896l-52 -82c-8 -11 -17 -16 -31 -16h-34c-21 0 -28 14 -14 31l97 115c8 10 17 14 31 14h20c14 0 23 -4 31 -14l98 -115c14 -17 7 -31 -14 -31h-35c-13 0 -22 5 -30 16l-57 82h-10zM474 213h-258l-68 -193c-5 -14 -14 -20 -28 -20h-79c-19 0 -27 11 -20 29l259 683
c5 14 14 20 28 20h75c14 0 23 -6 28 -20l259 -683c7 -18 -1 -29 -20 -29h-81c-14 0 -23 6 -28 20zM436 320l-90 260l-92 -260h182z" />
    <glyph glyph-name="Adieresis" unicode="&#xc4;" 
d="M312 924v-65c0 -16 -9 -25 -25 -25h-42c-16 0 -25 9 -25 25v65c0 16 9 25 25 25h42c16 0 25 -9 25 -25zM472 924v-65c0 -16 -9 -25 -25 -25h-42c-16 0 -25 9 -25 25v65c0 16 9 25 25 25h42c16 0 25 -9 25 -25zM474 213h-258l-68 -193c-5 -14 -14 -20 -28 -20h-79
c-19 0 -27 11 -20 29l259 683c5 14 14 20 28 20h75c14 0 23 -6 28 -20l259 -683c7 -18 -1 -29 -20 -29h-81c-14 0 -23 6 -28 20zM436 320l-90 260l-92 -260h182z" />
    <glyph glyph-name="Agrave" unicode="&#xc0;" 
d="M372 798h-11c-13 0 -22 4 -31 15l-92 114c-13 17 -6 31 15 31h46c14 0 23 -5 30 -18l61 -112c9 -18 2 -30 -18 -30zM474 213h-258l-68 -193c-5 -14 -14 -20 -28 -20h-79c-19 0 -27 11 -20 29l259 683c5 14 14 20 28 20h75c14 0 23 -6 28 -20l259 -683
c7 -18 -1 -29 -20 -29h-81c-14 0 -23 6 -28 20zM436 320l-90 260l-92 -260h182z" />
    <glyph glyph-name="Amacron" unicode="&#x100;" 
d="M472 889v-21c0 -16 -9 -25 -25 -25h-205c-16 0 -25 9 -25 25v21c0 16 9 25 25 25h205c16 0 25 -9 25 -25zM474 213h-258l-68 -193c-5 -14 -14 -20 -28 -20h-79c-19 0 -27 11 -20 29l259 683c5 14 14 20 28 20h75c14 0 23 -6 28 -20l259 -683c7 -18 -1 -29 -20 -29h-81
c-14 0 -23 6 -28 20zM436 320l-90 260l-92 -260h182z" />
    <glyph glyph-name="Aring" unicode="&#xc5;" 
d="M345 768c-56 0 -102 41 -102 102s46 101 102 101s101 -40 101 -101s-45 -102 -101 -102zM345 918c-27 0 -49 -18 -49 -48c0 -29 22 -49 49 -49s48 20 48 49c0 30 -21 48 -48 48zM474 213h-258l-68 -193c-5 -14 -14 -20 -28 -20h-79c-19 0 -27 11 -20 29l259 683
c5 14 14 20 28 20h75c14 0 23 -6 28 -20l259 -683c7 -18 -1 -29 -20 -29h-81c-14 0 -23 6 -28 20zM436 320l-90 260l-92 -260h182z" />
    <glyph glyph-name="Atilde" unicode="&#xc3;" 
d="M296 869c-16 0 -24 -14 -27 -32c-3 -16 -10 -24 -26 -24h-15c-17 0 -26 9 -25 26c6 55 30 100 92 100c69 0 89 -73 119 -73c14 0 20 14 23 31c2 16 9 25 25 25h15c17 0 26 -9 25 -26c-6 -50 -29 -100 -88 -100c-63 0 -78 73 -118 73zM474 213h-258l-68 -193
c-5 -14 -14 -20 -28 -20h-79c-19 0 -27 11 -20 29l259 683c5 14 14 20 28 20h75c14 0 23 -6 28 -20l259 -683c7 -18 -1 -29 -20 -29h-81c-14 0 -23 6 -28 20zM436 320l-90 260l-92 -260h182z" />
    <glyph glyph-name="AE" unicode="&#xc6;" horiz-adv-x="979" 
d="M615 626v-191h253c16 0 25 -9 25 -25v-57c0 -16 -9 -25 -25 -25h-253v-221h294c16 0 25 -9 25 -25v-57c0 -16 -9 -25 -25 -25h-387c-16 0 -25 9 -25 25v188h-239l-110 -196c-7 -12 -16 -17 -30 -17h-74c-19 0 -27 13 -17 30l391 686c7 12 16 17 30 17h462
c16 0 25 -9 25 -25v-57c0 -16 -9 -25 -25 -25h-295zM497 320v317l-179 -317h179z" />
    <glyph glyph-name="B" unicode="B" horiz-adv-x="687" 
d="M545 386c65 -36 98 -95 98 -165c0 -123 -95 -221 -241 -221h-313c-16 0 -25 9 -25 25l5 682c0 16 9 25 25 25h278c142 0 232 -85 232 -200c0 -57 -20 -108 -59 -146zM188 628l1 -203h189c68 0 107 36 107 99c0 64 -47 104 -127 104h-170zM190 104h204
c87 0 131 40 131 105c0 68 -52 111 -148 111h-188z" />
    <glyph glyph-name="C" unicode="C" horiz-adv-x="766" 
d="M398 748c143 0 262 -78 311 -211c6 -17 -3 -28 -21 -28l-64 -1c-14 0 -23 5 -30 18c-47 75 -118 117 -203 117c-128 0 -228 -93 -228 -269c0 -178 100 -284 244 -284c99 0 156 48 191 120c7 13 16 19 30 19l64 -1c19 0 27 -11 21 -28c-39 -105 -142 -216 -317 -216
c-211 0 -352 157 -352 380c0 228 154 384 354 384z" />
    <glyph glyph-name="Cacute" unicode="&#x106;" horiz-adv-x="766" 
d="M502 926l-92 -114c-9 -11 -18 -15 -31 -15h-11c-20 0 -27 12 -18 30l61 112c7 13 16 18 30 18h46c21 0 28 -14 15 -31zM398 748c143 0 262 -78 311 -211c6 -17 -3 -28 -21 -28l-64 -1c-14 0 -23 5 -30 18c-47 75 -118 117 -203 117c-128 0 -228 -93 -228 -269
c0 -178 100 -284 244 -284c99 0 156 48 191 120c7 13 16 19 30 19l64 -1c19 0 27 -11 21 -28c-39 -105 -142 -216 -317 -216c-211 0 -352 157 -352 380c0 228 154 384 354 384z" />
    <glyph glyph-name="Ccaron" unicode="&#x10c;" horiz-adv-x="766" 
d="M392 797h-20c-14 0 -23 4 -31 14l-98 115c-14 17 -7 31 14 31h35c13 0 22 -5 30 -16l57 -82h10l52 82c8 11 17 16 31 16h34c21 0 28 -14 14 -31l-97 -115c-8 -10 -17 -14 -31 -14zM628 229l64 -1c18 0 27 -11 21 -28c-39 -105 -142 -216 -317 -216
c-211 0 -352 157 -352 380c0 228 154 384 354 384c143 0 262 -78 311 -211c6 -17 -3 -28 -21 -28l-64 -1c-14 0 -23 5 -30 18c-47 75 -118 117 -203 117c-128 0 -228 -93 -228 -269c0 -178 100 -284 244 -284c99 0 156 48 191 120c7 13 16 19 30 19z" />
    <glyph glyph-name="Ccedilla" unicode="&#xc7;" horiz-adv-x="766" 
d="M628 229l64 -1c18 0 27 -11 21 -28c-38 -101 -135 -209 -300 -216l-15 -42c41 -8 71 -35 71 -84c0 -53 -36 -94 -106 -94c-20 0 -41 3 -61 12c-14 6 -18 18 -13 33l2 7c5 16 16 20 32 15c15 -5 29 -8 40 -8c23 0 39 13 39 32c0 18 -12 38 -59 38c-16 0 -23 11 -18 28
l20 66c-182 23 -301 172 -301 377c0 228 154 384 354 384c143 0 262 -78 311 -211c6 -17 -3 -28 -21 -28l-64 -1c-14 0 -23 5 -30 18c-47 75 -118 117 -203 117c-128 0 -228 -93 -228 -269c0 -178 100 -284 244 -284c99 0 156 48 191 120c7 13 16 19 30 19z" />
    <glyph glyph-name="Cdotaccent" unicode="&#x10a;" horiz-adv-x="766" 
d="M441 921v-65c0 -16 -9 -25 -25 -25h-65c-16 0 -25 9 -25 25v65c0 16 9 25 25 25h65c16 0 25 -9 25 -25zM398 748c143 0 262 -78 311 -211c6 -17 -3 -28 -21 -28l-64 -1c-14 0 -23 5 -30 18c-47 75 -118 117 -203 117c-128 0 -228 -93 -228 -269c0 -178 100 -284 244 -284
c99 0 156 48 191 120c7 13 16 19 30 19l64 -1c19 0 27 -11 21 -28c-39 -105 -142 -216 -317 -216c-211 0 -352 157 -352 380c0 228 154 384 354 384z" />
    <glyph glyph-name="D" unicode="D" horiz-adv-x="749" 
d="M94 732h251c238 0 360 -141 360 -355c0 -216 -122 -377 -359 -377h-257c-16 0 -25 9 -25 25l5 682c0 16 9 25 25 25zM191 105h148c157 0 248 96 248 259c0 173 -92 264 -249 264h-150z" />
    <glyph glyph-name="Eth" unicode="&#xd0;" horiz-adv-x="749" 
d="M94 732h251c238 0 360 -141 360 -355c0 -216 -122 -377 -359 -377h-257c-16 0 -25 9 -25 25l2 204c-8 0 -12 9 -12 25v54c0 16 4 25 12 25l3 374c0 16 9 25 25 25zM191 105h148c157 0 248 96 248 259c0 173 -92 264 -249 264h-150l2 -295h220c16 0 25 -9 25 -25v-54
c0 -16 -9 -25 -25 -25h-220z" />
    <glyph glyph-name="Dcaron" unicode="&#x10e;" horiz-adv-x="749" 
d="M339 797h-20c-14 0 -23 4 -31 14l-98 115c-14 17 -7 31 14 31h35c13 0 22 -5 30 -16l57 -82h10l52 82c8 11 17 16 31 16h34c21 0 28 -14 14 -31l-97 -115c-8 -10 -17 -14 -31 -14zM94 732h251c238 0 360 -141 360 -355c0 -216 -122 -377 -359 -377h-257
c-16 0 -25 9 -25 25l5 682c0 16 9 25 25 25zM191 105h148c157 0 248 96 248 259c0 173 -92 264 -249 264h-150z" />
    <glyph glyph-name="E" unicode="E" horiz-adv-x="601" 
d="M188 625l1 -190h300c16 0 25 -9 25 -25v-57c0 -16 -9 -25 -25 -25h-300l1 -221h341c16 0 25 -9 25 -25v-57c0 -16 -9 -25 -25 -25h-442c-16 0 -25 9 -25 25l5 682c0 16 9 25 25 25h438c16 0 25 -9 25 -25v-57c0 -16 -9 -25 -25 -25h-344z" />
    <glyph glyph-name="Eacute" unicode="&#xc9;" horiz-adv-x="601" 
d="M429 927l-92 -114c-9 -11 -18 -15 -31 -15h-11c-20 0 -27 12 -18 30l61 112c7 13 16 18 30 18h46c21 0 28 -14 15 -31zM188 625l1 -190h300c16 0 25 -9 25 -25v-57c0 -16 -9 -25 -25 -25h-300l1 -221h341c16 0 25 -9 25 -25v-57c0 -16 -9 -25 -25 -25h-442
c-16 0 -25 9 -25 25l5 682c0 16 9 25 25 25h438c16 0 25 -9 25 -25v-57c0 -16 -9 -25 -25 -25h-344z" />
    <glyph glyph-name="Ecaron" unicode="&#x11a;" horiz-adv-x="601" 
d="M319 798h-20c-14 0 -23 4 -31 14l-98 115c-14 17 -7 31 14 31h35c13 0 22 -5 30 -16l57 -82h10l52 82c8 11 17 16 31 16h34c21 0 28 -14 14 -31l-97 -115c-8 -10 -17 -14 -31 -14zM188 625l1 -190h300c16 0 25 -9 25 -25v-57c0 -16 -9 -25 -25 -25h-300l1 -221h341
c16 0 25 -9 25 -25v-57c0 -16 -9 -25 -25 -25h-442c-16 0 -25 9 -25 25l5 682c0 16 9 25 25 25h438c16 0 25 -9 25 -25v-57c0 -16 -9 -25 -25 -25h-344z" />
    <glyph glyph-name="Ecircumflex" unicode="&#xca;" horiz-adv-x="601" 
d="M303 896l-52 -82c-8 -11 -17 -16 -31 -16h-34c-21 0 -28 14 -14 31l97 115c8 10 17 14 31 14h20c14 0 23 -4 31 -14l98 -115c14 -17 7 -31 -14 -31h-35c-13 0 -22 5 -30 16l-57 82h-10zM188 625l1 -190h300c16 0 25 -9 25 -25v-57c0 -16 -9 -25 -25 -25h-300l1 -221h341
c16 0 25 -9 25 -25v-57c0 -16 -9 -25 -25 -25h-442c-16 0 -25 9 -25 25l5 682c0 16 9 25 25 25h438c16 0 25 -9 25 -25v-57c0 -16 -9 -25 -25 -25h-344z" />
    <glyph glyph-name="Edieresis" unicode="&#xcb;" horiz-adv-x="601" 
d="M278 924v-65c0 -16 -9 -25 -25 -25h-42c-16 0 -25 9 -25 25v65c0 16 9 25 25 25h42c16 0 25 -9 25 -25zM438 924v-65c0 -16 -9 -25 -25 -25h-42c-16 0 -25 9 -25 25v65c0 16 9 25 25 25h42c16 0 25 -9 25 -25zM188 625l1 -190h300c16 0 25 -9 25 -25v-57
c0 -16 -9 -25 -25 -25h-300l1 -221h341c16 0 25 -9 25 -25v-57c0 -16 -9 -25 -25 -25h-442c-16 0 -25 9 -25 25l5 682c0 16 9 25 25 25h438c16 0 25 -9 25 -25v-57c0 -16 -9 -25 -25 -25h-344z" />
    <glyph glyph-name="Edotaccent" unicode="&#x116;" horiz-adv-x="601" 
d="M368 922v-65c0 -16 -9 -25 -25 -25h-65c-16 0 -25 9 -25 25v65c0 16 9 25 25 25h65c16 0 25 -9 25 -25zM188 625l1 -190h300c16 0 25 -9 25 -25v-57c0 -16 -9 -25 -25 -25h-300l1 -221h341c16 0 25 -9 25 -25v-57c0 -16 -9 -25 -25 -25h-442c-16 0 -25 9 -25 25l5 682
c0 16 9 25 25 25h438c16 0 25 -9 25 -25v-57c0 -16 -9 -25 -25 -25h-344z" />
    <glyph glyph-name="Egrave" unicode="&#xc8;" horiz-adv-x="601" 
d="M338 798h-11c-13 0 -22 4 -31 15l-92 114c-13 17 -6 31 15 31h46c14 0 23 -5 30 -18l61 -112c9 -18 2 -30 -18 -30zM188 625l1 -190h300c16 0 25 -9 25 -25v-57c0 -16 -9 -25 -25 -25h-300l1 -221h341c16 0 25 -9 25 -25v-57c0 -16 -9 -25 -25 -25h-442
c-16 0 -25 9 -25 25l5 682c0 16 9 25 25 25h438c16 0 25 -9 25 -25v-57c0 -16 -9 -25 -25 -25h-344z" />
    <glyph glyph-name="Emacron" unicode="&#x112;" horiz-adv-x="601" 
d="M438 889v-21c0 -16 -9 -25 -25 -25h-205c-16 0 -25 9 -25 25v21c0 16 9 25 25 25h205c16 0 25 -9 25 -25zM188 625l1 -190h300c16 0 25 -9 25 -25v-57c0 -16 -9 -25 -25 -25h-300l1 -221h341c16 0 25 -9 25 -25v-57c0 -16 -9 -25 -25 -25h-442c-16 0 -25 9 -25 25l5 682
c0 16 9 25 25 25h438c16 0 25 -9 25 -25v-57c0 -16 -9 -25 -25 -25h-344z" />
    <glyph glyph-name="F" unicode="F" horiz-adv-x="602" 
d="M188 625l1 -177h301c16 0 25 -9 25 -25v-57c0 -16 -9 -25 -25 -25h-301l2 -316c0 -16 -9 -25 -25 -25h-77c-16 0 -25 9 -25 25l5 682c0 16 9 25 25 25h438c16 0 25 -9 25 -25v-57c0 -16 -9 -25 -25 -25h-344z" />
    <glyph glyph-name="G" unicode="G" horiz-adv-x="796" 
d="M461 365h265c13 0 22 -8 22 -25c-6 -197 -138 -356 -354 -356c-202 0 -345 157 -345 382s154 382 356 382c141 0 258 -79 307 -201c7 -17 -2 -28 -20 -29l-64 -1c-14 0 -23 5 -30 17c-47 69 -119 109 -202 109c-129 0 -228 -93 -228 -269c0 -178 100 -284 244 -284
c100 0 183 61 211 168h-162c-16 0 -25 9 -25 25v57c0 16 9 25 25 25z" />
    <glyph glyph-name="Gbreve" unicode="&#x11e;" horiz-adv-x="796" 
d="M396 786c-85 0 -146 41 -146 133c0 10 9 16 25 16h21c16 0 25 -6 25 -16c0 -51 32 -69 75 -69c45 0 76 18 76 69c0 10 9 16 25 16h22c16 0 25 -6 25 -16c0 -92 -61 -133 -148 -133zM461 365h265c13 0 22 -8 22 -25c-6 -197 -138 -356 -354 -356c-202 0 -345 157 -345 382
s154 382 356 382c141 0 258 -79 307 -201c7 -17 -2 -28 -20 -29l-64 -1c-14 0 -23 5 -30 17c-47 69 -119 109 -202 109c-129 0 -228 -93 -228 -269c0 -178 100 -284 244 -284c100 0 183 61 211 168h-162c-16 0 -25 9 -25 25v57c0 16 9 25 25 25z" />
    <glyph glyph-name="Gdotaccent" unicode="&#x120;" horiz-adv-x="796" 
d="M456 921v-65c0 -16 -9 -25 -25 -25h-65c-16 0 -25 9 -25 25v65c0 16 9 25 25 25h65c16 0 25 -9 25 -25zM461 365h265c13 0 22 -8 22 -25c-6 -197 -138 -356 -354 -356c-202 0 -345 157 -345 382s154 382 356 382c141 0 258 -79 307 -201c7 -17 -2 -28 -20 -29l-64 -1
c-14 0 -23 5 -30 17c-47 69 -119 109 -202 109c-129 0 -228 -93 -228 -269c0 -178 100 -284 244 -284c100 0 183 61 211 168h-162c-16 0 -25 9 -25 25v57c0 16 9 25 25 25z" />
    <glyph glyph-name="H" unicode="H" horiz-adv-x="742" 
d="M653 0h-77c-16 0 -25 9 -25 25l2 303h-364l2 -303c0 -16 -9 -25 -25 -25h-77c-16 0 -25 9 -25 25l5 682c0 16 9 25 25 25h68c16 0 25 -9 25 -25l2 -272h364l2 272c0 16 9 25 25 25h69c16 0 25 -9 25 -25l4 -682c0 -16 -9 -25 -25 -25z" />
    <glyph glyph-name="I" unicode="I" horiz-adv-x="376" 
d="M247 707l4 -682c0 -16 -9 -25 -25 -25h-77c-16 0 -25 9 -25 25l5 682c0 16 9 25 25 25h68c16 0 25 -9 25 -25z" />
    <glyph glyph-name="Iacute" unicode="&#xcd;" horiz-adv-x="376" 
d="M306 927l-92 -114c-9 -11 -18 -15 -31 -15h-11c-20 0 -27 12 -18 30l61 112c7 13 16 18 30 18h46c21 0 28 -14 15 -31zM247 707l4 -682c0 -16 -9 -25 -25 -25h-77c-16 0 -25 9 -25 25l5 682c0 16 9 25 25 25h68c16 0 25 -9 25 -25z" />
    <glyph glyph-name="Icaron" unicode="&#x1cf;" horiz-adv-x="376" 
d="M197 798h-20c-14 0 -23 4 -31 14l-98 115c-14 17 -7 31 14 31h35c13 0 22 -5 30 -16l57 -82h10l52 82c8 11 17 16 31 16h34c21 0 28 -14 14 -31l-97 -115c-8 -10 -17 -14 -31 -14zM154 732h68c16 0 25 -9 25 -25l4 -682c0 -16 -9 -25 -25 -25h-77c-16 0 -25 9 -25 25
l5 682c0 16 9 25 25 25z" />
    <glyph glyph-name="Icircumflex" unicode="&#xce;" horiz-adv-x="376" 
d="M229 944l98 -115c14 -17 7 -31 -14 -31h-35c-13 0 -22 5 -30 16l-57 82h-10l-52 -82c-8 -11 -17 -16 -31 -16h-34c-21 0 -28 14 -14 31l97 115c8 10 17 14 31 14h20c14 0 23 -4 31 -14zM154 732h68c16 0 25 -9 25 -25l4 -682c0 -16 -9 -25 -25 -25h-77
c-16 0 -25 9 -25 25l5 682c0 16 9 25 25 25z" />
    <glyph glyph-name="Idieresis" unicode="&#xcf;" horiz-adv-x="376" 
d="M156 924v-65c0 -16 -9 -25 -25 -25h-42c-16 0 -25 9 -25 25v65c0 16 9 25 25 25h42c16 0 25 -9 25 -25zM316 924v-65c0 -16 -9 -25 -25 -25h-42c-16 0 -25 9 -25 25v65c0 16 9 25 25 25h42c16 0 25 -9 25 -25zM247 707l4 -682c0 -16 -9 -25 -25 -25h-77
c-16 0 -25 9 -25 25l5 682c0 16 9 25 25 25h68c16 0 25 -9 25 -25z" />
    <glyph glyph-name="Idotaccent" unicode="&#x130;" horiz-adv-x="376" 
d="M246 922v-65c0 -16 -9 -25 -25 -25h-65c-16 0 -25 9 -25 25v65c0 16 9 25 25 25h65c16 0 25 -9 25 -25zM247 707l4 -682c0 -16 -9 -25 -25 -25h-77c-16 0 -25 9 -25 25l5 682c0 16 9 25 25 25h68c16 0 25 -9 25 -25z" />
    <glyph glyph-name="Igrave" unicode="&#xcc;" horiz-adv-x="376" 
d="M96 958h46c14 0 23 -5 30 -18l61 -112c9 -18 2 -30 -18 -30h-11c-13 0 -22 4 -31 15l-92 114c-13 17 -6 31 15 31zM247 707l4 -682c0 -16 -9 -25 -25 -25h-77c-16 0 -25 9 -25 25l5 682c0 16 9 25 25 25h68c16 0 25 -9 25 -25z" />
    <glyph glyph-name="Imacron" unicode="&#x12a;" horiz-adv-x="376" 
d="M315 889v-21c0 -16 -9 -25 -25 -25h-205c-16 0 -25 9 -25 25v21c0 16 9 25 25 25h205c16 0 25 -9 25 -25zM247 707l4 -682c0 -16 -9 -25 -25 -25h-77c-16 0 -25 9 -25 25l5 682c0 16 9 25 25 25h68c16 0 25 -9 25 -25z" />
    <glyph glyph-name="J" unicode="J" horiz-adv-x="503" 
d="M377 708l2 -363c1 -262 -106 -338 -310 -344c-16 0 -25 9 -25 25v55c0 16 9 25 25 26c136 5 186 62 187 229l2 372c0 16 9 25 25 25h69c16 0 25 -9 25 -25z" />
    <glyph glyph-name="K" unicode="K" horiz-adv-x="721" 
d="M289 345l-107 -104l1 -216c0 -16 -9 -25 -25 -25h-76c-16 0 -25 9 -25 25l4 682c0 16 9 25 25 25h68c16 0 25 -9 25 -25l2 -327l346 339c9 9 18 13 31 13h83c22 0 29 -15 12 -31l-287 -280l299 -390c12 -17 6 -31 -15 -31h-95c-13 0 -22 5 -30 16z" />
    <glyph glyph-name="L" unicode="L" horiz-adv-x="592" 
d="M190 107h353c16 0 25 -9 25 -25v-57c0 -16 -9 -25 -25 -25h-454c-16 0 -25 9 -25 25l5 682c0 16 9 25 25 25h68c16 0 25 -9 25 -25z" />
    <glyph glyph-name="Lacute" unicode="&#x139;" horiz-adv-x="592" 
d="M248 933l-92 -114c-9 -11 -18 -15 -31 -15h-11c-20 0 -27 12 -18 30l61 112c7 13 16 18 30 18h46c21 0 28 -14 15 -31zM190 107h353c16 0 25 -9 25 -25v-57c0 -16 -9 -25 -25 -25h-454c-16 0 -25 9 -25 25l5 682c0 16 9 25 25 25h68c16 0 25 -9 25 -25z" />
    <glyph glyph-name="Lcaron" unicode="&#x13d;" horiz-adv-x="592" 
d="M190 107h353c16 0 25 -9 25 -25v-57c0 -16 -9 -25 -25 -25h-454c-16 0 -25 9 -25 25l5 682c0 16 9 25 25 25h68c16 0 25 -9 25 -25z" />
    <glyph glyph-name="M" unicode="M" horiz-adv-x="884" 
d="M795 0h-71c-16 0 -25 9 -25 25l-10 574l-177 -578c-4 -14 -13 -21 -28 -21h-80c-15 0 -24 7 -28 21l-181 595l-9 -591c0 -16 -9 -25 -25 -25h-72c-16 0 -25 9 -24 25l24 682c1 16 10 25 26 25h133c15 0 24 -7 29 -21l167 -531l168 531c5 14 14 21 29 21h129
c16 0 25 -9 26 -25l23 -682c1 -16 -8 -25 -24 -25z" />
    <glyph glyph-name="N" unicode="N" horiz-adv-x="749" 
d="M680 707l4 -682c0 -16 -9 -25 -25 -25h-126c-14 0 -23 5 -30 18l-317 587l3 -580c0 -16 -9 -25 -25 -25h-75c-16 0 -25 9 -25 25l5 682c0 16 9 25 25 25h133c14 0 23 -5 30 -18l304 -559l3 552c0 16 9 25 25 25h66c16 0 25 -9 25 -25z" />
    <glyph glyph-name="Nacute" unicode="&#x143;" horiz-adv-x="749" 
d="M493 933l-92 -114c-9 -11 -18 -15 -31 -15h-11c-20 0 -27 12 -18 30l61 112c7 13 16 18 30 18h46c21 0 28 -14 15 -31zM680 707l4 -682c0 -16 -9 -25 -25 -25h-126c-14 0 -23 5 -30 18l-317 587l3 -580c0 -16 -9 -25 -25 -25h-75c-16 0 -25 9 -25 25l5 682
c0 16 9 25 25 25h133c14 0 23 -5 30 -18l304 -559l3 552c0 16 9 25 25 25h66c16 0 25 -9 25 -25z" />
    <glyph glyph-name="Ncaron" unicode="&#x147;" horiz-adv-x="749" 
d="M383 803h-20c-14 0 -23 4 -31 14l-98 115c-14 17 -7 31 14 31h35c13 0 22 -5 30 -16l57 -82h10l52 82c8 11 17 16 31 16h34c21 0 28 -14 14 -31l-97 -115c-8 -10 -17 -14 -31 -14zM680 707l4 -682c0 -16 -9 -25 -25 -25h-126c-14 0 -23 5 -30 18l-317 587l3 -580
c0 -16 -9 -25 -25 -25h-75c-16 0 -25 9 -25 25l5 682c0 16 9 25 25 25h133c14 0 23 -5 30 -18l304 -559l3 552c0 16 9 25 25 25h66c16 0 25 -9 25 -25z" />
    <glyph glyph-name="Ntilde" unicode="&#xd1;" horiz-adv-x="749" 
d="M326 875c-16 0 -24 -14 -27 -32c-3 -16 -10 -24 -26 -24h-15c-17 0 -26 9 -25 26c6 55 30 100 92 100c69 0 89 -73 119 -73c14 0 20 14 23 31c2 16 9 25 25 25h15c17 0 26 -9 25 -26c-6 -50 -29 -100 -88 -100c-63 0 -78 73 -118 73zM680 707l4 -682
c0 -16 -9 -25 -25 -25h-126c-14 0 -23 5 -30 18l-317 587l3 -580c0 -16 -9 -25 -25 -25h-75c-16 0 -25 9 -25 25l5 682c0 16 9 25 25 25h133c14 0 23 -5 30 -18l304 -559l3 552c0 16 9 25 25 25h66c16 0 25 -9 25 -25z" />
    <glyph glyph-name="O" unicode="O" horiz-adv-x="798" 
d="M405 748c200 0 348 -149 348 -370c0 -227 -155 -394 -359 -394c-200 0 -350 157 -350 382s156 382 361 382zM396 643c-132 0 -233 -93 -233 -269c0 -178 102 -284 239 -284c131 0 233 100 233 277c0 178 -103 276 -239 276z" />
    <glyph glyph-name="Oacute" unicode="&#xd3;" horiz-adv-x="798" 
d="M517 933l-92 -114c-9 -11 -18 -15 -31 -15h-11c-20 0 -27 12 -18 30l61 112c7 13 16 18 30 18h46c21 0 28 -14 15 -31zM405 748c200 0 348 -149 348 -370c0 -227 -155 -394 -359 -394c-200 0 -350 157 -350 382s156 382 361 382zM396 643c-132 0 -233 -93 -233 -269
c0 -178 102 -284 239 -284c131 0 233 100 233 277c0 178 -103 276 -239 276z" />
    <glyph glyph-name="Ocaron" unicode="&#x1d1;" horiz-adv-x="798" 
d="M408 803h-20c-14 0 -23 4 -31 14l-98 115c-14 17 -7 31 14 31h35c13 0 22 -5 30 -16l57 -82h10l52 82c8 11 17 16 31 16h34c21 0 28 -14 14 -31l-97 -115c-8 -10 -17 -14 -31 -14zM405 748c200 0 348 -149 348 -370c0 -227 -155 -394 -359 -394c-200 0 -350 157 -350 382
s156 382 361 382zM402 90c131 0 233 100 233 277c0 178 -103 276 -239 276c-132 0 -233 -93 -233 -269c0 -178 102 -284 239 -284z" />
    <glyph glyph-name="Ocircumflex" unicode="&#xd4;" horiz-adv-x="798" 
d="M392 902l-52 -82c-8 -11 -17 -16 -31 -16h-34c-21 0 -28 14 -14 31l97 115c8 10 17 14 31 14h20c14 0 23 -4 31 -14l98 -115c14 -17 7 -31 -14 -31h-35c-13 0 -22 5 -30 16l-57 82h-10zM405 748c200 0 348 -149 348 -370c0 -227 -155 -394 -359 -394
c-200 0 -350 157 -350 382s156 382 361 382zM402 90c131 0 233 100 233 277c0 178 -103 276 -239 276c-132 0 -233 -93 -233 -269c0 -178 102 -284 239 -284z" />
    <glyph glyph-name="Odieresis" unicode="&#xd6;" horiz-adv-x="798" 
d="M367 929v-65c0 -16 -9 -25 -25 -25h-42c-16 0 -25 9 -25 25v65c0 16 9 25 25 25h42c16 0 25 -9 25 -25zM527 929v-65c0 -16 -9 -25 -25 -25h-42c-16 0 -25 9 -25 25v65c0 16 9 25 25 25h42c16 0 25 -9 25 -25zM405 748c200 0 348 -149 348 -370
c0 -227 -155 -394 -359 -394c-200 0 -350 157 -350 382s156 382 361 382zM396 643c-132 0 -233 -93 -233 -269c0 -178 102 -284 239 -284c131 0 233 100 233 277c0 178 -103 276 -239 276z" />
    <glyph glyph-name="Ograve" unicode="&#xd2;" horiz-adv-x="798" 
d="M307 964h46c14 0 23 -5 30 -18l61 -112c9 -18 2 -30 -18 -30h-11c-13 0 -22 4 -31 15l-92 114c-13 17 -6 31 15 31zM405 748c200 0 348 -149 348 -370c0 -227 -155 -394 -359 -394c-200 0 -350 157 -350 382s156 382 361 382zM396 643c-132 0 -233 -93 -233 -269
c0 -178 102 -284 239 -284c131 0 233 100 233 277c0 178 -103 276 -239 276z" />
    <glyph glyph-name="Ohungarumlaut" unicode="&#x150;" horiz-adv-x="798" 
d="M460 935l-92 -114c-9 -11 -18 -15 -31 -15h-11c-20 0 -27 12 -18 30l61 112c7 13 16 18 30 18h46c21 0 28 -14 15 -31zM626 935l-92 -114c-9 -11 -18 -15 -31 -15h-11c-20 0 -27 12 -18 30l61 112c7 13 16 18 30 18h46c21 0 28 -14 15 -31zM405 748
c200 0 348 -149 348 -370c0 -227 -155 -394 -359 -394c-200 0 -350 157 -350 382s156 382 361 382zM396 643c-132 0 -233 -93 -233 -269c0 -178 102 -284 239 -284c131 0 233 100 233 277c0 178 -103 276 -239 276z" />
    <glyph glyph-name="Omacron" unicode="&#x14c;" horiz-adv-x="798" 
d="M526 894v-21c0 -16 -9 -25 -25 -25h-205c-16 0 -25 9 -25 25v21c0 16 9 25 25 25h205c16 0 25 -9 25 -25zM405 748c200 0 348 -149 348 -370c0 -227 -155 -394 -359 -394c-200 0 -350 157 -350 382s156 382 361 382zM396 643c-132 0 -233 -93 -233 -269
c0 -178 102 -284 239 -284c131 0 233 100 233 277c0 178 -103 276 -239 276z" />
    <glyph glyph-name="Oslash" unicode="&#xd8;" horiz-adv-x="833" 
d="M756 700l-55 -66c55 -64 88 -152 88 -256c0 -227 -156 -394 -360 -394c-80 0 -152 25 -209 70l-33 -40c-8 -10 -18 -14 -31 -14h-72c-22 0 -28 14 -15 31l81 97c-44 63 -70 145 -70 238c0 225 156 382 361 382c68 0 131 -18 183 -49l15 18c8 10 18 14 31 14h71
c22 0 28 -14 15 -31zM198 374c0 -59 11 -109 31 -151l323 389c-35 20 -76 31 -120 31c-132 0 -234 -93 -234 -269zM437 90c132 0 234 100 234 277c0 72 -17 131 -46 176l-333 -402c40 -33 90 -51 145 -51z" />
    <glyph glyph-name="Otilde" unicode="&#xd5;" horiz-adv-x="798" 
d="M349 945c69 0 89 -73 119 -73c14 0 20 14 23 31c2 16 9 25 25 25h15c17 0 26 -9 25 -26c-6 -50 -29 -100 -88 -100c-63 0 -78 73 -118 73c-16 0 -24 -14 -27 -32c-3 -16 -10 -24 -26 -24h-15c-17 0 -26 9 -25 26c6 56 30 100 92 100zM405 748c200 0 348 -149 348 -370
c0 -227 -155 -394 -359 -394c-200 0 -350 157 -350 382s156 382 361 382zM396 643c-132 0 -233 -93 -233 -269c0 -178 102 -284 239 -284c131 0 233 100 233 277c0 178 -103 276 -239 276z" />
    <glyph glyph-name="OE" unicode="&#x152;" horiz-adv-x="939" 
d="M576 626l1 -191h251c16 0 25 -9 25 -25v-57c0 -16 -9 -25 -25 -25h-251l1 -221h291c16 0 25 -9 25 -25v-57c0 -16 -9 -25 -25 -25h-460c-224 0 -365 151 -365 366s158 366 376 366l450 -1c16 0 25 -9 25 -25v-55c0 -16 -9 -25 -25 -25h-294zM454 105l2 522h-36
c-154 0 -257 -87 -257 -253c0 -169 104 -269 257 -269h34z" />
    <glyph glyph-name="P" unicode="P" horiz-adv-x="680" 
d="M94 732h285c153 0 257 -93 257 -228c0 -136 -104 -241 -257 -241h-189l1 -238c0 -16 -9 -25 -25 -25h-77c-16 0 -25 9 -25 25l5 682c0 16 9 25 25 25zM189 367h181c97 0 148 47 148 125c0 84 -61 136 -148 136h-182z" />
    <glyph glyph-name="Q" unicode="Q" horiz-adv-x="798" 
d="M753 378c0 -125 -47 -232 -124 -303l44 -52c10 -12 9 -25 -3 -35l-41 -35c-12 -10 -25 -9 -35 3l-51 61c-45 -21 -95 -33 -149 -33c-200 0 -350 157 -350 382s156 382 361 382c200 0 348 -149 348 -370zM402 90c25 0 48 4 70 10l-38 46c-10 12 -9 25 3 35l41 35
c12 10 25 9 35 -3l48 -58c46 48 74 119 74 212c0 178 -103 276 -239 276c-132 0 -233 -93 -233 -269c0 -178 102 -284 239 -284z" />
    <glyph glyph-name="R" unicode="R" horiz-adv-x="675" 
d="M308 304h-119l2 -279c0 -16 -9 -25 -25 -25h-77c-16 0 -25 9 -25 25l5 682c0 16 9 25 25 25h284c151 0 247 -89 247 -210c0 -102 -69 -187 -185 -211l199 -281c12 -17 5 -30 -15 -30h-94c-13 0 -22 5 -30 16zM189 408h175c98 0 143 39 143 105c0 71 -54 115 -143 115
h-176z" />
    <glyph glyph-name="Racute" unicode="&#x154;" horiz-adv-x="675" 
d="M462 926l-92 -114c-9 -11 -18 -15 -31 -15h-11c-20 0 -27 12 -18 30l61 112c7 13 16 18 30 18h46c21 0 28 -14 15 -31zM308 304h-119l2 -279c0 -16 -9 -25 -25 -25h-77c-16 0 -25 9 -25 25l5 682c0 16 9 25 25 25h284c151 0 247 -89 247 -210c0 -102 -69 -187 -185 -211
l199 -281c12 -17 5 -30 -15 -30h-94c-13 0 -22 5 -30 16zM189 408h175c98 0 143 39 143 105c0 71 -54 115 -143 115h-176z" />
    <glyph glyph-name="Rcaron" unicode="&#x158;" horiz-adv-x="675" 
d="M352 797h-20c-14 0 -23 4 -31 14l-98 115c-14 17 -7 31 14 31h35c13 0 22 -5 30 -16l57 -82h10l52 82c8 11 17 16 31 16h34c21 0 28 -14 14 -31l-97 -115c-8 -10 -17 -14 -31 -14zM308 304h-119l2 -279c0 -16 -9 -25 -25 -25h-77c-16 0 -25 9 -25 25l5 682
c0 16 9 25 25 25h284c151 0 247 -89 247 -210c0 -102 -69 -187 -185 -211l199 -281c12 -17 5 -30 -15 -30h-94c-13 0 -22 5 -30 16zM189 408h175c98 0 143 39 143 105c0 71 -54 115 -143 115h-176z" />
    <glyph glyph-name="S" unicode="S" horiz-adv-x="676" 
d="M341 748c140 0 233 -77 271 -180c6 -17 -3 -28 -21 -28h-64c-14 0 -22 5 -30 17c-34 52 -89 85 -166 85c-92 0 -133 -38 -133 -88c0 -53 43 -82 169 -120l32 -10c173 -53 232 -134 232 -231c0 -134 -110 -209 -274 -209c-188 0 -281 106 -307 198c-5 17 5 27 22 27h68
c15 0 23 -6 30 -18c32 -60 90 -100 193 -100c98 0 146 30 146 86c0 54 -44 95 -171 137l-36 13c-140 46 -221 104 -226 209c-4 132 118 212 265 212z" />
    <glyph glyph-name="Sacute" unicode="&#x15a;" horiz-adv-x="676" 
d="M457 926l-92 -114c-9 -11 -18 -15 -31 -15h-11c-20 0 -27 12 -18 30l61 112c7 13 16 18 30 18h46c21 0 28 -14 15 -31zM341 748c140 0 233 -77 271 -180c6 -17 -3 -28 -21 -28h-64c-14 0 -22 5 -30 17c-34 52 -89 85 -166 85c-92 0 -133 -38 -133 -88
c0 -53 43 -82 169 -120l32 -10c173 -53 232 -134 232 -231c0 -134 -110 -209 -274 -209c-188 0 -281 106 -307 198c-5 17 5 27 22 27h68c15 0 23 -6 30 -18c32 -60 90 -100 193 -100c98 0 146 30 146 86c0 54 -44 95 -171 137l-36 13c-140 46 -221 104 -226 209
c-4 132 118 212 265 212z" />
    <glyph glyph-name="Scaron" unicode="&#x160;" horiz-adv-x="676" 
d="M347 797h-20c-14 0 -23 4 -31 14l-98 115c-14 17 -7 31 14 31h35c13 0 22 -5 30 -16l57 -82h10l52 82c8 11 17 16 31 16h34c21 0 28 -14 14 -31l-97 -115c-8 -10 -17 -14 -31 -14zM367 434l32 -10c173 -53 232 -134 232 -231c0 -134 -110 -209 -274 -209
c-188 0 -281 106 -307 198c-5 17 5 27 22 27h68c15 0 23 -6 30 -18c32 -60 90 -100 193 -100c98 0 146 30 146 86c0 54 -44 95 -171 137l-36 13c-140 46 -221 104 -226 209c-4 132 118 212 265 212c140 0 233 -77 271 -180c6 -17 -3 -28 -21 -28h-64c-14 0 -22 5 -30 17
c-34 52 -89 85 -166 85c-92 0 -133 -38 -133 -88c0 -53 43 -82 169 -120z" />
    <glyph glyph-name="Scedilla" unicode="&#x15e;" horiz-adv-x="676" 
d="M631 193c0 -131 -105 -205 -262 -209l-15 -42c41 -8 71 -35 71 -84c0 -53 -36 -94 -106 -94c-20 0 -41 3 -61 12c-14 6 -18 18 -13 33l2 7c5 16 16 20 32 15c15 -5 29 -8 40 -8c23 0 39 13 39 32c0 18 -12 38 -59 38c-16 0 -23 11 -18 28l20 66
c-151 19 -228 113 -251 195c-5 17 5 27 22 27h68c15 0 23 -6 30 -18c32 -60 90 -100 193 -100c98 0 146 30 146 86c0 54 -44 95 -171 137l-36 13c-140 46 -221 104 -226 209c-4 132 118 212 265 212c140 0 233 -77 271 -180c6 -17 -3 -28 -21 -28h-64c-14 0 -22 5 -30 17
c-34 52 -89 85 -166 85c-92 0 -133 -38 -133 -88c0 -53 43 -82 169 -120l32 -10c173 -53 232 -134 232 -231z" />
    <glyph glyph-name="T" unicode="T" horiz-adv-x="609" 
d="M593 707v-57c0 -16 -9 -25 -25 -25h-204l4 -600c0 -16 -9 -25 -25 -25h-76c-16 0 -25 9 -25 25l4 600h-204c-16 0 -25 9 -25 25v57c0 16 9 25 25 25h526c16 0 25 -9 25 -25z" />
    <glyph glyph-name="Tcaron" unicode="&#x164;" horiz-adv-x="609" 
d="M314 797h-20c-14 0 -23 4 -31 14l-98 115c-14 17 -7 31 14 31h35c13 0 22 -5 30 -16l57 -82h10l52 82c8 11 17 16 31 16h34c21 0 28 -14 14 -31l-97 -115c-8 -10 -17 -14 -31 -14zM593 707v-57c0 -16 -9 -25 -25 -25h-204l4 -600c0 -16 -9 -25 -25 -25h-76
c-16 0 -25 9 -25 25l4 600h-204c-16 0 -25 9 -25 25v57c0 16 9 25 25 25h526c16 0 25 -9 25 -25z" />
    <glyph glyph-name="Tcedilla" unicode="&#x162;" horiz-adv-x="609" 
d="M593 707v-57c0 -16 -9 -25 -25 -25h-204l4 -600c0 -16 -9 -25 -25 -25h-1l-21 -58c41 -8 71 -35 71 -84c0 -53 -36 -94 -106 -94c-20 0 -41 3 -61 12c-14 6 -18 18 -13 33l2 7c5 16 16 20 32 15c15 -5 29 -8 40 -8c23 0 39 13 39 32c0 18 -12 38 -59 38
c-16 0 -23 11 -18 28l24 79h-5c-16 0 -25 9 -25 25l4 600h-204c-16 0 -25 9 -25 25v57c0 16 9 25 25 25h526c16 0 25 -9 25 -25z" />
    <glyph glyph-name="U" unicode="U" horiz-adv-x="744" 
d="M678 707l2 -391c1 -219 -131 -332 -309 -332s-308 114 -307 332l3 391c0 16 9 25 25 25h68c16 0 25 -9 25 -25l2 -378c1 -166 72 -239 188 -239c118 0 181 74 182 239l3 378c0 16 9 25 25 25h68c16 0 25 -9 25 -25z" />
    <glyph glyph-name="Uacute" unicode="&#xda;" horiz-adv-x="744" 
d="M491 933l-92 -114c-9 -11 -18 -15 -31 -15h-11c-20 0 -27 12 -18 30l61 112c7 13 16 18 30 18h46c21 0 28 -14 15 -31zM678 707l2 -391c1 -219 -131 -332 -309 -332s-308 114 -307 332l3 391c0 16 9 25 25 25h68c16 0 25 -9 25 -25l2 -378c1 -166 72 -239 188 -239
c118 0 181 74 182 239l3 378c0 16 9 25 25 25h68c16 0 25 -9 25 -25z" />
    <glyph glyph-name="Ucaron" unicode="&#x1d3;" horiz-adv-x="744" 
d="M382 803h-20c-14 0 -23 4 -31 14l-98 115c-14 17 -7 31 14 31h35c13 0 22 -5 30 -16l57 -82h10l52 82c8 11 17 16 31 16h34c21 0 28 -14 14 -31l-97 -115c-8 -10 -17 -14 -31 -14zM678 707l2 -391c1 -219 -131 -332 -309 -332s-308 114 -307 332l3 391c0 16 9 25 25 25
h68c16 0 25 -9 25 -25l2 -378c1 -166 72 -239 188 -239c118 0 181 74 182 239l3 378c0 16 9 25 25 25h68c16 0 25 -9 25 -25z" />
    <glyph glyph-name="Ucircumflex" unicode="&#xdb;" horiz-adv-x="744" 
d="M366 902l-52 -82c-8 -11 -17 -16 -31 -16h-34c-21 0 -28 14 -14 31l97 115c8 10 17 14 31 14h20c14 0 23 -4 31 -14l98 -115c14 -17 7 -31 -14 -31h-35c-13 0 -22 5 -30 16l-57 82h-10zM678 707l2 -391c1 -219 -131 -332 -309 -332s-308 114 -307 332l3 391
c0 16 9 25 25 25h68c16 0 25 -9 25 -25l2 -378c1 -166 72 -239 188 -239c118 0 181 74 182 239l3 378c0 16 9 25 25 25h68c16 0 25 -9 25 -25z" />
    <glyph glyph-name="Udieresis" unicode="&#xdc;" horiz-adv-x="744" 
d="M341 929v-65c0 -16 -9 -25 -25 -25h-42c-16 0 -25 9 -25 25v65c0 16 9 25 25 25h42c16 0 25 -9 25 -25zM501 929v-65c0 -16 -9 -25 -25 -25h-42c-16 0 -25 9 -25 25v65c0 16 9 25 25 25h42c16 0 25 -9 25 -25zM678 707l2 -391c1 -219 -131 -332 -309 -332
s-308 114 -307 332l3 391c0 16 9 25 25 25h68c16 0 25 -9 25 -25l2 -378c1 -166 72 -239 188 -239c118 0 181 74 182 239l3 378c0 16 9 25 25 25h68c16 0 25 -9 25 -25z" />
    <glyph glyph-name="Ugrave" unicode="&#xd9;" horiz-adv-x="744" 
d="M281 964h46c14 0 23 -5 30 -18l61 -112c9 -18 2 -30 -18 -30h-11c-13 0 -22 4 -31 15l-92 114c-13 17 -6 31 15 31zM678 707l2 -391c1 -219 -131 -332 -309 -332s-308 114 -307 332l3 391c0 16 9 25 25 25h68c16 0 25 -9 25 -25l2 -378c1 -166 72 -239 188 -239
c118 0 181 74 182 239l3 378c0 16 9 25 25 25h68c16 0 25 -9 25 -25z" />
    <glyph glyph-name="Uhungarumlaut" unicode="&#x170;" horiz-adv-x="744" 
d="M434 935l-92 -114c-9 -11 -18 -15 -31 -15h-11c-20 0 -27 12 -18 30l61 112c7 13 16 18 30 18h46c21 0 28 -14 15 -31zM600 935l-92 -114c-9 -11 -18 -15 -31 -15h-11c-20 0 -27 12 -18 30l61 112c7 13 16 18 30 18h46c21 0 28 -14 15 -31zM678 707l2 -391
c1 -219 -131 -332 -309 -332s-308 114 -307 332l3 391c0 16 9 25 25 25h68c16 0 25 -9 25 -25l2 -378c1 -166 72 -239 188 -239c118 0 181 74 182 239l3 378c0 16 9 25 25 25h68c16 0 25 -9 25 -25z" />
    <glyph glyph-name="Umacron" unicode="&#x16a;" horiz-adv-x="744" 
d="M500 894v-21c0 -16 -9 -25 -25 -25h-205c-16 0 -25 9 -25 25v21c0 16 9 25 25 25h205c16 0 25 -9 25 -25zM678 707l2 -391c1 -219 -131 -332 -309 -332s-308 114 -307 332l3 391c0 16 9 25 25 25h68c16 0 25 -9 25 -25l2 -378c1 -166 72 -239 188 -239
c118 0 181 74 182 239l3 378c0 16 9 25 25 25h68c16 0 25 -9 25 -25z" />
    <glyph glyph-name="Uring" unicode="&#x16e;" horiz-adv-x="744" 
d="M373 977c56 0 101 -40 101 -101s-45 -102 -101 -102s-102 41 -102 102s46 101 102 101zM373 924c-27 0 -49 -18 -49 -48c0 -29 22 -49 49 -49s48 20 48 49c0 30 -21 48 -48 48zM678 707l2 -391c1 -219 -131 -332 -309 -332s-308 114 -307 332l3 391c0 16 9 25 25 25h68
c16 0 25 -9 25 -25l2 -378c1 -166 72 -239 188 -239c118 0 181 74 182 239l3 378c0 16 9 25 25 25h68c16 0 25 -9 25 -25z" />
    <glyph glyph-name="V" unicode="V" horiz-adv-x="674" 
d="M563 732h71c18 0 26 -11 20 -29l-242 -683c-5 -14 -14 -20 -28 -20h-95c-14 0 -23 6 -28 20l-241 683c-6 18 2 29 20 29h70c14 0 23 -6 28 -20l195 -539h4l198 539c5 14 14 20 28 20z" />
    <glyph glyph-name="W" unicode="W" horiz-adv-x="985" 
d="M883 732h63c18 0 26 -11 22 -28l-183 -683c-4 -14 -13 -21 -28 -21h-94c-15 0 -24 7 -28 21l-142 532l-143 -532c-4 -14 -13 -21 -28 -21h-94c-15 0 -24 7 -28 21l-183 683c-4 17 4 28 22 28h70c15 0 24 -7 28 -21l135 -514h4l145 514c4 14 13 21 28 21h95
c15 0 24 -7 28 -21l133 -514h5l145 514c4 14 13 21 28 21z" />
    <glyph glyph-name="Wacute" unicode="&#x1e82;" horiz-adv-x="985" 
d="M611 933l-92 -114c-9 -11 -18 -15 -31 -15h-11c-20 0 -27 12 -18 30l61 112c7 13 16 18 30 18h46c21 0 28 -14 15 -31zM883 732h63c18 0 26 -11 22 -28l-183 -683c-4 -14 -13 -21 -28 -21h-94c-15 0 -24 7 -28 21l-142 532l-143 -532c-4 -14 -13 -21 -28 -21h-94
c-15 0 -24 7 -28 21l-183 683c-4 17 4 28 22 28h70c15 0 24 -7 28 -21l135 -514h4l145 514c4 14 13 21 28 21h95c15 0 24 -7 28 -21l133 -514h5l145 514c4 14 13 21 28 21z" />
    <glyph glyph-name="Wcircumflex" unicode="&#x174;" horiz-adv-x="985" 
d="M486 902l-52 -82c-8 -11 -17 -16 -31 -16h-34c-21 0 -28 14 -14 31l97 115c8 10 17 14 31 14h20c14 0 23 -4 31 -14l98 -115c14 -17 7 -31 -14 -31h-35c-13 0 -22 5 -30 16l-57 82h-10zM883 732h63c18 0 26 -11 22 -28l-183 -683c-4 -14 -13 -21 -28 -21h-94
c-15 0 -24 7 -28 21l-142 532l-143 -532c-4 -14 -13 -21 -28 -21h-94c-15 0 -24 7 -28 21l-183 683c-4 17 4 28 22 28h70c15 0 24 -7 28 -21l135 -514h4l145 514c4 14 13 21 28 21h95c15 0 24 -7 28 -21l133 -514h5l145 514c4 14 13 21 28 21z" />
    <glyph glyph-name="Wdieresis" unicode="&#x1e84;" horiz-adv-x="985" 
d="M461 929v-65c0 -16 -9 -25 -25 -25h-42c-16 0 -25 9 -25 25v65c0 16 9 25 25 25h42c16 0 25 -9 25 -25zM621 929v-65c0 -16 -9 -25 -25 -25h-42c-16 0 -25 9 -25 25v65c0 16 9 25 25 25h42c16 0 25 -9 25 -25zM883 732h63c18 0 26 -11 22 -28l-183 -683
c-4 -14 -13 -21 -28 -21h-94c-15 0 -24 7 -28 21l-142 532l-143 -532c-4 -14 -13 -21 -28 -21h-94c-15 0 -24 7 -28 21l-183 683c-4 17 4 28 22 28h70c15 0 24 -7 28 -21l135 -514h4l145 514c4 14 13 21 28 21h95c15 0 24 -7 28 -21l133 -514h5l145 514c4 14 13 21 28 21z
" />
    <glyph glyph-name="Wgrave" unicode="&#x1e80;" horiz-adv-x="985" 
d="M520 804h-11c-13 0 -22 4 -31 15l-92 114c-13 17 -6 31 15 31h46c14 0 23 -5 30 -18l61 -112c9 -18 2 -30 -18 -30zM883 732h63c18 0 26 -11 22 -28l-183 -683c-4 -14 -13 -21 -28 -21h-94c-15 0 -24 7 -28 21l-142 532l-143 -532c-4 -14 -13 -21 -28 -21h-94
c-15 0 -24 7 -28 21l-183 683c-4 17 4 28 22 28h70c15 0 24 -7 28 -21l135 -514h4l145 514c4 14 13 21 28 21h95c15 0 24 -7 28 -21l133 -514h5l145 514c4 14 13 21 28 21z" />
    <glyph glyph-name="X" unicode="X" horiz-adv-x="738" 
d="M658 0h-90c-13 0 -22 5 -30 16l-172 268l-172 -268c-8 -11 -17 -16 -31 -16h-82c-21 0 -28 13 -16 30l238 351l-207 321c-12 17 -4 30 16 30h74c13 0 22 -5 30 -16l167 -251l166 251c8 11 17 16 30 16h69c20 0 27 -13 16 -30l-219 -330l229 -342c11 -17 4 -30 -16 -30z
" />
    <glyph glyph-name="Y" unicode="Y" horiz-adv-x="613" 
d="M368 295l3 -270c0 -16 -9 -25 -25 -25h-76c-16 0 -25 9 -25 25l2 271l-221 406c-9 18 -2 30 18 30h76c14 0 23 -5 29 -18l157 -295h8l155 295c6 12 15 18 29 18h71c20 0 27 -12 18 -30z" />
    <glyph glyph-name="Yacute" unicode="&#xdd;" horiz-adv-x="613" 
d="M425 933l-92 -114c-9 -11 -18 -15 -31 -15h-11c-20 0 -27 12 -18 30l61 112c7 13 16 18 30 18h46c21 0 28 -14 15 -31zM368 295l3 -270c0 -16 -9 -25 -25 -25h-76c-16 0 -25 9 -25 25l2 271l-221 406c-9 18 -2 30 18 30h76c14 0 23 -5 29 -18l157 -295h8l155 295
c6 12 15 18 29 18h71c20 0 27 -12 18 -30z" />
    <glyph glyph-name="Ycircumflex" unicode="&#x176;" horiz-adv-x="613" 
d="M299 902l-52 -82c-8 -11 -17 -16 -31 -16h-34c-21 0 -28 14 -14 31l97 115c8 10 17 14 31 14h20c14 0 23 -4 31 -14l98 -115c14 -17 7 -31 -14 -31h-35c-13 0 -22 5 -30 16l-57 82h-10zM368 295l3 -270c0 -16 -9 -25 -25 -25h-76c-16 0 -25 9 -25 25l2 271l-221 406
c-9 18 -2 30 18 30h76c14 0 23 -5 29 -18l157 -295h8l155 295c6 12 15 18 29 18h71c20 0 27 -12 18 -30z" />
    <glyph glyph-name="Ydieresis" unicode="&#x178;" horiz-adv-x="613" 
d="M274 929v-65c0 -16 -9 -25 -25 -25h-42c-16 0 -25 9 -25 25v65c0 16 9 25 25 25h42c16 0 25 -9 25 -25zM434 929v-65c0 -16 -9 -25 -25 -25h-42c-16 0 -25 9 -25 25v65c0 16 9 25 25 25h42c16 0 25 -9 25 -25zM368 295l3 -270c0 -16 -9 -25 -25 -25h-76
c-16 0 -25 9 -25 25l2 271l-221 406c-9 18 -2 30 18 30h76c14 0 23 -5 29 -18l157 -295h8l155 295c6 12 15 18 29 18h71c20 0 27 -12 18 -30z" />
    <glyph glyph-name="Ygrave" unicode="&#x1ef2;" horiz-adv-x="613" 
d="M334 804h-11c-13 0 -22 4 -31 15l-92 114c-13 17 -6 31 15 31h46c14 0 23 -5 30 -18l61 -112c9 -18 2 -30 -18 -30zM368 295l3 -270c0 -16 -9 -25 -25 -25h-76c-16 0 -25 9 -25 25l2 271l-221 406c-9 18 -2 30 18 30h76c14 0 23 -5 29 -18l157 -295h8l155 295
c6 12 15 18 29 18h71c20 0 27 -12 18 -30z" />
    <glyph glyph-name="Z" unicode="Z" horiz-adv-x="672" 
d="M204 108h375c16 0 25 -9 25 -25v-58c0 -16 -9 -25 -25 -25h-504c-16 0 -25 9 -25 25v51c0 10 2 19 13 33l376 507v9h-342c-16 0 -25 9 -25 25v57c0 16 9 25 25 25h472c16 0 25 -9 25 -25v-48c0 -11 -1 -20 -12 -33l-378 -511v-7z" />
    <glyph glyph-name="Zacute" unicode="&#x179;" horiz-adv-x="672" 
d="M454 926l-92 -114c-9 -11 -18 -15 -31 -15h-11c-20 0 -27 12 -18 30l61 112c7 13 16 18 30 18h46c21 0 28 -14 15 -31zM204 108h375c16 0 25 -9 25 -25v-58c0 -16 -9 -25 -25 -25h-504c-16 0 -25 9 -25 25v51c0 10 2 19 13 33l376 507v9h-342c-16 0 -25 9 -25 25v57
c0 16 9 25 25 25h472c16 0 25 -9 25 -25v-48c0 -11 -1 -20 -12 -33l-378 -511v-7z" />
    <glyph glyph-name="Zcaron" unicode="&#x17d;" horiz-adv-x="672" 
d="M345 797h-20c-14 0 -23 4 -31 14l-98 115c-14 17 -7 31 14 31h35c13 0 22 -5 30 -16l57 -82h10l52 82c8 11 17 16 31 16h34c21 0 28 -14 14 -31l-97 -115c-8 -10 -17 -14 -31 -14zM204 108h375c16 0 25 -9 25 -25v-58c0 -16 -9 -25 -25 -25h-504c-16 0 -25 9 -25 25v51
c0 10 2 19 13 33l376 507v9h-342c-16 0 -25 9 -25 25v57c0 16 9 25 25 25h472c16 0 25 -9 25 -25v-48c0 -11 -1 -20 -12 -33l-378 -511v-7z" />
    <glyph glyph-name="Zdotaccent" unicode="&#x17b;" horiz-adv-x="672" 
d="M394 921v-65c0 -16 -9 -25 -25 -25h-65c-16 0 -25 9 -25 25v65c0 16 9 25 25 25h65c16 0 25 -9 25 -25zM204 108h375c16 0 25 -9 25 -25v-58c0 -16 -9 -25 -25 -25h-504c-16 0 -25 9 -25 25v51c0 10 2 19 13 33l376 507v9h-342c-16 0 -25 9 -25 25v57c0 16 9 25 25 25
h472c16 0 25 -9 25 -25v-48c0 -11 -1 -20 -12 -33l-378 -511v-7z" />
    <glyph glyph-name="a" unicode="a" horiz-adv-x="576" 
d="M295 553c127 0 207 -64 209 -216l4 -312c0 -16 -9 -25 -25 -25h-69c-16 0 -25 9 -25 25v56h-8c-36 -55 -100 -92 -180 -92c-96 0 -163 55 -163 152c0 123 107 177 319 193l32 2v14c0 57 -24 103 -105 103c-53 0 -84 -21 -101 -45c-7 -12 -15 -18 -29 -18h-64
c-18 0 -28 5 -26 14c19 65 85 149 231 149zM389 249l-30 -2c-152 -11 -207 -47 -207 -99c0 -35 26 -57 76 -57c99 0 164 76 161 134v24z" />
    <glyph glyph-name="aacute" unicode="&#xe1;" horiz-adv-x="576" 
d="M403 732l-92 -114c-9 -11 -18 -15 -31 -15h-11c-20 0 -27 12 -18 30l61 112c7 13 16 18 30 18h46c21 0 28 -14 15 -31zM295 553c127 0 207 -64 209 -216l4 -312c0 -16 -9 -25 -25 -25h-69c-16 0 -25 9 -25 25v56h-8c-36 -55 -100 -92 -180 -92c-96 0 -163 55 -163 152
c0 123 107 177 319 193l32 2v14c0 57 -24 103 -105 103c-53 0 -84 -21 -101 -45c-7 -12 -15 -18 -29 -18h-64c-18 0 -28 5 -26 14c19 65 85 149 231 149zM389 249l-30 -2c-152 -11 -207 -47 -207 -99c0 -35 26 -57 76 -57c99 0 164 76 161 134v24z" />
    <glyph glyph-name="abreve" unicode="&#x103;" horiz-adv-x="576" 
d="M431 725c0 -92 -61 -133 -148 -133c-85 0 -146 41 -146 133c0 10 9 16 25 16h21c16 0 25 -6 25 -16c0 -51 32 -69 75 -69c45 0 76 18 76 69c0 10 9 16 25 16h22c16 0 25 -6 25 -16zM295 553c127 0 207 -64 209 -216l4 -312c0 -16 -9 -25 -25 -25h-69c-16 0 -25 9 -25 25
v56h-8c-36 -55 -100 -92 -180 -92c-96 0 -163 55 -163 152c0 123 107 177 319 193l32 2v14c0 57 -24 103 -105 103c-53 0 -84 -21 -101 -45c-7 -12 -15 -18 -29 -18h-64c-18 0 -28 5 -26 14c19 65 85 149 231 149zM389 249l-30 -2c-152 -11 -207 -47 -207 -99
c0 -35 26 -57 76 -57c99 0 164 76 161 134v24z" />
    <glyph glyph-name="acaron" unicode="&#x1ce;" horiz-adv-x="576" 
d="M293 602h-20c-14 0 -23 4 -31 14l-98 115c-14 17 -7 31 14 31h35c13 0 22 -5 30 -16l57 -82h10l52 82c8 11 17 16 31 16h34c21 0 28 -14 14 -31l-97 -115c-8 -10 -17 -14 -31 -14zM483 0h-69c-16 0 -25 9 -25 25v56h-8c-36 -55 -100 -92 -180 -92c-96 0 -163 55 -163 152
c0 123 107 177 319 193l32 2v14c0 57 -24 103 -105 103c-53 0 -84 -21 -101 -45c-7 -12 -15 -18 -29 -18h-64c-18 0 -27 11 -21 28c24 63 91 135 226 135c127 0 207 -64 209 -216l4 -312c0 -16 -9 -25 -25 -25zM228 91c99 0 164 76 161 134v24l-30 -2
c-152 -11 -207 -47 -207 -99c0 -35 26 -57 76 -57z" />
    <glyph glyph-name="acircumflex" unicode="&#xe2;" horiz-adv-x="576" 
d="M277 701l-52 -82c-8 -11 -17 -16 -31 -16h-34c-21 0 -28 14 -14 31l97 115c8 10 17 14 31 14h20c14 0 23 -4 31 -14l98 -115c14 -17 7 -31 -14 -31h-35c-13 0 -22 5 -30 16l-57 82h-10zM483 0h-69c-16 0 -25 9 -25 25v56h-8c-36 -55 -100 -92 -180 -92
c-96 0 -163 55 -163 152c0 123 107 177 319 193l32 2v14c0 57 -24 103 -105 103c-53 0 -84 -21 -101 -45c-7 -12 -15 -18 -29 -18h-64c-18 0 -27 11 -21 28c24 63 91 135 226 135c127 0 207 -64 209 -216l4 -312c0 -16 -9 -25 -25 -25zM228 91c99 0 164 76 161 134v24
l-30 -2c-152 -11 -207 -47 -207 -99c0 -35 26 -57 76 -57z" />
    <glyph glyph-name="adieresis" unicode="&#xe4;" horiz-adv-x="576" 
d="M252 728v-65c0 -16 -9 -25 -25 -25h-42c-16 0 -25 9 -25 25v65c0 16 9 25 25 25h42c16 0 25 -9 25 -25zM412 728v-65c0 -16 -9 -25 -25 -25h-42c-16 0 -25 9 -25 25v65c0 16 9 25 25 25h42c16 0 25 -9 25 -25zM295 553c127 0 207 -64 209 -216l4 -312
c0 -16 -9 -25 -25 -25h-69c-16 0 -25 9 -25 25v56h-8c-36 -55 -100 -92 -180 -92c-96 0 -163 55 -163 152c0 123 107 177 319 193l32 2v14c0 57 -24 103 -105 103c-53 0 -84 -21 -101 -45c-7 -12 -15 -18 -29 -18h-64c-18 0 -28 5 -26 14c19 65 85 149 231 149zM389 249
l-30 -2c-152 -11 -207 -47 -207 -99c0 -35 26 -57 76 -57c99 0 164 76 161 134v24z" />
    <glyph glyph-name="agrave" unicode="&#xe0;" horiz-adv-x="576" 
d="M193 763h46c14 0 23 -5 30 -18l61 -112c9 -18 2 -30 -18 -30h-11c-13 0 -22 4 -31 15l-92 114c-13 17 -6 31 15 31zM295 553c127 0 207 -64 209 -216l4 -312c0 -16 -9 -25 -25 -25h-69c-16 0 -25 9 -25 25v56h-8c-36 -55 -100 -92 -180 -92c-96 0 -163 55 -163 152
c0 123 107 177 319 193l32 2v14c0 57 -24 103 -105 103c-53 0 -84 -21 -101 -45c-7 -12 -15 -18 -29 -18h-64c-18 0 -28 5 -26 14c19 65 85 149 231 149zM389 249l-30 -2c-152 -11 -207 -47 -207 -99c0 -35 26 -57 76 -57c99 0 164 76 161 134v24z" />
    <glyph glyph-name="amacron" unicode="&#x101;" horiz-adv-x="576" 
d="M412 693v-21c0 -16 -9 -25 -25 -25h-205c-16 0 -25 9 -25 25v21c0 16 9 25 25 25h205c16 0 25 -9 25 -25zM295 553c127 0 207 -64 209 -216l4 -312c0 -16 -9 -25 -25 -25h-69c-16 0 -25 9 -25 25v56h-8c-36 -55 -100 -92 -180 -92c-96 0 -163 55 -163 152
c0 123 107 177 319 193l32 2v14c0 57 -24 103 -105 103c-53 0 -84 -21 -101 -45c-7 -12 -15 -18 -29 -18h-64c-18 0 -28 5 -26 14c19 65 85 149 231 149zM389 249l-30 -2c-152 -11 -207 -47 -207 -99c0 -35 26 -57 76 -57c99 0 164 76 161 134v24z" />
    <glyph glyph-name="aring" unicode="&#xe5;" horiz-adv-x="576" 
d="M284 776c56 0 101 -40 101 -101s-45 -102 -101 -102s-102 41 -102 102s46 101 102 101zM284 723c-27 0 -49 -18 -49 -48c0 -29 22 -49 49 -49s48 20 48 49c0 30 -21 48 -48 48zM295 553c127 0 207 -64 209 -216l4 -312c0 -16 -9 -25 -25 -25h-69c-16 0 -25 9 -25 25v56
h-8c-36 -55 -100 -92 -180 -92c-96 0 -163 55 -163 152c0 123 107 177 319 193l32 2v14c0 57 -24 103 -105 103c-53 0 -84 -21 -101 -45c-7 -12 -15 -18 -29 -18h-64c-18 0 -28 5 -26 14c19 65 85 149 231 149zM389 249l-30 -2c-152 -11 -207 -47 -207 -99
c0 -35 26 -57 76 -57c99 0 164 76 161 134v24z" />
    <glyph glyph-name="atilde" unicode="&#xe3;" horiz-adv-x="576" 
d="M235 744c69 0 89 -73 119 -73c14 0 20 14 23 31c2 16 9 25 25 25h15c17 0 26 -9 25 -26c-6 -50 -29 -100 -88 -100c-63 0 -78 73 -118 73c-16 0 -24 -14 -27 -32c-3 -16 -10 -24 -26 -24h-15c-17 0 -26 9 -25 26c6 56 30 100 92 100zM295 553c127 0 207 -64 209 -216
l4 -312c0 -16 -9 -25 -25 -25h-69c-16 0 -25 9 -25 25v56h-8c-36 -55 -100 -92 -180 -92c-96 0 -163 55 -163 152c0 123 107 177 319 193l32 2v14c0 57 -24 103 -105 103c-53 0 -84 -21 -101 -45c-7 -12 -15 -18 -29 -18h-64c-18 0 -28 5 -26 14c19 65 85 149 231 149z
M389 249l-30 -2c-152 -11 -207 -47 -207 -99c0 -35 26 -57 76 -57c99 0 164 76 161 134v24z" />
    <glyph glyph-name="ae" unicode="&#xe6;" horiz-adv-x="926" 
d="M653 554c164 0 241 -128 235 -288c-1 -16 -10 -24 -26 -24h-356c6 -109 68 -154 148 -154c47 0 78 15 104 54c7 12 16 17 30 17h61c19 0 27 -12 20 -29c-42 -95 -125 -146 -225 -146c-90 0 -165 41 -210 112h-6c-41 -61 -128 -107 -227 -107c-96 0 -163 54 -163 152
c0 123 107 177 319 193l32 2v9c0 61 -24 107 -105 107c-53 0 -84 -21 -101 -45c-7 -12 -15 -18 -29 -18h-64c-18 0 -27 11 -21 28c24 63 91 136 226 136c76 0 136 -23 172 -75c45 48 110 76 186 76zM513 334h255c-2 61 -44 116 -125 116c-82 0 -116 -57 -130 -116zM389 249
l-30 -2c-152 -11 -207 -47 -207 -99c0 -35 26 -58 76 -58c99 0 161 89 161 144v15z" />
    <glyph glyph-name="b" unicode="b" horiz-adv-x="617" 
d="M186 502h6c34 37 77 51 132 51c152 0 255 -117 255 -291c0 -161 -90 -278 -221 -278c-63 0 -125 27 -163 87h-7v-46c0 -16 -9 -25 -25 -25h-70c-16 0 -25 9 -25 25l4 702c0 16 9 25 25 25h62c16 0 25 -9 25 -25zM325 450c-83 0 -143 -69 -144 -192v-5
c6 -106 62 -165 146 -165c87 0 134 66 134 176c0 122 -56 186 -136 186z" />
    <glyph glyph-name="c" unicode="c" horiz-adv-x="544" 
d="M291 554c124 0 206 -79 229 -161c4 -17 -5 -27 -23 -27h-62c-14 0 -22 6 -29 18c-25 43 -58 66 -114 66c-81 0 -137 -47 -137 -185c0 -130 56 -176 143 -176c57 0 85 23 104 56c7 12 15 18 29 18h62c18 0 28 -11 21 -28c-29 -75 -105 -151 -227 -151
c-152 0 -249 110 -249 278c0 181 104 292 253 292z" />
    <glyph glyph-name="cacute" unicode="&#x107;" horiz-adv-x="544" 
d="M399 732l-92 -114c-9 -11 -18 -15 -31 -15h-11c-20 0 -27 12 -18 30l61 112c7 13 16 18 30 18h46c21 0 28 -14 15 -31zM291 554c124 0 206 -79 229 -161c4 -17 -5 -27 -23 -27h-62c-14 0 -22 6 -29 18c-25 43 -58 66 -114 66c-81 0 -137 -47 -137 -185
c0 -130 56 -176 143 -176c57 0 85 23 104 56c7 12 15 18 29 18h62c18 0 28 -11 21 -28c-29 -75 -105 -151 -227 -151c-152 0 -249 110 -249 278c0 181 104 292 253 292z" />
    <glyph glyph-name="ccaron" unicode="&#x10d;" horiz-adv-x="544" 
d="M289 602h-20c-14 0 -23 4 -31 14l-98 115c-14 17 -7 31 14 31h35c13 0 22 -5 30 -16l57 -82h10l52 82c8 11 17 16 31 16h34c21 0 28 -14 14 -31l-97 -115c-8 -10 -17 -14 -31 -14zM298 89c57 0 85 23 104 56c7 12 15 18 29 18h62c18 0 28 -11 21 -28
c-29 -75 -105 -151 -227 -151c-152 0 -249 110 -249 278c0 181 104 292 253 292c124 0 206 -79 229 -161c4 -17 -5 -27 -23 -27h-62c-14 0 -22 6 -29 18c-25 43 -58 66 -114 66c-81 0 -137 -47 -137 -185c0 -130 56 -176 143 -176z" />
    <glyph glyph-name="ccedilla" unicode="&#xe7;" horiz-adv-x="544" 
d="M298 89c57 0 85 23 104 56c7 12 15 18 29 18h62c18 0 28 -11 21 -28c-27 -70 -94 -141 -203 -150l-15 -43c41 -8 71 -35 71 -84c0 -53 -36 -94 -106 -94c-20 0 -41 3 -61 12c-14 6 -18 18 -13 33l2 7c5 16 16 20 32 15c15 -5 29 -8 40 -8c23 0 39 13 39 32
c0 18 -12 38 -59 38c-16 0 -23 11 -18 28l20 66c-126 19 -205 124 -205 275c0 181 104 292 253 292c124 0 206 -79 229 -161c4 -17 -5 -27 -23 -27h-62c-14 0 -22 6 -29 18c-25 43 -58 66 -114 66c-81 0 -137 -47 -137 -185c0 -130 56 -176 143 -176z" />
    <glyph glyph-name="cdotaccent" unicode="&#x10b;" horiz-adv-x="544" 
d="M338 727v-65c0 -16 -9 -25 -25 -25h-65c-16 0 -25 9 -25 25v65c0 16 9 25 25 25h65c16 0 25 -9 25 -25zM291 554c124 0 206 -79 229 -161c4 -17 -5 -27 -23 -27h-62c-14 0 -22 6 -29 18c-25 43 -58 66 -114 66c-81 0 -137 -47 -137 -185c0 -130 56 -176 143 -176
c57 0 85 23 104 56c7 12 15 18 29 18h62c18 0 28 -11 21 -28c-29 -75 -105 -151 -227 -151c-152 0 -249 110 -249 278c0 181 104 292 253 292z" />
    <glyph glyph-name="d" unicode="d" horiz-adv-x="616" 
d="M544 727l4 -702c0 -16 -9 -25 -25 -25h-74c-16 0 -25 9 -25 25v46h-7c-34 -60 -95 -87 -159 -87c-130 0 -220 117 -220 278c0 174 103 291 255 291c54 0 97 -14 130 -51h5l1 225c0 16 9 25 25 25h65c16 0 25 -9 25 -25zM290 450c-88 0 -135 -67 -135 -178
c0 -120 57 -183 136 -183c83 0 142 69 143 188v5c-4 110 -62 168 -144 168z" />
    <glyph glyph-name="dcaron" unicode="&#x10f;" horiz-adv-x="616" 
d="M544 727l4 -702c0 -16 -9 -25 -25 -25h-74c-16 0 -25 9 -25 25v46h-7c-34 -60 -95 -87 -159 -87c-130 0 -220 117 -220 278c0 174 103 291 255 291c54 0 97 -14 130 -51h5l1 225c0 16 9 25 25 25h65c16 0 25 -9 25 -25zM705 725l-22 -121c-3 -15 -12 -23 -27 -23h-14
c-16 0 -25 9 -23 26l12 121c1 16 10 24 26 24h25c18 0 26 -10 23 -27zM290 450c-88 0 -135 -67 -135 -178c0 -120 57 -183 136 -183c83 0 142 69 143 188v5c-4 110 -62 168 -144 168z" />
    <glyph glyph-name="e" unicode="e" horiz-adv-x="574" 
d="M302 554c163 0 241 -128 234 -288c-1 -16 -10 -24 -26 -24h-355c5 -109 68 -154 148 -154c46 0 77 15 103 54c7 12 16 17 30 17h61c19 0 27 -12 20 -29c-42 -95 -125 -146 -224 -146c-148 0 -255 111 -255 281s106 289 264 289zM292 450c-83 0 -117 -57 -131 -116h255
c-1 61 -43 116 -124 116z" />
    <glyph glyph-name="eacute" unicode="&#xe9;" horiz-adv-x="574" 
d="M405 732l-92 -114c-9 -11 -18 -15 -31 -15h-11c-20 0 -27 12 -18 30l61 112c7 13 16 18 30 18h46c21 0 28 -14 15 -31zM302 554c163 0 241 -128 234 -288c-1 -16 -10 -24 -26 -24h-355c5 -109 68 -154 148 -154c46 0 77 15 103 54c7 12 16 17 30 17h61
c19 0 27 -12 20 -29c-42 -95 -125 -146 -224 -146c-148 0 -255 111 -255 281s106 289 264 289zM292 450c-83 0 -117 -57 -131 -116h255c-1 61 -43 116 -124 116z" />
    <glyph glyph-name="ecaron" unicode="&#x11b;" horiz-adv-x="574" 
d="M295 602h-20c-14 0 -23 4 -31 14l-98 115c-14 17 -7 31 14 31h35c13 0 22 -5 30 -16l57 -82h10l52 82c8 11 17 16 31 16h34c21 0 28 -14 14 -31l-97 -115c-8 -10 -17 -14 -31 -14zM302 554c163 0 241 -128 234 -288c-1 -16 -10 -24 -26 -24h-355c5 -109 68 -154 148 -154
c46 0 77 15 103 54c7 12 16 17 30 17h61c19 0 27 -12 20 -29c-42 -95 -125 -146 -224 -146c-148 0 -255 111 -255 281s106 289 264 289zM161 334h255c-1 61 -43 116 -124 116c-83 0 -117 -57 -131 -116z" />
    <glyph glyph-name="ecircumflex" unicode="&#xea;" horiz-adv-x="574" 
d="M279 701l-52 -82c-8 -11 -17 -16 -31 -16h-34c-21 0 -28 14 -14 31l97 115c8 10 17 14 31 14h20c14 0 23 -4 31 -14l98 -115c14 -17 7 -31 -14 -31h-35c-13 0 -22 5 -30 16l-57 82h-10zM302 554c163 0 241 -128 234 -288c-1 -16 -10 -24 -26 -24h-355
c5 -109 68 -154 148 -154c46 0 77 15 103 54c7 12 16 17 30 17h61c19 0 27 -12 20 -29c-42 -95 -125 -146 -224 -146c-148 0 -255 111 -255 281s106 289 264 289zM161 334h255c-1 61 -43 116 -124 116c-83 0 -117 -57 -131 -116z" />
    <glyph glyph-name="edieresis" unicode="&#xeb;" horiz-adv-x="574" 
d="M254 728v-65c0 -16 -9 -25 -25 -25h-42c-16 0 -25 9 -25 25v65c0 16 9 25 25 25h42c16 0 25 -9 25 -25zM414 728v-65c0 -16 -9 -25 -25 -25h-42c-16 0 -25 9 -25 25v65c0 16 9 25 25 25h42c16 0 25 -9 25 -25zM302 554c163 0 241 -128 234 -288c-1 -16 -10 -24 -26 -24
h-355c5 -109 68 -154 148 -154c46 0 77 15 103 54c7 12 16 17 30 17h61c19 0 27 -12 20 -29c-42 -95 -125 -146 -224 -146c-148 0 -255 111 -255 281s106 289 264 289zM292 450c-83 0 -117 -57 -131 -116h255c-1 61 -43 116 -124 116z" />
    <glyph glyph-name="edotaccent" unicode="&#x117;" horiz-adv-x="574" 
d="M344 727v-65c0 -16 -9 -25 -25 -25h-65c-16 0 -25 9 -25 25v65c0 16 9 25 25 25h65c16 0 25 -9 25 -25zM302 554c163 0 241 -128 234 -288c-1 -16 -10 -24 -26 -24h-355c5 -109 68 -154 148 -154c46 0 77 15 103 54c7 12 16 17 30 17h61c19 0 27 -12 20 -29
c-42 -95 -125 -146 -224 -146c-148 0 -255 111 -255 281s106 289 264 289zM292 450c-83 0 -117 -57 -131 -116h255c-1 61 -43 116 -124 116z" />
    <glyph glyph-name="egrave" unicode="&#xe8;" horiz-adv-x="574" 
d="M195 763h46c14 0 23 -5 30 -18l61 -112c9 -18 2 -30 -18 -30h-11c-13 0 -22 4 -31 15l-92 114c-13 17 -6 31 15 31zM302 554c163 0 241 -128 234 -288c-1 -16 -10 -24 -26 -24h-355c5 -109 68 -154 148 -154c46 0 77 15 103 54c7 12 16 17 30 17h61c19 0 27 -12 20 -29
c-42 -95 -125 -146 -224 -146c-148 0 -255 111 -255 281s106 289 264 289zM292 450c-83 0 -117 -57 -131 -116h255c-1 61 -43 116 -124 116z" />
    <glyph glyph-name="emacron" unicode="&#x113;" horiz-adv-x="574" 
d="M414 693v-21c0 -16 -9 -25 -25 -25h-205c-16 0 -25 9 -25 25v21c0 16 9 25 25 25h205c16 0 25 -9 25 -25zM302 554c163 0 241 -128 234 -288c-1 -16 -10 -24 -26 -24h-355c5 -109 68 -154 148 -154c46 0 77 15 103 54c7 12 16 17 30 17h61c19 0 27 -12 20 -29
c-42 -95 -125 -146 -224 -146c-148 0 -255 111 -255 281s106 289 264 289zM292 450c-83 0 -117 -57 -131 -116h255c-1 61 -43 116 -124 116z" />
    <glyph glyph-name="f" unicode="f" horiz-adv-x="399" 
d="M376 728v-55c0 -16 -9 -25 -25 -25c-85 -2 -127 -8 -126 -106v-5h121c16 0 25 -9 25 -25v-48c0 -16 -9 -25 -25 -25h-120l3 -414c0 -16 -9 -25 -25 -25h-73c-16 0 -25 9 -25 25l3 414h-59c-16 0 -25 9 -25 25v48c0 16 9 25 25 25h60c3 177 114 221 242 216
c16 0 24 -9 24 -25z" />
    <glyph glyph-name="g" unicode="g" horiz-adv-x="618" 
d="M258 553c66 0 126 -31 161 -90h8l1 49c1 16 10 25 26 25h65c16 0 25 -9 25 -25l6 -431c4 -218 -107 -317 -255 -317c-97 0 -174 43 -217 126c-9 18 0 30 19 30h65c13 0 22 -5 31 -15c25 -28 61 -37 100 -37c77 0 134 40 131 173v13h-6c-34 -39 -70 -54 -127 -54
c-150 0 -253 110 -253 277c0 156 90 276 220 276zM291 450c-79 0 -136 -68 -136 -183c0 -105 47 -163 135 -163c82 0 140 51 144 148v5c-1 121 -60 193 -143 193z" />
    <glyph glyph-name="gbreve" unicode="&#x11f;" horiz-adv-x="618" 
d="M451 725c0 -92 -61 -133 -148 -133c-85 0 -146 41 -146 133c0 10 9 16 25 16h21c16 0 25 -6 25 -16c0 -51 32 -69 75 -69c45 0 76 18 76 69c0 10 9 16 25 16h22c16 0 25 -6 25 -16zM258 553c66 0 126 -31 161 -90h8l1 49c1 16 10 25 26 25h65c16 0 25 -9 25 -25l6 -431
c4 -218 -107 -317 -255 -317c-97 0 -174 43 -217 126c-9 18 0 30 19 30h65c13 0 22 -5 31 -15c25 -28 61 -37 100 -37c77 0 134 40 131 173v13h-6c-34 -39 -70 -54 -127 -54c-150 0 -253 110 -253 277c0 156 90 276 220 276zM291 450c-79 0 -136 -68 -136 -183
c0 -105 47 -163 135 -163c82 0 140 51 144 148v5c-1 121 -60 193 -143 193z" />
    <glyph glyph-name="gdotaccent" unicode="&#x121;" horiz-adv-x="618" 
d="M362 727v-65c0 -16 -9 -25 -25 -25h-65c-16 0 -25 9 -25 25v65c0 16 9 25 25 25h65c16 0 25 -9 25 -25zM258 553c66 0 126 -31 161 -90h8l1 49c1 16 10 25 26 25h65c16 0 25 -9 25 -25l6 -431c4 -218 -107 -317 -255 -317c-97 0 -174 43 -217 126c-9 18 0 30 19 30h65
c13 0 22 -5 31 -15c25 -28 61 -37 100 -37c77 0 134 40 131 173v13h-6c-34 -39 -70 -54 -127 -54c-150 0 -253 110 -253 277c0 156 90 276 220 276zM291 450c-79 0 -136 -68 -136 -183c0 -105 47 -163 135 -163c82 0 140 51 144 148v5c-1 121 -60 193 -143 193z" />
    <glyph glyph-name="h" unicode="h" horiz-adv-x="593" 
d="M189 464h9c37 57 89 83 152 83c104 0 172 -73 173 -201l2 -321c0 -16 -9 -25 -25 -25h-74c-16 0 -25 9 -25 25l3 291c1 81 -35 118 -94 118c-73 0 -128 -56 -121 -178l2 -231c0 -16 -9 -25 -25 -25h-73c-16 0 -25 9 -25 25l4 702c0 16 9 25 25 25h65c16 0 25 -9 25 -25z
" />
    <glyph glyph-name="i" unicode="i" horiz-adv-x="279" 
d="M198 727v-65c0 -16 -9 -25 -25 -25h-65c-16 0 -25 9 -25 25v65c0 16 9 25 25 25h65c16 0 25 -9 25 -25zM197 512l4 -487c0 -16 -9 -25 -25 -25h-73c-16 0 -25 9 -25 25l4 487c0 16 9 25 25 25h65c16 0 25 -9 25 -25z" />
    <glyph glyph-name="dotlessi" unicode="&#x131;" horiz-adv-x="279" 
d="M197 512l4 -487c0 -16 -9 -25 -25 -25h-73c-16 0 -25 9 -25 25l4 487c0 16 9 25 25 25h65c16 0 25 -9 25 -25z" />
    <glyph glyph-name="iacute" unicode="&#xed;" horiz-adv-x="279" 
d="M259 732l-92 -114c-9 -11 -18 -15 -31 -15h-11c-20 0 -27 12 -18 30l61 112c7 13 16 18 30 18h46c21 0 28 -14 15 -31zM197 512l4 -487c0 -16 -9 -25 -25 -25h-73c-16 0 -25 9 -25 25l4 487c0 16 9 25 25 25h65c16 0 25 -9 25 -25z" />
    <glyph glyph-name="icaron" unicode="&#x1d0;" horiz-adv-x="279" 
d="M149 602h-20c-14 0 -23 4 -31 14l-98 115c-14 17 -7 31 14 31h35c13 0 22 -5 30 -16l57 -82h10l52 82c8 11 17 16 31 16h34c21 0 28 -14 14 -31l-97 -115c-8 -10 -17 -14 -31 -14zM107 537h65c16 0 25 -9 25 -25l4 -487c0 -16 -9 -25 -25 -25h-73c-16 0 -25 9 -25 25
l4 487c0 16 9 25 25 25z" />
    <glyph glyph-name="icircumflex" unicode="&#xee;" horiz-adv-x="279" 
d="M181 749l98 -115c14 -17 7 -31 -14 -31h-35c-13 0 -22 5 -30 16l-57 82h-10l-52 -82c-8 -11 -17 -16 -31 -16h-34c-21 0 -28 14 -14 31l97 115c8 10 17 14 31 14h20c14 0 23 -4 31 -14zM107 537h65c16 0 25 -9 25 -25l4 -487c0 -16 -9 -25 -25 -25h-73
c-16 0 -25 9 -25 25l4 487c0 16 9 25 25 25z" />
    <glyph glyph-name="idieresis" unicode="&#xef;" horiz-adv-x="279" 
d="M108 728v-65c0 -16 -9 -25 -25 -25h-42c-16 0 -25 9 -25 25v65c0 16 9 25 25 25h42c16 0 25 -9 25 -25zM268 728v-65c0 -16 -9 -25 -25 -25h-42c-16 0 -25 9 -25 25v65c0 16 9 25 25 25h42c16 0 25 -9 25 -25zM197 512l4 -487c0 -16 -9 -25 -25 -25h-73
c-16 0 -25 9 -25 25l4 487c0 16 9 25 25 25h65c16 0 25 -9 25 -25z" />
    <glyph glyph-name="idotaccent" horiz-adv-x="279" 
d="M198 727v-65c0 -16 -9 -25 -25 -25h-65c-16 0 -25 9 -25 25v65c0 16 9 25 25 25h65c16 0 25 -9 25 -25zM197 512l4 -487c0 -16 -9 -25 -25 -25h-73c-16 0 -25 9 -25 25l4 487c0 16 9 25 25 25h65c16 0 25 -9 25 -25z" />
    <glyph glyph-name="igrave" unicode="&#xec;" horiz-adv-x="279" 
d="M48 763h46c14 0 23 -5 30 -18l61 -112c9 -18 2 -30 -18 -30h-11c-13 0 -22 4 -31 15l-92 114c-13 17 -6 31 15 31zM197 512l4 -487c0 -16 -9 -25 -25 -25h-73c-16 0 -25 9 -25 25l4 487c0 16 9 25 25 25h65c16 0 25 -9 25 -25z" />
    <glyph glyph-name="imacron" unicode="&#x12b;" horiz-adv-x="279" 
d="M267 693v-21c0 -16 -9 -25 -25 -25h-205c-16 0 -25 9 -25 25v21c0 16 9 25 25 25h205c16 0 25 -9 25 -25zM197 512l4 -487c0 -16 -9 -25 -25 -25h-73c-16 0 -25 9 -25 25l4 487c0 16 9 25 25 25h65c16 0 25 -9 25 -25z" />
    <glyph glyph-name="j" unicode="j" horiz-adv-x="303" 
d="M212 727v-65c0 -16 -9 -25 -25 -25h-65c-16 0 -25 9 -25 25v65c0 16 9 25 25 25h65c16 0 25 -9 25 -25zM212 512l4 -512c1 -180 -107 -216 -218 -220c-16 0 -25 9 -25 25v54c0 16 9 25 25 26c62 2 94 9 95 105l4 522c0 16 9 25 25 25h65c16 0 25 -9 25 -25z" />
    <glyph glyph-name="dotlessj" unicode="&#x237;" horiz-adv-x="303" 
d="M212 512l4 -512c1 -180 -107 -216 -218 -220c-16 0 -25 9 -25 25v54c0 16 9 25 25 26c62 2 94 9 95 105l4 522c0 16 9 25 25 25h65c16 0 25 -9 25 -25z" />
    <glyph glyph-name="k" unicode="k" horiz-adv-x="585" 
d="M240 243l-50 -47l1 -171c0 -16 -9 -25 -25 -25h-73c-16 0 -25 9 -25 25l4 702c0 16 9 25 25 25h65c16 0 25 -9 25 -25l2 -405l209 202c9 9 18 13 31 13h73c23 0 29 -15 13 -31l-203 -194l213 -281c13 -17 6 -31 -15 -31h-79c-13 0 -22 5 -30 16z" />
    <glyph glyph-name="l" unicode="l" horiz-adv-x="297" 
d="M206 727l4 -702c0 -16 -9 -25 -25 -25h-73c-16 0 -25 9 -25 25l4 702c0 16 9 25 25 25h65c16 0 25 -9 25 -25z" />
    <glyph glyph-name="lacute" unicode="&#x13a;" horiz-adv-x="297" 
d="M268 938l-92 -114c-9 -11 -18 -15 -31 -15h-11c-20 0 -27 12 -18 30l61 112c7 13 16 18 30 18h46c21 0 28 -14 15 -31zM206 727l4 -702c0 -16 -9 -25 -25 -25h-73c-16 0 -25 9 -25 25l4 702c0 16 9 25 25 25h65c16 0 25 -9 25 -25z" />
    <glyph glyph-name="lcaron" unicode="&#x13e;" horiz-adv-x="297" 
d="M206 727l4 -702c0 -16 -9 -25 -25 -25h-73c-16 0 -25 9 -25 25l4 702c0 16 9 25 25 25h65c16 0 25 -9 25 -25zM370 725l-22 -121c-3 -15 -12 -23 -27 -23h-14c-16 0 -25 9 -23 26l12 121c1 16 10 24 26 24h25c18 0 26 -10 23 -27z" />
    <glyph glyph-name="m" unicode="m" horiz-adv-x="894" 
d="M656 553c105 0 169 -74 170 -207l3 -321c0 -16 -9 -25 -25 -25h-74c-16 0 -25 9 -25 25l2 291c1 86 -29 125 -85 125c-68 0 -121 -58 -114 -185l2 -231c0 -16 -9 -25 -25 -25h-74c-16 0 -25 9 -25 25l2 291c1 86 -30 125 -85 125c-61 0 -121 -48 -114 -185l2 -231
c0 -16 -9 -25 -25 -25h-74c-16 0 -25 9 -25 25l5 487c0 16 9 25 25 25h65c16 0 25 -9 25 -25l1 -48h5c40 56 91 89 151 89c65 0 115 -32 141 -98h7c46 65 96 98 164 98z" />
    <glyph glyph-name="n" unicode="n" horiz-adv-x="588" 
d="M350 553c104 0 171 -76 171 -207v-321c0 -16 -9 -25 -25 -25h-65c-16 0 -25 9 -25 25v291c0 83 -37 125 -96 125c-73 0 -128 -59 -121 -185l2 -231c0 -16 -9 -25 -25 -25h-73c-16 0 -25 9 -25 25l4 487c0 16 9 25 25 25h65c16 0 25 -9 25 -25l1 -48h8c39 61 91 89 154 89
z" />
    <glyph glyph-name="nacute" unicode="&#x144;" horiz-adv-x="588" 
d="M415 732l-92 -114c-9 -11 -18 -15 -31 -15h-11c-20 0 -27 12 -18 30l61 112c7 13 16 18 30 18h46c21 0 28 -14 15 -31zM350 553c104 0 171 -76 171 -207v-321c0 -16 -9 -25 -25 -25h-65c-16 0 -25 9 -25 25v291c0 83 -37 125 -96 125c-73 0 -128 -59 -121 -185l2 -231
c0 -16 -9 -25 -25 -25h-73c-16 0 -25 9 -25 25l4 487c0 16 9 25 25 25h65c16 0 25 -9 25 -25l1 -48h8c39 61 91 89 154 89z" />
    <glyph glyph-name="ncaron" unicode="&#x148;" horiz-adv-x="588" 
d="M305 602h-20c-14 0 -23 4 -31 14l-98 115c-14 17 -7 31 14 31h35c13 0 22 -5 30 -16l57 -82h10l52 82c8 11 17 16 31 16h34c21 0 28 -14 14 -31l-97 -115c-8 -10 -17 -14 -31 -14zM350 553c104 0 171 -76 171 -207v-321c0 -16 -9 -25 -25 -25h-65c-16 0 -25 9 -25 25v291
c0 83 -37 125 -96 125c-73 0 -128 -59 -121 -185l2 -231c0 -16 -9 -25 -25 -25h-73c-16 0 -25 9 -25 25l4 487c0 16 9 25 25 25h65c16 0 25 -9 25 -25l1 -48h8c39 61 91 89 154 89z" />
    <glyph glyph-name="ntilde" unicode="&#xf1;" horiz-adv-x="588" 
d="M247 744c69 0 89 -73 119 -73c14 0 20 14 23 31c2 16 9 25 25 25h15c17 0 26 -9 25 -26c-6 -50 -29 -100 -88 -100c-63 0 -78 73 -118 73c-16 0 -24 -14 -27 -32c-3 -16 -10 -24 -26 -24h-15c-17 0 -26 9 -25 26c6 56 30 100 92 100zM350 553c104 0 171 -76 171 -207
v-321c0 -16 -9 -25 -25 -25h-65c-16 0 -25 9 -25 25v291c0 83 -37 125 -96 125c-73 0 -128 -59 -121 -185l2 -231c0 -16 -9 -25 -25 -25h-73c-16 0 -25 9 -25 25l4 487c0 16 9 25 25 25h65c16 0 25 -9 25 -25l1 -48h8c39 61 91 89 154 89z" />
    <glyph glyph-name="o" unicode="o" horiz-adv-x="599" 
d="M304 553c147 0 257 -112 257 -278c0 -168 -115 -291 -266 -291c-147 0 -257 117 -257 282c0 169 114 287 266 287zM291 450c-79 0 -136 -65 -136 -173c0 -115 68 -188 152 -188c79 0 136 67 136 173c0 117 -67 188 -152 188z" />
    <glyph glyph-name="oacute" unicode="&#xf3;" horiz-adv-x="599" 
d="M418 732l-92 -114c-9 -11 -18 -15 -31 -15h-11c-20 0 -27 12 -18 30l61 112c7 13 16 18 30 18h46c21 0 28 -14 15 -31zM304 553c147 0 257 -112 257 -278c0 -168 -115 -291 -266 -291c-147 0 -257 117 -257 282c0 169 114 287 266 287zM291 450c-79 0 -136 -65 -136 -173
c0 -115 68 -188 152 -188c79 0 136 67 136 173c0 117 -67 188 -152 188z" />
    <glyph glyph-name="ocaron" unicode="&#x1d2;" horiz-adv-x="599" 
d="M308 602h-20c-14 0 -23 4 -31 14l-98 115c-14 17 -7 31 14 31h35c13 0 22 -5 30 -16l57 -82h10l52 82c8 11 17 16 31 16h34c21 0 28 -14 14 -31l-97 -115c-8 -10 -17 -14 -31 -14zM304 553c147 0 257 -112 257 -278c0 -168 -115 -291 -266 -291c-147 0 -257 117 -257 282
c0 169 114 287 266 287zM307 89c79 0 136 67 136 173c0 117 -67 188 -152 188c-79 0 -136 -65 -136 -173c0 -115 68 -188 152 -188z" />
    <glyph glyph-name="ocircumflex" unicode="&#xf4;" horiz-adv-x="599" 
d="M293 701l-52 -82c-8 -11 -17 -16 -31 -16h-34c-21 0 -28 14 -14 31l97 115c8 10 17 14 31 14h20c14 0 23 -4 31 -14l98 -115c14 -17 7 -31 -14 -31h-35c-13 0 -22 5 -30 16l-57 82h-10zM304 553c147 0 257 -112 257 -278c0 -168 -115 -291 -266 -291
c-147 0 -257 117 -257 282c0 169 114 287 266 287zM307 89c79 0 136 67 136 173c0 117 -67 188 -152 188c-79 0 -136 -65 -136 -173c0 -115 68 -188 152 -188z" />
    <glyph glyph-name="odieresis" unicode="&#xf6;" horiz-adv-x="599" 
d="M267 728v-65c0 -16 -9 -25 -25 -25h-42c-16 0 -25 9 -25 25v65c0 16 9 25 25 25h42c16 0 25 -9 25 -25zM427 728v-65c0 -16 -9 -25 -25 -25h-42c-16 0 -25 9 -25 25v65c0 16 9 25 25 25h42c16 0 25 -9 25 -25zM304 553c147 0 257 -112 257 -278
c0 -168 -115 -291 -266 -291c-147 0 -257 117 -257 282c0 169 114 287 266 287zM291 450c-79 0 -136 -65 -136 -173c0 -115 68 -188 152 -188c79 0 136 67 136 173c0 117 -67 188 -152 188z" />
    <glyph glyph-name="ograve" unicode="&#xf2;" horiz-adv-x="599" 
d="M208 763h46c14 0 23 -5 30 -18l61 -112c9 -18 2 -30 -18 -30h-11c-13 0 -22 4 -31 15l-92 114c-13 17 -6 31 15 31zM304 553c147 0 257 -112 257 -278c0 -168 -115 -291 -266 -291c-147 0 -257 117 -257 282c0 169 114 287 266 287zM291 450c-79 0 -136 -65 -136 -173
c0 -115 68 -188 152 -188c79 0 136 67 136 173c0 117 -67 188 -152 188z" />
    <glyph glyph-name="ohungarumlaut" unicode="&#x151;" horiz-adv-x="599" 
d="M361 734l-92 -114c-9 -11 -18 -15 -31 -15h-11c-20 0 -27 12 -18 30l61 112c7 13 16 18 30 18h46c21 0 28 -14 15 -31zM527 734l-92 -114c-9 -11 -18 -15 -31 -15h-11c-20 0 -27 12 -18 30l61 112c7 13 16 18 30 18h46c21 0 28 -14 15 -31zM304 553
c147 0 257 -112 257 -278c0 -168 -115 -291 -266 -291c-147 0 -257 117 -257 282c0 169 114 287 266 287zM291 450c-79 0 -136 -65 -136 -173c0 -115 68 -188 152 -188c79 0 136 67 136 173c0 117 -67 188 -152 188z" />
    <glyph glyph-name="omacron" unicode="&#x14d;" horiz-adv-x="599" 
d="M427 693v-21c0 -16 -9 -25 -25 -25h-205c-16 0 -25 9 -25 25v21c0 16 9 25 25 25h205c16 0 25 -9 25 -25zM304 553c147 0 257 -112 257 -278c0 -168 -115 -291 -266 -291c-147 0 -257 117 -257 282c0 169 114 287 266 287zM291 450c-79 0 -136 -65 -136 -173
c0 -115 68 -188 152 -188c79 0 136 67 136 173c0 117 -67 188 -152 188z" />
    <glyph glyph-name="oslash" unicode="&#xf8;" horiz-adv-x="672" 
d="M608 506l-60 -68c28 -44 44 -100 44 -163c0 -168 -115 -291 -266 -291c-53 0 -101 15 -141 42l-11 -12c-8 -10 -17 -14 -30 -14h-65c-22 0 -28 14 -14 31l54 61c-32 46 -51 106 -51 174c0 169 114 287 266 287c57 0 109 -17 151 -47l15 17c8 10 17 14 30 14h64
c22 0 28 -14 14 -31zM185 277c0 -34 6 -65 17 -91l207 234c-25 20 -55 30 -87 30c-80 0 -137 -65 -137 -173zM474 262c0 29 -4 56 -12 79l-201 -229c23 -15 49 -23 76 -23c80 0 137 67 137 173z" />
    <glyph glyph-name="otilde" unicode="&#xf5;" horiz-adv-x="599" 
d="M250 744c69 0 89 -73 119 -73c14 0 20 14 23 31c2 16 9 25 25 25h15c17 0 26 -9 25 -26c-6 -50 -29 -100 -88 -100c-63 0 -78 73 -118 73c-16 0 -24 -14 -27 -32c-3 -16 -10 -24 -26 -24h-15c-17 0 -26 9 -25 26c6 56 30 100 92 100zM304 553c147 0 257 -112 257 -278
c0 -168 -115 -291 -266 -291c-147 0 -257 117 -257 282c0 169 114 287 266 287zM291 450c-79 0 -136 -65 -136 -173c0 -115 68 -188 152 -188c79 0 136 67 136 173c0 117 -67 188 -152 188z" />
    <glyph glyph-name="oe" unicode="&#x153;" horiz-adv-x="980" 
d="M707 554c164 0 241 -128 235 -288c-1 -16 -10 -24 -26 -24h-356c6 -109 68 -154 148 -154c47 0 78 15 104 54c7 12 16 17 30 17h61c19 0 27 -12 20 -29c-42 -95 -126 -146 -225 -146c-84 0 -155 36 -200 98c-48 -61 -120 -98 -203 -98c-147 0 -257 117 -257 282
c0 169 114 287 266 287c82 0 153 -35 199 -95c47 60 117 96 204 96zM307 89c79 0 136 67 136 173c0 117 -67 188 -152 188c-79 0 -136 -65 -136 -173c0 -115 68 -188 152 -188zM567 334h254c-1 61 -43 116 -124 116c-82 0 -116 -57 -130 -116z" />
    <glyph glyph-name="p" unicode="p" horiz-adv-x="617" 
d="M358 553c131 0 221 -118 221 -279c0 -172 -103 -290 -255 -290c-55 0 -94 15 -129 49h-5l1 -228c0 -16 -9 -25 -25 -25h-73c-16 0 -25 9 -25 25l4 707c0 16 9 25 25 25h65c16 0 25 -9 25 -25l1 -48h7c38 61 100 89 163 89zM325 450c-83 0 -142 -72 -144 -192v-5
c5 -107 62 -165 145 -165c89 0 135 66 135 177c0 119 -57 185 -136 185z" />
    <glyph glyph-name="q" unicode="q" horiz-adv-x="616" 
d="M258 553c64 0 125 -27 162 -89h8l1 48c0 16 9 25 25 25h65c16 0 25 -9 25 -25l4 -707c0 -16 -9 -25 -25 -25h-74c-16 0 -25 9 -25 25l3 228h-7c-36 -34 -76 -49 -131 -49c-152 0 -251 118 -251 289c0 164 90 280 220 280zM291 450c-79 0 -136 -63 -136 -185
c0 -111 47 -177 135 -177c82 0 140 58 144 165v5c-1 122 -60 192 -143 192z" />
    <glyph glyph-name="r" unicode="r" horiz-adv-x="384" 
d="M361 527v-74c0 -16 -9 -25 -25 -26c-89 -4 -153 -33 -147 -168l2 -234c0 -16 -9 -25 -25 -25h-73c-16 0 -25 9 -25 25l4 487c0 16 9 25 25 25h65c16 0 25 -9 25 -25l1 -46h8c35 47 85 78 139 85c17 2 26 -7 26 -24z" />
    <glyph glyph-name="racute" unicode="&#x155;" horiz-adv-x="384" 
d="M315 732l-92 -114c-9 -11 -18 -15 -31 -15h-11c-20 0 -27 12 -18 30l61 112c7 13 16 18 30 18h46c21 0 28 -14 15 -31zM361 527v-74c0 -16 -9 -25 -25 -26c-89 -4 -153 -33 -147 -168l2 -234c0 -16 -9 -25 -25 -25h-73c-16 0 -25 9 -25 25l4 487c0 16 9 25 25 25h65
c16 0 25 -9 25 -25l1 -46h8c35 47 85 78 139 85c17 2 26 -7 26 -24z" />
    <glyph glyph-name="rcaron" unicode="&#x159;" horiz-adv-x="384" 
d="M206 602h-20c-14 0 -23 4 -31 14l-98 115c-14 17 -7 31 14 31h35c13 0 22 -5 30 -16l57 -82h10l52 82c8 11 17 16 31 16h34c21 0 28 -14 14 -31l-97 -115c-8 -10 -17 -14 -31 -14zM188 466h8c35 47 85 78 139 85c17 2 26 -7 26 -24v-74c0 -16 -9 -25 -25 -26
c-89 -4 -153 -33 -147 -168l2 -234c0 -16 -9 -25 -25 -25h-73c-16 0 -25 9 -25 25l4 487c0 16 9 25 25 25h65c16 0 25 -9 25 -25z" />
    <glyph glyph-name="s" unicode="s" horiz-adv-x="540" 
d="M270 553c124 0 197 -75 217 -140c6 -17 -4 -27 -22 -27h-64c-13 0 -22 5 -30 16c-25 32 -60 48 -107 48c-54 0 -87 -26 -87 -59c0 -29 32 -43 107 -65l42 -12c129 -36 175 -87 175 -158c0 -104 -87 -172 -218 -172c-134 0 -207 71 -236 150c-6 17 3 28 21 28h72
c14 0 22 -6 30 -18c27 -42 66 -56 119 -56c58 0 92 16 92 57c0 31 -27 52 -109 75l-40 11c-101 28 -171 68 -171 153c0 98 91 169 209 169z" />
    <glyph glyph-name="sacute" unicode="&#x15b;" horiz-adv-x="540" 
d="M389 732l-92 -114c-9 -11 -18 -15 -31 -15h-11c-20 0 -27 12 -18 30l61 112c7 13 16 18 30 18h46c21 0 28 -14 15 -31zM270 553c124 0 197 -75 217 -140c6 -17 -4 -27 -22 -27h-64c-13 0 -22 5 -30 16c-25 32 -60 48 -107 48c-54 0 -87 -26 -87 -59c0 -29 32 -43 107 -65
l42 -12c129 -36 175 -87 175 -158c0 -104 -87 -172 -218 -172c-134 0 -207 71 -236 150c-6 17 3 28 21 28h72c14 0 22 -6 30 -18c27 -42 66 -56 119 -56c58 0 92 16 92 57c0 31 -27 52 -109 75l-40 11c-101 28 -171 68 -171 153c0 98 91 169 209 169z" />
    <glyph glyph-name="scaron" unicode="&#x161;" horiz-adv-x="540" 
d="M280 602h-20c-14 0 -23 4 -31 14l-98 115c-14 17 -7 31 14 31h35c13 0 22 -5 30 -16l57 -82h10l52 82c8 11 17 16 31 16h34c21 0 28 -14 14 -31l-97 -115c-8 -10 -17 -14 -31 -14zM284 326l42 -12c129 -36 175 -87 175 -158c0 -104 -87 -172 -218 -172
c-134 0 -207 71 -236 150c-6 17 3 28 21 28h72c14 0 22 -6 30 -18c27 -42 66 -56 119 -56c58 0 92 16 92 57c0 31 -27 52 -109 75l-40 11c-101 28 -171 68 -171 153c0 98 91 169 209 169c124 0 197 -75 217 -140c6 -17 -4 -27 -22 -27h-64c-13 0 -22 5 -30 16
c-25 32 -60 48 -107 48c-54 0 -87 -26 -87 -59c0 -29 32 -43 107 -65z" />
    <glyph glyph-name="scedilla" unicode="&#x15f;" horiz-adv-x="540" 
d="M501 156c0 -99 -79 -165 -200 -172l-15 -42c41 -8 71 -35 71 -84c0 -53 -36 -94 -106 -94c-20 0 -41 3 -61 12c-14 6 -18 18 -13 33l2 7c5 16 16 20 32 15c15 -5 29 -8 40 -8c23 0 39 13 39 32c0 18 -12 38 -59 38c-16 0 -23 11 -18 28l20 66c-103 16 -161 78 -186 147
c-6 17 3 28 21 28h72c14 0 22 -6 30 -18c27 -42 66 -56 119 -56c58 0 92 16 92 57c0 31 -27 52 -109 75l-40 11c-101 28 -171 68 -171 153c0 98 91 169 209 169c124 0 197 -75 217 -140c6 -17 -4 -27 -22 -27h-64c-13 0 -22 5 -30 16c-25 32 -60 48 -107 48
c-54 0 -87 -26 -87 -59c0 -29 32 -43 107 -65l42 -12c129 -36 175 -87 175 -158z" />
    <glyph glyph-name="germandbls" unicode="&#xdf;" horiz-adv-x="636" 
d="M457 378c94 -32 134 -98 134 -177c0 -108 -75 -205 -275 -213c-17 0 -26 9 -26 25v58c0 16 9 25 26 26c112 4 162 43 162 110c0 68 -43 108 -153 113c-17 1 -26 10 -26 26v49c0 16 9 24 25 25c89 8 124 56 124 114c0 69 -52 113 -121 113c-82 0 -140 -59 -139 -199
l4 -423c0 -16 -9 -25 -25 -25h-78c-16 0 -25 9 -25 25l5 423c2 172 88 302 260 302c152 0 230 -100 230 -204c0 -64 -30 -131 -102 -168z" />
    <glyph glyph-name="t" unicode="t" horiz-adv-x="367" 
d="M344 512v-48c0 -16 -9 -25 -25 -25h-81l2 -414c0 -16 -9 -25 -25 -25h-73c-16 0 -25 9 -25 25l2 414h-67c-16 0 -25 9 -25 25v48c0 16 9 25 25 25h68l1 179c0 16 9 25 25 25h65c16 0 25 -9 25 -25l1 -179h82c16 0 25 -9 25 -25z" />
    <glyph glyph-name="tcaron" unicode="&#x165;" horiz-adv-x="367" 
d="M383 752h25c18 0 26 -10 23 -27l-22 -121c-3 -15 -12 -23 -27 -23h-14c-16 0 -25 9 -23 26l12 121c1 16 10 24 26 24zM237 537h82c16 0 25 -9 25 -25v-48c0 -16 -9 -25 -25 -25h-81l2 -414c0 -16 -9 -25 -25 -25h-73c-16 0 -25 9 -25 25l2 414h-67c-16 0 -25 9 -25 25v48
c0 16 9 25 25 25h68l1 179c0 16 9 25 25 25h65c16 0 25 -9 25 -25z" />
    <glyph glyph-name="tcedilla" unicode="&#x163;" horiz-adv-x="367" 
d="M344 512v-48c0 -16 -9 -25 -25 -25h-81l2 -414c0 -16 -9 -25 -25 -25h-5l-21 -58c41 -8 71 -35 71 -84c0 -53 -36 -94 -106 -94c-20 0 -41 3 -61 12c-14 6 -18 18 -13 33l2 7c5 16 16 20 32 15c15 -5 29 -8 40 -8c23 0 39 13 39 32c0 18 -12 38 -59 38
c-16 0 -23 11 -18 28l24 79c-15 0 -23 9 -23 25l2 414h-67c-16 0 -25 9 -25 25v48c0 16 9 25 25 25h68l1 179c0 16 9 25 25 25h65c16 0 25 -9 25 -25l1 -179h82c16 0 25 -9 25 -25z" />
    <glyph glyph-name="u" unicode="u" horiz-adv-x="591" 
d="M518 512l5 -487c0 -16 -9 -25 -25 -25h-74c-16 0 -25 9 -24 25l1 48h-8c-37 -61 -90 -89 -152 -89c-104 0 -174 75 -173 219l2 309c0 16 9 25 25 25h65c16 0 25 -9 25 -25l2 -280c1 -95 34 -136 94 -136c72 0 125 58 120 185l3 231c0 16 9 25 25 25h64c16 0 25 -9 25 -25
z" />
    <glyph glyph-name="uacute" unicode="&#xfa;" horiz-adv-x="591" 
d="M413 732l-92 -114c-9 -11 -18 -15 -31 -15h-11c-20 0 -27 12 -18 30l61 112c7 13 16 18 30 18h46c21 0 28 -14 15 -31zM518 512l5 -487c0 -16 -9 -25 -25 -25h-74c-16 0 -25 9 -24 25l1 48h-8c-37 -61 -90 -89 -152 -89c-104 0 -174 75 -173 219l2 309c0 16 9 25 25 25
h65c16 0 25 -9 25 -25l2 -280c1 -95 34 -136 94 -136c72 0 125 58 120 185l3 231c0 16 9 25 25 25h64c16 0 25 -9 25 -25z" />
    <glyph glyph-name="ucaron" unicode="&#x1d4;" horiz-adv-x="591" 
d="M303 602h-20c-14 0 -23 4 -31 14l-98 115c-14 17 -7 31 14 31h35c13 0 22 -5 30 -16l57 -82h10l52 82c8 11 17 16 31 16h34c21 0 28 -14 14 -31l-97 -115c-8 -10 -17 -14 -31 -14zM498 0h-74c-16 0 -25 9 -24 25l1 48h-8c-37 -61 -90 -89 -152 -89
c-104 0 -174 75 -173 219l2 309c0 16 9 25 25 25h65c16 0 25 -9 25 -25l2 -280c1 -95 34 -136 94 -136c72 0 125 58 120 185l3 231c0 16 9 25 25 25h64c16 0 25 -9 25 -25l5 -487c0 -16 -9 -25 -25 -25z" />
    <glyph glyph-name="ucircumflex" unicode="&#xfb;" horiz-adv-x="591" 
d="M287 701l-52 -82c-8 -11 -17 -16 -31 -16h-34c-21 0 -28 14 -14 31l97 115c8 10 17 14 31 14h20c14 0 23 -4 31 -14l98 -115c14 -17 7 -31 -14 -31h-35c-13 0 -22 5 -30 16l-57 82h-10zM498 0h-74c-16 0 -25 9 -24 25l1 48h-8c-37 -61 -90 -89 -152 -89
c-104 0 -174 75 -173 219l2 309c0 16 9 25 25 25h65c16 0 25 -9 25 -25l2 -280c1 -95 34 -136 94 -136c72 0 125 58 120 185l3 231c0 16 9 25 25 25h64c16 0 25 -9 25 -25l5 -487c0 -16 -9 -25 -25 -25z" />
    <glyph glyph-name="udieresis" unicode="&#xfc;" horiz-adv-x="591" 
d="M262 728v-65c0 -16 -9 -25 -25 -25h-42c-16 0 -25 9 -25 25v65c0 16 9 25 25 25h42c16 0 25 -9 25 -25zM422 728v-65c0 -16 -9 -25 -25 -25h-42c-16 0 -25 9 -25 25v65c0 16 9 25 25 25h42c16 0 25 -9 25 -25zM518 512l5 -487c0 -16 -9 -25 -25 -25h-74
c-16 0 -25 9 -24 25l1 48h-8c-37 -61 -90 -89 -152 -89c-104 0 -174 75 -173 219l2 309c0 16 9 25 25 25h65c16 0 25 -9 25 -25l2 -280c1 -95 34 -136 94 -136c72 0 125 58 120 185l3 231c0 16 9 25 25 25h64c16 0 25 -9 25 -25z" />
    <glyph glyph-name="ugrave" unicode="&#xf9;" horiz-adv-x="591" 
d="M203 763h46c14 0 23 -5 30 -18l61 -112c9 -18 2 -30 -18 -30h-11c-13 0 -22 4 -31 15l-92 114c-13 17 -6 31 15 31zM518 512l5 -487c0 -16 -9 -25 -25 -25h-74c-16 0 -25 9 -24 25l1 48h-8c-37 -61 -90 -89 -152 -89c-104 0 -174 75 -173 219l2 309c0 16 9 25 25 25h65
c16 0 25 -9 25 -25l2 -280c1 -95 34 -136 94 -136c72 0 125 58 120 185l3 231c0 16 9 25 25 25h64c16 0 25 -9 25 -25z" />
    <glyph glyph-name="uhungarumlaut" unicode="&#x171;" horiz-adv-x="591" 
d="M355 734l-92 -114c-9 -11 -18 -15 -31 -15h-11c-20 0 -27 12 -18 30l61 112c7 13 16 18 30 18h46c21 0 28 -14 15 -31zM521 734l-92 -114c-9 -11 -18 -15 -31 -15h-11c-20 0 -27 12 -18 30l61 112c7 13 16 18 30 18h46c21 0 28 -14 15 -31zM518 512l5 -487
c0 -16 -9 -25 -25 -25h-74c-16 0 -25 9 -24 25l1 48h-8c-37 -61 -90 -89 -152 -89c-104 0 -174 75 -173 219l2 309c0 16 9 25 25 25h65c16 0 25 -9 25 -25l2 -280c1 -95 34 -136 94 -136c72 0 125 58 120 185l3 231c0 16 9 25 25 25h64c16 0 25 -9 25 -25z" />
    <glyph glyph-name="umacron" unicode="&#x16b;" horiz-adv-x="591" 
d="M422 693v-21c0 -16 -9 -25 -25 -25h-205c-16 0 -25 9 -25 25v21c0 16 9 25 25 25h205c16 0 25 -9 25 -25zM518 512l5 -487c0 -16 -9 -25 -25 -25h-74c-16 0 -25 9 -24 25l1 48h-8c-37 -61 -90 -89 -152 -89c-104 0 -174 75 -173 219l2 309c0 16 9 25 25 25h65
c16 0 25 -9 25 -25l2 -280c1 -95 34 -136 94 -136c72 0 125 58 120 185l3 231c0 16 9 25 25 25h64c16 0 25 -9 25 -25z" />
    <glyph glyph-name="uring" unicode="&#x16f;" horiz-adv-x="591" 
d="M294 776c56 0 101 -40 101 -101s-45 -102 -101 -102s-102 41 -102 102s46 101 102 101zM294 723c-27 0 -49 -18 -49 -48c0 -29 22 -49 49 -49s48 20 48 49c0 30 -21 48 -48 48zM518 512l5 -487c0 -16 -9 -25 -25 -25h-74c-16 0 -25 9 -24 25l1 48h-8
c-37 -61 -90 -89 -152 -89c-104 0 -174 75 -173 219l2 309c0 16 9 25 25 25h65c16 0 25 -9 25 -25l2 -280c1 -95 34 -136 94 -136c72 0 125 58 120 185l3 231c0 16 9 25 25 25h64c16 0 25 -9 25 -25z" />
    <glyph glyph-name="v" unicode="v" horiz-adv-x="549" 
d="M521 509l-163 -489c-5 -13 -14 -20 -29 -20h-109c-15 0 -24 7 -29 20l-163 489c-5 17 3 28 21 28h62c15 0 24 -7 29 -20l129 -390h12l128 390c5 13 14 20 29 20h62c18 0 26 -11 21 -28z" />
    <glyph glyph-name="w" unicode="w" horiz-adv-x="787" 
d="M678 537h60c18 0 26 -11 22 -28l-129 -488c-4 -14 -13 -21 -28 -21h-104c-15 0 -24 7 -28 21l-75 293h-7l-74 -292c-3 -15 -12 -22 -27 -22h-106c-15 0 -24 7 -28 21l-128 488c-4 17 4 28 22 28h63c15 0 24 -7 27 -22l94 -389h13l96 389c3 15 12 22 27 22h55
c15 0 24 -7 27 -22l94 -389h12l95 389c3 15 12 22 27 22z" />
    <glyph glyph-name="wacute" unicode="&#x1e83;" horiz-adv-x="787" 
d="M512 732l-92 -114c-9 -11 -18 -15 -31 -15h-11c-20 0 -27 12 -18 30l61 112c7 13 16 18 30 18h46c21 0 28 -14 15 -31zM678 537h60c18 0 26 -11 22 -28l-129 -488c-4 -14 -13 -21 -28 -21h-104c-15 0 -24 7 -28 21l-75 293h-7l-74 -292c-3 -15 -12 -22 -27 -22h-106
c-15 0 -24 7 -28 21l-128 488c-4 17 4 28 22 28h63c15 0 24 -7 27 -22l94 -389h13l96 389c3 15 12 22 27 22h55c15 0 24 -7 27 -22l94 -389h12l95 389c3 15 12 22 27 22z" />
    <glyph glyph-name="wcircumflex" unicode="&#x175;" horiz-adv-x="787" 
d="M387 701l-52 -82c-8 -11 -17 -16 -31 -16h-34c-21 0 -28 14 -14 31l97 115c8 10 17 14 31 14h20c14 0 23 -4 31 -14l98 -115c14 -17 7 -31 -14 -31h-35c-13 0 -22 5 -30 16l-57 82h-10zM678 537h60c18 0 26 -11 22 -28l-129 -488c-4 -14 -13 -21 -28 -21h-104
c-15 0 -24 7 -28 21l-75 293h-7l-74 -292c-3 -15 -12 -22 -27 -22h-106c-15 0 -24 7 -28 21l-128 488c-4 17 4 28 22 28h63c15 0 24 -7 27 -22l94 -389h13l96 389c3 15 12 22 27 22h55c15 0 24 -7 27 -22l94 -389h12l95 389c3 15 12 22 27 22z" />
    <glyph glyph-name="wdieresis" unicode="&#x1e85;" horiz-adv-x="787" 
d="M361 728v-65c0 -16 -9 -25 -25 -25h-42c-16 0 -25 9 -25 25v65c0 16 9 25 25 25h42c16 0 25 -9 25 -25zM521 728v-65c0 -16 -9 -25 -25 -25h-42c-16 0 -25 9 -25 25v65c0 16 9 25 25 25h42c16 0 25 -9 25 -25zM678 537h60c18 0 26 -11 22 -28l-129 -488
c-4 -14 -13 -21 -28 -21h-104c-15 0 -24 7 -28 21l-75 293h-7l-74 -292c-3 -15 -12 -22 -27 -22h-106c-15 0 -24 7 -28 21l-128 488c-4 17 4 28 22 28h63c15 0 24 -7 27 -22l94 -389h13l96 389c3 15 12 22 27 22h55c15 0 24 -7 27 -22l94 -389h12l95 389c3 15 12 22 27 22z
" />
    <glyph glyph-name="wgrave" unicode="&#x1e81;" horiz-adv-x="787" 
d="M421 603h-11c-13 0 -22 4 -31 15l-92 114c-13 17 -6 31 15 31h46c14 0 23 -5 30 -18l61 -112c9 -18 2 -30 -18 -30zM678 537h60c18 0 26 -11 22 -28l-129 -488c-4 -14 -13 -21 -28 -21h-104c-15 0 -24 7 -28 21l-75 293h-7l-74 -292c-3 -15 -12 -22 -27 -22h-106
c-15 0 -24 7 -28 21l-128 488c-4 17 4 28 22 28h63c15 0 24 -7 27 -22l94 -389h13l96 389c3 15 12 22 27 22h55c15 0 24 -7 27 -22l94 -389h12l95 389c3 15 12 22 27 22z" />
    <glyph glyph-name="x" unicode="x" horiz-adv-x="573" 
d="M361 263l158 -233c12 -17 5 -30 -16 -30h-78c-13 0 -22 5 -30 16l-114 173l-115 -173c-8 -11 -17 -16 -30 -16h-76c-21 0 -28 13 -16 30l177 250l-151 227c-11 17 -4 30 16 30h70c13 0 22 -5 30 -16l115 -169l117 169c8 11 17 16 30 16h66c21 0 28 -13 16 -30z" />
    <glyph glyph-name="y" unicode="y" horiz-adv-x="555" 
d="M444 537h62c18 0 26 -11 20 -29l-243 -708c-5 -14 -14 -20 -28 -20h-74c-19 0 -27 11 -21 29l59 161l-190 538c-6 18 2 29 20 29h62c15 0 24 -7 29 -20l129 -385h8l139 385c5 14 14 20 28 20z" />
    <glyph glyph-name="yacute" unicode="&#xfd;" horiz-adv-x="555" 
d="M399 732l-92 -114c-9 -11 -18 -15 -31 -15h-11c-20 0 -27 12 -18 30l61 112c7 13 16 18 30 18h46c21 0 28 -14 15 -31zM444 537h62c18 0 26 -11 20 -29l-243 -708c-5 -14 -14 -20 -28 -20h-74c-19 0 -27 11 -21 29l59 161l-190 538c-6 18 2 29 20 29h62
c15 0 24 -7 29 -20l129 -385h8l139 385c5 14 14 20 28 20z" />
    <glyph glyph-name="ycircumflex" unicode="&#x177;" horiz-adv-x="555" 
d="M273 701l-52 -82c-8 -11 -17 -16 -31 -16h-34c-21 0 -28 14 -14 31l97 115c8 10 17 14 31 14h20c14 0 23 -4 31 -14l98 -115c14 -17 7 -31 -14 -31h-35c-13 0 -22 5 -30 16l-57 82h-10zM444 537h62c18 0 26 -11 20 -29l-243 -708c-5 -14 -14 -20 -28 -20h-74
c-19 0 -27 11 -21 29l59 161l-190 538c-6 18 2 29 20 29h62c15 0 24 -7 29 -20l129 -385h8l139 385c5 14 14 20 28 20z" />
    <glyph glyph-name="ydieresis" unicode="&#xff;" horiz-adv-x="555" 
d="M248 728v-65c0 -16 -9 -25 -25 -25h-42c-16 0 -25 9 -25 25v65c0 16 9 25 25 25h42c16 0 25 -9 25 -25zM408 728v-65c0 -16 -9 -25 -25 -25h-42c-16 0 -25 9 -25 25v65c0 16 9 25 25 25h42c16 0 25 -9 25 -25zM444 537h62c18 0 26 -11 20 -29l-243 -708
c-5 -14 -14 -20 -28 -20h-74c-19 0 -27 11 -21 29l59 161l-190 538c-6 18 2 29 20 29h62c15 0 24 -7 29 -20l129 -385h8l139 385c5 14 14 20 28 20z" />
    <glyph glyph-name="ygrave" unicode="&#x1ef3;" horiz-adv-x="555" 
d="M308 603h-11c-13 0 -22 4 -31 15l-92 114c-13 17 -6 31 15 31h46c14 0 23 -5 30 -18l61 -112c9 -18 2 -30 -18 -30zM444 537h62c18 0 26 -11 20 -29l-243 -708c-5 -14 -14 -20 -28 -20h-74c-19 0 -27 11 -21 29l59 161l-190 538c-6 18 2 29 20 29h62c15 0 24 -7 29 -20
l129 -385h8l139 385c5 14 14 20 28 20z" />
    <glyph glyph-name="z" unicode="z" horiz-adv-x="488" 
d="M444 512v-57s-6 -15 -13 -24l-254 -327v-6h248c16 0 25 -9 25 -25v-48c0 -16 -9 -25 -25 -25h-362c-16 0 -25 9 -25 25v57s5 14 12 22l263 328v7h-241c-16 0 -25 9 -25 25v48c0 16 9 25 25 25h347c16 0 25 -9 25 -25z" />
    <glyph glyph-name="zacute" unicode="&#x17a;" horiz-adv-x="488" 
d="M354 732l-92 -114c-9 -11 -18 -15 -31 -15h-11c-20 0 -27 12 -18 30l61 112c7 13 16 18 30 18h46c21 0 28 -14 15 -31zM444 512v-57s-6 -15 -13 -24l-254 -327v-6h248c16 0 25 -9 25 -25v-48c0 -16 -9 -25 -25 -25h-362c-16 0 -25 9 -25 25v57s5 14 12 22l263 328v7h-241
c-16 0 -25 9 -25 25v48c0 16 9 25 25 25h347c16 0 25 -9 25 -25z" />
    <glyph glyph-name="zcaron" unicode="&#x17e;" horiz-adv-x="488" 
d="M244 602h-20c-14 0 -23 4 -31 14l-98 115c-14 17 -7 31 14 31h35c13 0 22 -5 30 -16l57 -82h10l52 82c8 11 17 16 31 16h34c21 0 28 -14 14 -31l-97 -115c-8 -10 -17 -14 -31 -14zM177 98h248c16 0 25 -9 25 -25v-48c0 -16 -9 -25 -25 -25h-362c-16 0 -25 9 -25 25v57
s5 14 12 22l263 328v7h-241c-16 0 -25 9 -25 25v48c0 16 9 25 25 25h347c16 0 25 -9 25 -25v-57s-6 -15 -13 -24l-254 -327v-6z" />
    <glyph glyph-name="zdotaccent" unicode="&#x17c;" horiz-adv-x="488" 
d="M293 727v-65c0 -16 -9 -25 -25 -25h-65c-16 0 -25 9 -25 25v65c0 16 9 25 25 25h65c16 0 25 -9 25 -25zM444 512v-57s-6 -15 -13 -24l-254 -327v-6h248c16 0 25 -9 25 -25v-48c0 -16 -9 -25 -25 -25h-362c-16 0 -25 9 -25 25v57s5 14 12 22l263 328v7h-241
c-16 0 -25 9 -25 25v48c0 16 9 25 25 25h347c16 0 25 -9 25 -25z" />
    <glyph glyph-name="zero" unicode="0" horiz-adv-x="618" 
d="M313 743c160 0 260 -131 260 -367c0 -243 -104 -386 -268 -386c-160 0 -261 137 -261 375c0 241 105 378 269 378zM303 640c-95 0 -140 -85 -140 -260c0 -194 57 -287 153 -287c94 0 140 89 140 264c0 194 -58 283 -153 283z" />
    <glyph glyph-name="one" unicode="1" horiz-adv-x="499" 
d="M409 0h-77c-16 0 -25 9 -25 25l4 613h-8l-170 -146c-13 -10 -25 -10 -36 2l-36 40c-11 12 -10 25 2 35l182 153c9 8 18 11 31 11h129c16 0 25 -9 25 -25l4 -683c0 -16 -9 -25 -25 -25z" />
    <glyph glyph-name="two" unicode="2" horiz-adv-x="612" 
d="M250 108h293c16 0 25 -9 25 -25v-58c0 -16 -9 -25 -25 -25h-435c-16 0 -25 9 -25 25v51c0 10 0 20 12 33l191 197c90 93 149 167 149 237c0 59 -45 104 -120 104c-60 0 -111 -30 -135 -90c-6 -14 -14 -21 -29 -21h-60c-17 0 -27 10 -22 27c27 95 110 187 253 187
c150 0 225 -102 225 -204c0 -101 -79 -194 -181 -307l-116 -126v-5z" />
    <glyph glyph-name="three" unicode="3" horiz-adv-x="613" 
d="M438 390c92 -33 130 -99 130 -179c0 -116 -81 -223 -252 -223c-160 0 -251 94 -269 188c-3 16 7 26 24 26h69c15 0 22 -7 27 -22c19 -59 74 -88 142 -88c90 0 146 46 146 126c0 78 -49 118 -191 118h-22c-16 0 -25 9 -25 25v48c0 16 9 25 25 25h22c128 0 171 43 171 103
c0 65 -49 110 -125 110c-62 0 -112 -30 -136 -90c-6 -14 -14 -21 -29 -21h-60c-17 0 -27 10 -22 27c25 93 107 187 254 187c151 0 229 -101 229 -202c0 -64 -31 -125 -108 -158z" />
    <glyph glyph-name="four" unicode="4" horiz-adv-x="670" 
d="M626 221v-52c0 -16 -9 -25 -25 -25h-96l1 -119c0 -16 -9 -25 -25 -25h-70c-16 0 -25 9 -25 25l1 119h-318c-16 0 -25 9 -25 25v53c0 28 3 39 12 53l316 439c9 13 17 19 32 19h72c16 0 25 -9 25 -25l3 -462h97c16 0 25 -9 25 -25zM387 246l2 319h-5l-225 -316v-3h228z" />
    <glyph glyph-name="five" unicode="5" horiz-adv-x="612" 
d="M539 708v-57c0 -16 -9 -25 -25 -25h-301l-17 -181h9c43 20 80 28 124 28c149 0 238 -107 238 -244c0 -125 -75 -241 -250 -241c-156 0 -253 93 -270 188c-3 17 7 26 23 26h70c15 0 23 -7 27 -22c18 -56 69 -88 146 -88c91 0 141 43 141 137c0 93 -48 140 -141 140
c-49 0 -84 -13 -114 -33c-10 -7 -19 -10 -31 -9l-63 2c-17 1 -25 10 -24 27l33 353c1 16 10 24 26 24h374c16 0 25 -9 25 -25z" />
    <glyph glyph-name="six" unicode="6" horiz-adv-x="630" 
d="M337 459c152 0 248 -104 248 -236c0 -149 -123 -239 -267 -239c-147 0 -277 94 -277 368c0 247 113 398 291 398c127 0 210 -79 234 -180c4 -17 -5 -27 -22 -27l-60 -1c-15 0 -23 7 -29 21c-22 56 -72 82 -127 82c-102 0 -160 -90 -172 -235h12c48 29 102 49 169 49z
M327 89c87 0 148 44 148 126c0 66 -39 139 -157 139c-62 0 -116 -20 -162 -52c12 -174 88 -213 171 -213z" />
    <glyph glyph-name="seven" unicode="7" horiz-adv-x="599" 
d="M69 733h460c16 0 25 -9 25 -25v-48c0 -12 -4 -25 -13 -41c-104 -181 -195 -382 -278 -599c-6 -14 -15 -20 -29 -20h-87c-19 0 -27 12 -20 29c90 214 189 410 296 588v9h-354c-16 0 -25 9 -25 25v57c0 16 9 25 25 25z" />
    <glyph glyph-name="eight" unicode="8" horiz-adv-x="622" 
d="M311 748c142 0 235 -90 235 -206c0 -70 -34 -120 -85 -152v-3c66 -29 120 -92 120 -188c0 -135 -107 -221 -270 -221c-161 0 -270 86 -270 221c0 100 61 160 113 188v4c-48 31 -77 81 -77 148c0 120 92 209 234 209zM311 649c-75 0 -123 -47 -123 -113
c0 -63 44 -113 123 -113s123 50 123 113c0 66 -49 113 -123 113zM311 336c-92 0 -153 -55 -153 -132c0 -73 56 -122 153 -122c99 0 153 49 153 122c0 77 -61 132 -153 132z" />
    <glyph glyph-name="nine" unicode="9" horiz-adv-x="648" 
d="M331 750c144 0 276 -92 276 -372c0 -251 -114 -394 -293 -394c-132 0 -218 79 -242 179c-4 17 5 27 22 28l64 1c15 1 23 -6 28 -20c22 -57 75 -82 131 -82c106 0 166 86 176 240h-13c-49 -29 -103 -49 -168 -49c-148 0 -240 99 -240 232c0 147 117 237 259 237zM331 384
c61 0 114 21 161 52c-14 171 -88 210 -168 210c-86 0 -141 -44 -141 -126c0 -66 35 -136 148 -136z" />
    <glyph glyph-name="zerosuperior" unicode="&#x2070;" horiz-adv-x="317" 
d="M161 737c65 0 112 -47 112 -135c0 -90 -49 -140 -115 -140s-114 48 -114 137s49 138 117 138zM156 670c-22 0 -38 -21 -38 -68c0 -57 24 -73 43 -73c22 0 38 20 38 69c0 56 -23 72 -43 72z" />
    <glyph glyph-name="onesuperior" unicode="&#xb9;" horiz-adv-x="292" 
d="M225 707l3 -215c0 -16 -9 -25 -25 -25h-32c-16 0 -25 9 -25 25l1 178h-4l-35 -32c-12 -11 -24 -11 -35 1l-12 13c-11 12 -10 25 2 36l37 32c9 9 18 12 31 12h69c16 0 25 -9 25 -25z" />
    <glyph glyph-name="twosuperior" unicode="&#xb2;" horiz-adv-x="334" 
d="M183 737c71 0 103 -45 103 -85c0 -26 -13 -59 -56 -93l-34 -27v-5h69c16 0 25 -9 25 -25v-10c0 -16 -9 -25 -25 -25h-163c-16 0 -25 9 -25 25v14c0 7 0 13 7 19l92 76c24 18 35 29 35 43c0 15 -11 26 -32 26c-11 0 -24 -3 -33 -12c-10 -10 -16 -17 -30 -17h-24
c-17 0 -28 6 -25 16c9 36 46 80 116 80z" />
    <glyph glyph-name="threesuperior" unicode="&#xb3;" horiz-adv-x="321" 
d="M221 603c30 -9 55 -28 55 -62c0 -43 -39 -79 -113 -79c-68 0 -103 32 -115 64c-5 16 6 26 23 26h27c14 0 19 -7 29 -18c7 -7 18 -11 36 -11c23 0 39 5 39 22s-17 27 -69 27c-12 0 -18 9 -18 25v3c0 16 6 25 18 25c51 0 61 13 61 26c0 14 -16 24 -37 24
c-10 0 -19 -2 -26 -7c-11 -9 -17 -16 -30 -16h-24c-18 0 -29 11 -21 27c14 29 46 58 109 58c73 0 101 -39 101 -74c0 -18 -8 -45 -45 -60z" />
    <glyph glyph-name="foursuperior" unicode="&#x2074;" horiz-adv-x="345" 
d="M300 535v-7c0 -16 -9 -25 -25 -25h-28v-11c0 -16 -9 -25 -25 -25h-21c-16 0 -25 9 -25 25v11h-107c-16 0 -25 9 -25 25v18c0 19 1 26 8 35l115 140c6 7 11 11 20 11h34c16 0 25 -9 25 -25l1 -147h28c16 0 25 -9 25 -25zM177 560v81h-2l-64 -79v-2h66z" />
    <glyph glyph-name="fivesuperior" unicode="&#x2075;" horiz-adv-x="317" 
d="M188 649c47 0 85 -32 85 -87c0 -56 -38 -100 -114 -100c-60 0 -95 27 -109 58c-7 16 5 27 22 27h27c13 0 20 -6 31 -15c9 -7 21 -9 33 -9c25 0 35 14 35 31c0 20 -13 33 -36 33c-9 0 -18 -1 -26 -3c-11 -2 -19 -5 -31 -5h-27c-17 0 -26 10 -24 26l11 103
c2 16 11 24 27 24h146c16 0 25 -9 25 -25v-11c0 -16 -9 -25 -25 -25h-108l-5 -37h6c16 10 36 15 57 15z" />
    <glyph glyph-name="sixsuperior" unicode="&#x2076;" horiz-adv-x="321" 
d="M185 635c56 0 92 -35 92 -82c0 -56 -54 -91 -112 -91c-67 0 -124 42 -124 134c0 84 49 141 124 141c48 0 84 -23 100 -52c8 -16 -3 -28 -21 -28h-22c-14 0 -20 6 -31 13c-7 4 -15 7 -25 7c-30 0 -46 -24 -50 -57h4c17 8 40 15 65 15zM171 522c15 0 32 5 32 26
c0 13 -7 31 -37 31c-14 0 -32 -3 -48 -11c8 -34 30 -46 53 -46z" />
    <glyph glyph-name="sevensuperior" unicode="&#x2077;" horiz-adv-x="309" 
d="M69 732h171c16 0 25 -9 25 -25v-13c0 -8 -4 -16 -9 -26c-31 -55 -63 -121 -87 -181c-6 -14 -15 -20 -29 -20h-36c-19 0 -27 12 -18 30c28 56 58 113 91 164v6l-108 -1c-16 0 -25 9 -25 25v16c0 16 9 25 25 25z" />
    <glyph glyph-name="eightsuperior" unicode="&#x2078;" horiz-adv-x="306" 
d="M153 737c61 0 102 -33 102 -75c0 -19 -8 -42 -38 -55v-3c24 -8 48 -31 48 -65c0 -44 -39 -77 -111 -77c-70 0 -113 32 -113 77c0 36 28 56 50 65v4c-32 10 -39 33 -39 52c0 44 40 77 101 77zM153 683c-21 0 -34 -10 -34 -24s11 -24 34 -24c25 0 34 11 34 24
c0 15 -13 24 -34 24zM153 572c-27 0 -40 -13 -40 -28c0 -17 13 -30 40 -30c28 0 40 13 40 30c0 15 -12 28 -40 28z" />
    <glyph glyph-name="ninesuperior" unicode="&#x2079;" horiz-adv-x="350" 
d="M185 737c66 0 123 -41 123 -134c0 -84 -49 -141 -128 -141c-51 0 -86 24 -102 52c-9 16 2 28 20 28l21 1c13 0 20 -7 31 -14c8 -5 18 -7 29 -7c35 0 51 27 55 57h-5c-16 -9 -39 -15 -65 -15c-57 0 -92 33 -92 83c0 57 54 90 113 90zM183 621c13 0 32 2 48 10
c-9 38 -34 48 -53 48s-33 -10 -33 -27c0 -13 7 -31 38 -31z" />
    <glyph glyph-name="asterisk" unicode="*" horiz-adv-x="482" 
d="M302 558l85 -37c16 -6 20 -18 12 -33l-18 -30c-8 -15 -21 -17 -34 -7l-73 55l18 -97c3 -17 -5 -27 -22 -28l-36 -1c-17 0 -25 9 -24 26l6 111l-93 -61c-14 -9 -26 -6 -34 9l-17 31c-8 15 -3 27 13 33l94 33l-84 36c-16 7 -20 19 -11 34l17 29c8 15 21 17 34 7l75 -57
l-19 101c-3 17 5 27 23 27h34c17 0 25 -9 25 -26l-7 -111l94 61c14 9 26 6 34 -9l16 -31c8 -15 4 -27 -13 -33z" />
    <glyph glyph-name="backslash" unicode="\" horiz-adv-x="531" 
d="M38 731h72c14 0 23 -6 29 -18l328 -684c8 -17 1 -29 -19 -29h-73c-14 0 -23 6 -29 18l-327 684c-8 17 -1 29 19 29z" />
    <glyph glyph-name="periodcentered" unicode="&#xb7;" horiz-adv-x="377" 
d="M254 319v-70c0 -16 -9 -25 -25 -25h-82c-16 0 -25 9 -25 25v70c0 16 9 25 25 25h82c16 0 25 -9 25 -25z" />
    <glyph glyph-name="bullet" unicode="&#x2022;" horiz-adv-x="561" 
d="M281 448c87 0 158 -70 158 -158s-71 -158 -158 -158c-88 0 -159 70 -159 158s71 158 159 158z" />
    <glyph glyph-name="colon" unicode=":" horiz-adv-x="388" 
d="M261 529v-76c0 -16 -9 -25 -25 -25h-88c-16 0 -25 9 -25 25v76c0 16 9 25 25 25h88c16 0 25 -9 25 -25zM260 112v-77c0 -16 -9 -25 -25 -25h-88c-16 0 -25 9 -25 25v77c0 16 9 25 25 25h88c16 0 25 -9 25 -25z" />
    <glyph glyph-name="comma" unicode="," horiz-adv-x="380" 
d="M258 97v-65c0 -104 -24 -162 -76 -215c-11 -11 -22 -12 -35 -5c-15 8 -17 20 -7 35c39 56 45 112 -2 143c-12 7 -18 15 -18 29v78c0 16 9 25 25 25h88c16 0 25 -9 25 -25z" />
    <glyph glyph-name="ellipsis" unicode="&#x2026;" horiz-adv-x="998" 
d="M260 123v-76c0 -16 -9 -25 -25 -25h-88c-16 0 -25 9 -25 25v76c0 16 9 25 25 25h88c16 0 25 -9 25 -25zM565 123v-76c0 -16 -9 -25 -25 -25h-88c-16 0 -25 9 -25 25v76c0 16 9 25 25 25h88c16 0 25 -9 25 -25zM871 123v-76c0 -16 -9 -25 -25 -25h-88c-16 0 -25 9 -25 25
v76c0 16 9 25 25 25h88c16 0 25 -9 25 -25z" />
    <glyph glyph-name="exclam" unicode="!" horiz-adv-x="382" 
d="M253 713l5 -457c0 -16 -9 -25 -25 -25h-74c-16 0 -25 9 -25 25l5 457c0 16 9 25 25 25h64c16 0 25 -9 25 -25zM260 102v-77c0 -16 -9 -25 -25 -25h-88c-16 0 -25 9 -25 25v77c0 16 9 25 25 25h88c16 0 25 -9 25 -25z" />
    <glyph glyph-name="exclamdown" unicode="&#xa1;" horiz-adv-x="382" 
d="M122 446v77c0 16 9 25 25 25h88c16 0 25 -9 25 -25v-77c0 -16 -9 -25 -25 -25h-88c-16 0 -25 9 -25 25zM129 -165l-5 457c0 16 9 25 25 25h74c16 0 25 -9 25 -25l-5 -457c0 -16 -9 -25 -25 -25h-64c-16 0 -25 9 -25 25z" />
    <glyph glyph-name="numbersign" unicode="#" horiz-adv-x="766" 
d="M562 446l-23 -111h107c18 0 26 -10 22 -27l-9 -44c-3 -15 -12 -22 -27 -22h-112l-45 -220c-3 -15 -13 -22 -28 -22h-48c-18 0 -26 10 -22 27l45 215h-137l-45 -220c-3 -15 -13 -22 -28 -22h-48c-18 0 -26 10 -22 27l45 215h-109c-17 0 -26 10 -22 27l9 44
c3 15 12 22 28 22h113l23 111h-108c-18 0 -26 10 -22 27l9 44c3 15 12 22 27 22h114l35 170c3 15 12 22 28 22h45c18 0 26 -10 22 -27l-33 -165h138l35 170c3 15 12 22 28 22h45c18 0 26 -10 22 -27l-33 -165h107c18 0 26 -10 22 -27l-9 -44c-3 -15 -12 -22 -27 -22h-112z
M465 446h-138l-23 -111h137z" />
    <glyph glyph-name="period" unicode="." horiz-adv-x="377" 
d="M254 96v-70c0 -16 -9 -25 -25 -25h-82c-16 0 -25 9 -25 25v70c0 16 9 25 25 25h82c16 0 25 -9 25 -25z" />
    <glyph glyph-name="question" unicode="?" horiz-adv-x="621" 
d="M325 750c156 0 235 -100 235 -214c0 -104 -63 -186 -195 -253v-49c0 -16 -9 -25 -25 -25h-76c-16 0 -25 9 -25 25v75c0 15 6 24 20 30c143 67 184 124 184 190c0 72 -49 112 -125 112c-60 0 -113 -26 -135 -84c-5 -14 -13 -21 -28 -21h-66c-18 0 -27 6 -25 17
c19 95 104 197 261 197zM368 84v-70c0 -16 -9 -25 -25 -25h-82c-16 0 -25 9 -25 25v70c0 16 9 25 25 25h82c16 0 25 -9 25 -25z" />
    <glyph glyph-name="questiondown" unicode="&#xbf;" horiz-adv-x="621" 
d="M249 453v70c0 16 9 25 25 25h82c16 0 25 -9 25 -25v-70c0 -16 -9 -25 -25 -25h-82c-16 0 -25 9 -25 25zM293 -213c-156 0 -235 100 -235 214c0 104 63 186 194 253v49c0 16 9 25 25 25h76c16 0 25 -9 25 -25v-75c0 -15 -6 -24 -20 -30c-142 -67 -183 -124 -183 -190
c0 -72 48 -112 124 -112c61 0 113 27 136 84c5 14 13 21 28 21h65c18 0 27 -6 25 -17c-19 -95 -103 -197 -260 -197z" />
    <glyph glyph-name="quotedbl" unicode="&#x22;" horiz-adv-x="530" 
d="M260 713l-39 -217c-3 -15 -12 -23 -27 -23h-43c-17 0 -26 10 -23 27l30 217c2 15 11 23 26 23h53c18 0 26 -10 23 -27zM440 713l-38 -217c-3 -15 -12 -23 -27 -23h-43c-17 0 -26 10 -23 27l30 217c2 15 11 23 26 23h53c17 0 25 -10 22 -27z" />
    <glyph glyph-name="quotesingle" unicode="'" horiz-adv-x="349" 
d="M260 713l-39 -217c-3 -15 -12 -23 -27 -23h-43c-17 0 -26 10 -23 27l30 217c2 15 11 23 26 23h53c18 0 26 -10 23 -27z" />
    <glyph glyph-name="semicolon" unicode=";" horiz-adv-x="483" 
d="M356 529v-76c0 -16 -9 -25 -25 -25h-88c-16 0 -25 9 -25 25v76c0 16 9 25 25 25h88c16 0 25 -9 25 -25zM258 97v-65c0 -104 -24 -162 -76 -215c-11 -11 -22 -12 -35 -5c-15 8 -17 20 -7 35c39 56 45 112 -2 143c-12 7 -18 15 -18 29v78c0 16 9 25 25 25h88
c16 0 25 -9 25 -25z" />
    <glyph glyph-name="slash" unicode="/" horiz-adv-x="531" 
d="M512 702l-327 -684c-6 -12 -15 -18 -29 -18h-73c-20 0 -27 12 -19 29l328 684c6 12 15 18 29 18h72c20 0 27 -12 19 -29z" />
    <glyph glyph-name="underscore" unicode="_" horiz-adv-x="646" 
d="M609 -86v-33c0 -16 -9 -25 -25 -25h-521c-16 0 -25 9 -25 25v33c0 16 9 25 25 25h521c16 0 25 -9 25 -25z" />
    <glyph glyph-name="braceleft" unicode="{" horiz-adv-x="466" 
d="M396 725v-48c0 -16 -8 -25 -22 -25c-68 0 -100 -28 -100 -112v-144c0 -84 -25 -117 -60 -135v-8c35 -16 60 -62 60 -143v-137c0 -84 32 -111 100 -111c14 0 22 -9 22 -25v-49c0 -16 -9 -25 -25 -25h-12c-132 0 -194 56 -194 205v121c0 69 -6 107 -45 116
c-16 4 -24 10 -24 26v52c0 16 8 22 24 26c39 9 45 47 45 116v125c0 148 62 200 194 200h12c16 0 25 -9 25 -25z" />
    <glyph glyph-name="braceright" unicode="}" horiz-adv-x="466" 
d="M70 -212v49c0 16 8 25 22 25c68 0 100 27 100 111v145c0 84 25 116 60 134v8c-35 16 -60 62 -60 144v136c0 84 -32 112 -100 112c-14 0 -22 9 -22 25v48c0 16 9 25 25 25h12c132 0 194 -56 194 -205v-121c0 -69 6 -107 45 -115c16 -4 24 -10 24 -26v-53
c0 -16 -8 -22 -24 -26c-39 -9 -45 -47 -45 -116v-124c0 -148 -62 -201 -194 -201h-12c-16 0 -25 9 -25 25z" />
    <glyph glyph-name="bracketleft" unicode="[" horiz-adv-x="438" 
d="M201 637l5 -764h137c16 0 25 -9 25 -25v-43c0 -16 -9 -25 -25 -25h-222c-16 0 -25 9 -25 25l4 900c0 16 9 25 25 25h218c16 0 25 -9 25 -25v-43c0 -16 -9 -25 -25 -25h-142z" />
    <glyph glyph-name="bracketright" unicode="]" horiz-adv-x="438" 
d="M95 730h223c16 0 25 -9 25 -25l-5 -900c0 -16 -9 -25 -25 -25h-218c-16 0 -25 9 -25 25v43c0 16 9 25 25 25h142l-4 764h-138c-16 0 -25 9 -25 25v43c0 16 9 25 25 25z" />
    <glyph glyph-name="braceleft.case" horiz-adv-x="466" 
d="M396 825v-48c0 -16 -8 -25 -22 -25c-68 0 -100 -28 -100 -112v-144c0 -84 -25 -117 -60 -135v-8c35 -16 60 -62 60 -143v-137c0 -84 32 -111 100 -111c14 0 22 -9 22 -25v-49c0 -16 -9 -25 -25 -25h-12c-132 0 -194 56 -194 205v121c0 69 -6 107 -45 116
c-16 4 -24 10 -24 26v52c0 16 8 22 24 26c39 9 45 47 45 116v125c0 148 62 200 194 200h12c16 0 25 -9 25 -25z" />
    <glyph glyph-name="braceright.case" horiz-adv-x="466" 
d="M70 -112v49c0 16 8 25 22 25c68 0 100 27 100 111v145c0 84 25 116 60 134v8c-35 16 -60 62 -60 144v136c0 84 -32 112 -100 112c-14 0 -22 9 -22 25v48c0 16 9 25 25 25h12c132 0 194 -56 194 -205v-121c0 -69 6 -107 45 -115c16 -4 24 -10 24 -26v-53
c0 -16 -8 -22 -24 -26c-39 -9 -45 -47 -45 -116v-124c0 -148 -62 -201 -194 -201h-12c-16 0 -25 9 -25 25z" />
    <glyph glyph-name="bracketleft.case" horiz-adv-x="438" 
d="M201 737l5 -764h137c16 0 25 -9 25 -25v-43c0 -16 -9 -25 -25 -25h-222c-16 0 -25 9 -25 25l4 900c0 16 9 25 25 25h218c16 0 25 -9 25 -25v-43c0 -16 -9 -25 -25 -25h-142z" />
    <glyph glyph-name="bracketright.case" horiz-adv-x="438" 
d="M95 830h223c16 0 25 -9 25 -25l-5 -900c0 -16 -9 -25 -25 -25h-218c-16 0 -25 9 -25 25v43c0 16 9 25 25 25h142l-4 764h-138c-16 0 -25 9 -25 25v43c0 16 9 25 25 25z" />
    <glyph glyph-name="parenleft.case" horiz-adv-x="437" 
d="M321 836l16 -12c13 -9 15 -21 6 -34c-74 -111 -117 -259 -117 -432c0 -172 43 -321 117 -433c9 -13 7 -25 -7 -34l-15 -11c-13 -9 -25 -8 -35 2c-115 113 -188 288 -188 476s73 363 188 475c10 11 22 12 35 3z" />
    <glyph glyph-name="parenright.case" horiz-adv-x="437" 
d="M115 -120l-15 11c-13 9 -15 21 -6 34c74 112 117 260 117 433c0 172 -43 321 -117 432c-9 13 -7 25 6 35l15 11c13 9 25 8 35 -2c116 -113 189 -289 189 -476c0 -189 -73 -363 -189 -476c-10 -10 -22 -11 -35 -2z" />
    <glyph glyph-name="parenleft" unicode="(" horiz-adv-x="437" 
d="M321 736l16 -12c13 -9 15 -21 6 -34c-74 -111 -117 -259 -117 -432c0 -172 43 -321 117 -433c9 -13 7 -25 -7 -34l-15 -11c-13 -9 -25 -8 -35 2c-115 113 -188 288 -188 476s73 363 188 475c10 11 22 12 35 3z" />
    <glyph glyph-name="parenright" unicode=")" horiz-adv-x="437" 
d="M115 -220l-15 11c-13 9 -15 21 -6 34c74 112 117 260 117 433c0 172 -43 321 -117 432c-9 13 -7 25 6 35l15 11c13 9 25 8 35 -2c116 -113 189 -289 189 -476c0 -189 -73 -363 -189 -476c-10 -10 -22 -11 -35 -2z" />
    <glyph glyph-name="emdash" unicode="&#x2014;" horiz-adv-x="934" 
d="M848 309v-54c0 -16 -9 -25 -25 -25h-711c-16 0 -25 9 -25 25v54c0 16 9 25 25 25h711c16 0 25 -9 25 -25z" />
    <glyph glyph-name="endash" unicode="&#x2013;" horiz-adv-x="744" 
d="M657 309v-54c0 -16 -9 -25 -25 -25h-520c-16 0 -25 9 -25 25v54c0 16 9 25 25 25h520c16 0 25 -9 25 -25z" />
    <glyph glyph-name="hyphen" unicode="-" horiz-adv-x="621" 
d="M501 308v-54c0 -16 -9 -25 -25 -25h-331c-16 0 -25 9 -25 25v54c0 16 9 25 25 25h331c16 0 25 -9 25 -25z" />
    <glyph glyph-name="guillemetleft.case" horiz-adv-x="681" 
d="M124 349v60c0 13 5 22 16 30l154 100c17 11 30 4 30 -16v-44c0 -13 -5 -22 -16 -30l-109 -70l109 -70c11 -8 16 -17 16 -30v-43c0 -20 -13 -27 -30 -16l-154 99c-11 8 -16 17 -16 30zM557 523v-44c0 -13 -5 -22 -16 -30l-109 -70l109 -70c11 -8 16 -17 16 -30v-43
c0 -20 -13 -27 -30 -16l-154 99c-11 8 -16 17 -16 30v60c0 13 5 22 16 30l154 100c17 11 30 4 30 -16z" />
    <glyph glyph-name="guillemetright.case" horiz-adv-x="681" 
d="M124 480v43c0 20 13 27 30 16l154 -99c11 -8 16 -17 16 -30v-60c0 -13 -5 -22 -16 -30l-154 -100c-17 -11 -30 -4 -30 16v44c0 13 5 22 16 30l109 70l-109 70c-11 8 -16 17 -16 30zM387 539l154 -99c11 -8 16 -17 16 -30v-60c0 -13 -5 -22 -16 -30l-154 -100
c-17 -11 -30 -4 -30 16v44c0 13 5 22 16 30l109 70l-109 70c-11 8 -16 17 -16 30v43c0 20 13 28 30 16z" />
    <glyph glyph-name="guilsinglleft.case" horiz-adv-x="449" 
d="M324 523v-44c0 -13 -5 -22 -16 -30l-109 -70l109 -70c11 -8 16 -17 16 -30v-43c0 -20 -13 -27 -30 -16l-154 99c-11 8 -16 17 -16 30v60c0 13 5 22 16 30l154 100c17 11 30 4 30 -16z" />
    <glyph glyph-name="guilsinglright.case" horiz-adv-x="449" 
d="M154 539l154 -99c11 -8 16 -17 16 -30v-60c0 -13 -5 -22 -16 -30l-154 -100c-17 -11 -30 -4 -30 16v44c0 13 5 22 16 30l109 70l-109 70c-11 8 -16 17 -16 30v43c0 20 13 28 30 16z" />
    <glyph glyph-name="guillemetleft" unicode="&#xab;" horiz-adv-x="681" 
d="M124 249v60c0 13 5 22 16 30l154 100c17 11 30 4 30 -16v-44c0 -13 -5 -22 -16 -30l-109 -70l109 -70c11 -8 16 -17 16 -30v-43c0 -20 -13 -27 -30 -16l-154 99c-11 8 -16 17 -16 30zM557 423v-44c0 -13 -5 -22 -16 -30l-109 -70l109 -70c11 -8 16 -17 16 -30v-43
c0 -20 -13 -27 -30 -16l-154 99c-11 8 -16 17 -16 30v60c0 13 5 22 16 30l154 100c17 11 30 4 30 -16z" />
    <glyph glyph-name="guillemetright" unicode="&#xbb;" horiz-adv-x="681" 
d="M124 380v43c0 20 13 27 30 16l154 -99c11 -8 16 -17 16 -30v-60c0 -13 -5 -22 -16 -30l-154 -100c-17 -11 -30 -4 -30 16v44c0 13 5 22 16 30l109 70l-109 70c-11 8 -16 17 -16 30zM387 439l154 -99c11 -8 16 -17 16 -30v-60c0 -13 -5 -22 -16 -30l-154 -100
c-17 -11 -30 -4 -30 16v44c0 13 5 22 16 30l109 70l-109 70c-11 8 -16 17 -16 30v43c0 20 13 28 30 16z" />
    <glyph glyph-name="guilsinglleft" unicode="&#x2039;" horiz-adv-x="449" 
d="M324 423v-44c0 -13 -5 -22 -16 -30l-109 -70l109 -70c11 -8 16 -17 16 -30v-43c0 -20 -13 -27 -30 -16l-154 99c-11 8 -16 17 -16 30v60c0 13 5 22 16 30l154 100c17 11 30 4 30 -16z" />
    <glyph glyph-name="guilsinglright" unicode="&#x203a;" horiz-adv-x="449" 
d="M154 439l154 -99c11 -8 16 -17 16 -30v-60c0 -13 -5 -22 -16 -30l-154 -100c-17 -11 -30 -4 -30 16v44c0 13 5 22 16 30l109 70l-109 70c-11 8 -16 17 -16 30v43c0 20 13 28 30 16z" />
    <glyph glyph-name="quotedblbase" unicode="&#x201e;" horiz-adv-x="300" 
d="M145 122h88c16 0 25 -9 25 -25v-65c0 -104 -24 -162 -76 -215c-11 -11 -22 -12 -35 -5c-15 8 -17 20 -7 35c39 56 45 112 -2 143c-12 7 -18 15 -18 29v78c0 16 9 25 25 25z" />
    <glyph glyph-name="quotedblleft" unicode="&#x201c;" horiz-adv-x="572" 
d="M126 451v65c0 104 24 162 76 215c11 11 22 12 35 5c15 -8 17 -20 7 -35c-39 -56 -45 -112 2 -143c12 -7 18 -15 18 -29v-78c0 -16 -9 -25 -25 -25h-88c-16 0 -25 9 -25 25zM354 451v65c0 104 24 162 76 215c11 11 22 12 35 5c15 -8 17 -20 7 -35c-39 -56 -45 -112 2 -143
c12 -7 18 -15 18 -29v-78c0 -16 -9 -25 -25 -25h-88c-16 0 -25 9 -25 25z" />
    <glyph glyph-name="quotedblright" unicode="&#x201d;" horiz-adv-x="489" 
d="M218 707v-65c0 -104 -24 -162 -76 -215c-11 -11 -22 -12 -35 -5c-15 8 -16 20 -7 35c39 56 45 112 -2 143c-12 7 -18 15 -18 29v78c0 16 9 25 25 25h88c16 0 25 -9 25 -25zM446 707v-65c0 -104 -24 -162 -76 -215c-11 -11 -22 -12 -35 -5c-15 8 -16 20 -7 35
c39 56 45 112 -2 143c-12 7 -18 15 -18 29v78c0 16 9 25 25 25h88c16 0 25 -9 25 -25z" />
    <glyph glyph-name="quoteleft" unicode="&#x2018;" horiz-adv-x="344" 
d="M127 451v65c0 104 23 162 76 215c11 11 22 12 35 5c15 -8 16 -20 7 -35c-39 -56 -45 -112 1 -142c12 -8 18 -16 18 -30v-78c0 -16 -9 -25 -25 -25h-87c-16 0 -25 9 -25 25z" />
    <glyph glyph-name="quoteright" unicode="&#x2019;" horiz-adv-x="261" 
d="M218 712v-65c0 -104 -24 -162 -77 -214c-10 -11 -21 -12 -34 -5c-15 8 -17 20 -7 34c39 56 45 113 -2 143c-12 7 -18 15 -18 29v78c0 16 9 25 25 25h88c16 0 25 -9 25 -25z" />
    <glyph glyph-name="quotesinglbase" unicode="&#x201a;" horiz-adv-x="300" 
d="M258 97v-65c0 -104 -24 -162 -76 -215c-11 -11 -22 -12 -35 -5c-15 8 -17 20 -7 35c39 56 45 112 -2 143c-12 7 -18 15 -18 29v78c0 16 9 25 25 25h88c16 0 25 -9 25 -25z" />
    <glyph glyph-name="space" unicode=" " horiz-adv-x="197" 
 />
    <glyph glyph-name="cent" unicode="&#xa2;" horiz-adv-x="544" 
d="M298 179c57 0 85 23 104 57c7 12 15 18 29 18h62c18 0 28 -11 21 -28c-25 -65 -85 -132 -181 -148l3 -115c1 -16 -8 -25 -24 -25h-45c-16 0 -25 9 -24 25l3 114c-128 18 -208 124 -208 275c0 162 83 268 208 288l-3 116c-1 16 8 25 24 25h45c16 0 25 -9 24 -25l-3 -115
c101 -16 166 -86 187 -158c4 -17 -5 -27 -23 -27h-62c-14 0 -22 6 -29 18c-25 44 -58 67 -114 67c-81 0 -137 -47 -137 -185c0 -131 56 -177 143 -177z" />
    <glyph glyph-name="currency" unicode="&#xa4;" horiz-adv-x="720" 
d="M243 412l-30 -31c-12 -12 -24 -12 -36 0l-39 39c-12 12 -12 24 0 36l30 30c12 12 24 12 36 0l39 -39c11 -11 11 -23 0 -35zM533 156l50 -49c12 -12 12 -24 0 -36l-30 -30c-12 -12 -24 -12 -36 0l-49 49c-11 11 -11 23 0 35l3 3c-31 -25 -69 -40 -111 -40
c-31 0 -61 8 -86 23l-39 -40c-12 -12 -24 -12 -36 0l-31 31c-11 12 -11 24 1 36l39 39c-15 25 -24 55 -24 87c0 98 79 176 176 176c32 0 62 -9 88 -24l39 39c12 12 24 12 36 0l29 -29c12 -12 12 -24 1 -36l-39 -40c14 -25 22 -55 22 -86c0 -39 -13 -75 -35 -104
c9 9 20 8 32 -4zM360 171c51 0 93 42 93 93c0 52 -42 94 -93 94c-52 0 -94 -42 -94 -94c0 -51 42 -93 94 -93z" />
    <glyph glyph-name="dollar" unicode="$" horiz-adv-x="648" 
d="M603 208c0 -114 -93 -180 -234 -187l3 -114c1 -16 -8 -25 -24 -25h-51c-16 0 -25 9 -24 25l3 118c-133 20 -202 99 -225 170c-5 17 5 27 22 27h63c14 0 22 -6 29 -18c31 -53 86 -88 183 -88c93 0 139 27 139 77c0 49 -42 86 -162 124l-35 11c-133 41 -210 94 -214 188
c-3 104 85 172 200 188l-3 110c-1 16 8 25 24 25h51c16 0 25 -9 24 -25l-3 -109c108 -14 181 -76 214 -156c7 -18 -2 -29 -20 -29h-59c-14 0 -22 5 -30 17c-32 46 -84 75 -156 75c-88 0 -127 -35 -127 -80c0 -47 41 -73 160 -107l32 -10c163 -48 220 -120 220 -207z" />
    <glyph glyph-name="euro" unicode="&#x20ac;" horiz-adv-x="729" 
d="M488 90c47 0 90 10 130 26c16 7 27 1 31 -16l11 -47c3 -14 -1 -25 -14 -32c-52 -26 -110 -37 -168 -37c-174 0 -297 101 -340 253h-69c-16 0 -25 9 -25 25v43c0 16 9 25 25 25h54c-1 10 -1 21 -1 32c0 12 0 24 1 36h-54c-16 0 -25 9 -25 25v43c0 16 9 25 25 25h70
c45 159 174 259 341 259c53 0 110 -10 165 -37c14 -7 18 -18 14 -33l-15 -52c-4 -16 -16 -22 -32 -15c-41 18 -91 32 -142 32c-99 0 -179 -53 -213 -154l213 -1c16 0 25 -9 25 -25v-43c0 -16 -9 -25 -25 -25l-229 1l-1 -24c0 -15 1 -30 2 -44l228 -1c16 0 25 -9 25 -25v-42
c0 -16 -9 -25 -25 -25h-206c38 -94 118 -147 224 -147z" />
    <glyph glyph-name="sterling" unicode="&#xa3;" horiz-adv-x="684" 
d="M226 108h368c16 0 25 -9 25 -25v-58c0 -16 -9 -25 -25 -25h-505c-16 0 -25 9 -25 25v53c0 13 5 22 16 30c73 52 77 96 77 184h-25c-16 0 -25 9 -25 25v54c0 16 9 25 25 25h25v121c0 132 92 233 235 233c142 0 206 -94 223 -187c3 -17 -6 -27 -23 -27h-61
c-15 0 -23 7 -27 22c-18 59 -59 89 -116 89c-70 0 -119 -44 -119 -141v-110h194c16 0 25 -9 25 -25v-54c0 -16 -9 -25 -25 -25h-194v-6c0 -77 -13 -133 -43 -170v-8z" />
    <glyph glyph-name="yen" unicode="&#xa5;" horiz-adv-x="613" 
d="M407 367h75c16 0 25 -9 25 -25v-31c0 -16 -9 -25 -25 -25h-114l1 -63h113c16 0 25 -9 25 -25v-31c0 -16 -9 -25 -25 -25h-112l1 -117c0 -16 -9 -25 -25 -25h-76c-16 0 -25 9 -25 25l1 117h-95c-16 0 -25 9 -25 25v31c0 16 9 25 25 25h96v63h-96c-16 0 -25 9 -25 25v31
c0 16 9 25 25 25h57l-182 335c-9 18 -2 30 18 30h76c14 0 23 -5 29 -18l157 -295h8l155 295c6 12 15 18 29 18h71c20 0 27 -12 18 -30z" />
    <glyph glyph-name="asciitilde" unicode="~" horiz-adv-x="667" 
d="M252 386c99 0 129 -93 171 -93c22 0 31 21 34 46c2 16 9 25 25 25h42c17 0 26 -9 25 -26c-7 -65 -39 -134 -126 -134c-90 0 -112 92 -169 92c-25 0 -36 -20 -39 -46c-3 -16 -10 -24 -26 -24h-42c-17 0 -26 8 -25 23c5 75 39 137 130 137z" />
    <glyph glyph-name="divide" unicode="&#xf7;" horiz-adv-x="811" 
d="M469 507v-70c0 -16 -9 -25 -25 -25h-82c-16 0 -25 9 -25 25v70c0 16 9 25 25 25h82c16 0 25 -9 25 -25zM691 294v-54c0 -16 -9 -25 -25 -25h-521c-16 0 -25 9 -25 25v54c0 16 9 25 25 25h521c16 0 25 -9 25 -25zM469 87v-70c0 -16 -9 -25 -25 -25h-82c-16 0 -25 9 -25 25
v70c0 16 9 25 25 25h82c16 0 25 -9 25 -25z" />
    <glyph glyph-name="equal" unicode="=" horiz-adv-x="770" 
d="M649 393v-49c0 -16 -9 -25 -25 -25h-479c-16 0 -25 9 -25 25v49c0 16 9 25 25 25h479c16 0 25 -9 25 -25zM649 164v-48c0 -16 -9 -25 -25 -25h-479c-16 0 -25 9 -25 25v48c0 16 9 25 25 25h479c16 0 25 -9 25 -25z" />
    <glyph glyph-name="greater" unicode="&#x3e;" horiz-adv-x="715" 
d="M149 506l427 -178c13 -5 19 -15 19 -29v-56c0 -14 -6 -24 -19 -29l-427 -183c-17 -7 -29 1 -29 20v51c0 14 6 24 19 29l336 139l-336 136c-13 6 -19 15 -19 29v51c0 19 12 27 29 20z" />
    <glyph glyph-name="greaterequal" unicode="&#x2265;" horiz-adv-x="660" 
d="M149 497l371 -127c14 -5 20 -14 20 -28v-42c0 -15 -7 -24 -20 -29l-372 -122c-17 -5 -28 3 -28 21v37c0 15 7 24 21 29l269 85l-269 88c-14 5 -21 14 -21 29v39c0 18 11 26 29 20zM120 33v37c0 16 9 25 25 25h370c16 0 25 -9 25 -25v-37c0 -16 -9 -25 -25 -25h-370
c-16 0 -25 9 -25 25z" />
    <glyph glyph-name="infinity" unicode="&#x221e;" horiz-adv-x="1076" 
d="M757 516c118 0 199 -97 199 -220c0 -122 -80 -216 -212 -216c-81 0 -138 35 -214 124c-64 -76 -128 -124 -211 -124c-118 0 -199 97 -199 219s80 217 212 217c81 0 138 -34 215 -124c62 77 127 124 210 124zM332 195c51 0 95 42 140 104c-54 80 -92 108 -141 108
c-57 0 -94 -40 -94 -99c0 -69 37 -113 95 -113zM744 189c58 0 94 39 94 99c0 69 -37 113 -94 113c-52 0 -96 -43 -140 -104c55 -80 92 -108 140 -108z" />
    <glyph glyph-name="less" unicode="&#x3c;" horiz-adv-x="715" 
d="M595 486v-51c0 -14 -6 -24 -19 -29l-336 -139l336 -136c13 -6 19 -15 19 -29v-51c0 -19 -12 -27 -29 -20l-427 178c-13 5 -19 15 -19 29v56c0 14 6 24 19 29l427 183c17 7 29 -1 29 -20z" />
    <glyph glyph-name="lessequal" unicode="&#x2264;" horiz-adv-x="660" 
d="M540 477v-39c0 -15 -7 -24 -21 -29l-269 -88l269 -85c14 -5 21 -14 21 -29v-37c0 -18 -11 -26 -28 -21l-372 122c-13 5 -20 14 -20 29v42c0 14 6 23 20 28l371 127c18 6 29 -2 29 -20zM120 33v37c0 16 9 25 25 25h370c16 0 25 -9 25 -25v-37c0 -16 -9 -25 -25 -25h-370
c-16 0 -25 9 -25 25z" />
    <glyph glyph-name="minus" unicode="&#x2212;" horiz-adv-x="811" 
d="M741 293v-54c0 -16 -9 -25 -25 -25h-521c-16 0 -25 9 -25 25v54c0 16 9 25 25 25h521c16 0 25 -9 25 -25z" />
    <glyph glyph-name="multiply" unicode="&#xd7;" horiz-adv-x="660" 
d="M358 234l164 -163c12 -12 12 -24 0 -36c-7 -7 -17 -5 -29 7l-163 164l-164 -164c-12 -12 -24 -12 -36 0c-7 7 -4 17 7 28l164 164l-163 164c-12 12 -12 24 0 36c7 7 16 4 28 -8l164 -163l163 163c12 12 24 12 36 1c7 -7 5 -17 -7 -29z" />
    <glyph glyph-name="notequal" unicode="&#x2260;" horiz-adv-x="770" 
d="M486 319l-61 -130h199c16 0 25 -9 25 -25v-48c0 -16 -9 -25 -25 -25h-244l-59 -126c-6 -13 -15 -19 -30 -19h-54c-19 0 -26 12 -18 29l54 116h-128c-16 0 -25 9 -25 25v48c0 16 9 25 25 25h174l60 130h-234c-16 0 -25 9 -25 25v49c0 16 9 25 25 25h281l58 125
c6 13 15 19 30 19h53c19 0 26 -12 18 -29l-53 -115h92c16 0 25 -9 25 -25v-49c0 -16 -9 -25 -25 -25h-138z" />
    <glyph glyph-name="percent" unicode="%" horiz-adv-x="821" 
d="M200 784c86 0 155 -69 155 -155s-69 -155 -155 -155s-156 69 -156 155s70 155 156 155zM707 700l-488 -684c-8 -11 -17 -16 -30 -16h-57c-20 0 -27 13 -15 30l489 684c8 11 17 16 30 16h56c20 0 27 -13 15 -30zM200 697c-38 0 -68 -30 -68 -68c0 -37 30 -68 68 -68
c37 0 68 31 68 68c0 38 -31 68 -68 68zM621 333c86 0 156 -70 156 -156c0 -85 -70 -155 -156 -155c-85 0 -155 70 -155 155c0 86 70 156 155 156zM621 246c-38 0 -68 -31 -68 -69c0 -36 30 -68 68 -68c37 0 69 32 69 68c0 38 -32 69 -69 69z" />
    <glyph glyph-name="perthousand" unicode="&#x2030;" horiz-adv-x="1172" 
d="M200 784c86 0 155 -69 155 -155s-69 -155 -155 -155s-156 69 -156 155s70 155 156 155zM707 700l-488 -684c-8 -11 -17 -16 -30 -16h-57c-20 0 -27 13 -15 30l489 684c8 11 17 16 30 16h56c20 0 27 -13 15 -30zM200 697c-38 0 -68 -30 -68 -68c0 -37 30 -68 68 -68
c37 0 68 31 68 68c0 38 -31 68 -68 68zM621 333c86 0 156 -70 156 -156c0 -85 -70 -155 -156 -155c-85 0 -155 70 -155 155c0 86 70 156 155 156zM973 333c86 0 155 -70 155 -156c0 -85 -69 -155 -155 -155s-156 70 -156 155c0 86 70 156 156 156zM621 246
c-38 0 -68 -31 -68 -69c0 -36 30 -68 68 -68c37 0 69 32 69 68c0 38 -32 69 -69 69zM973 246c-38 0 -69 -31 -69 -69c0 -36 31 -68 69 -68c37 0 68 32 68 68c0 38 -31 69 -68 69z" />
    <glyph glyph-name="plus" unicode="+" horiz-adv-x="767" 
d="M647 294v-50c0 -16 -9 -25 -25 -25h-186v-189c0 -16 -9 -25 -25 -25h-54c-16 0 -25 9 -25 25v189h-187c-16 0 -25 9 -25 25v50c0 16 9 25 25 25h187v188c0 16 9 25 25 25h54c16 0 25 -9 25 -25v-188h186c16 0 25 -9 25 -25z" />
    <glyph glyph-name="apple" unicode="&#xf8ff;" horiz-adv-x="566" 
d="M364 530c16 6 28 -6 25 -23c-4 -21 -14 -41 -28 -56c-13 -17 -33 -32 -54 -37c-15 -4 -27 6 -24 22c3 23 15 44 27 59c14 16 33 29 54 35zM388 405c16 0 53 -3 83 -33c12 -12 8 -24 -4 -35c-17 -16 -39 -45 -39 -88c2 -51 32 -82 53 -97c12 -8 18 -19 12 -33
s-15 -33 -30 -53c-21 -33 -45 -67 -82 -67c-34 0 -47 22 -87 22c-43 0 -56 -22 -88 -22c-37 0 -63 35 -86 68c-30 43 -55 111 -56 175c0 34 7 67 23 96c24 39 65 66 111 67c35 1 66 -24 88 -24c20 0 59 24 102 24z" />
    <glyph glyph-name="bar" unicode="|" horiz-adv-x="401" 
d="M251 750l5 -970c0 -16 -9 -25 -25 -25h-60c-16 0 -25 9 -25 25l4 970c0 16 9 25 25 25h51c16 0 25 -9 25 -25z" />
    <glyph glyph-name="at" unicode="@" horiz-adv-x="903" 
d="M464 655c226 0 375 -152 375 -355c0 -148 -79 -211 -170 -211c-80 0 -114 50 -126 81h-4c-26 -53 -75 -76 -118 -76c-79 0 -137 70 -137 167c0 105 69 174 150 174c42 0 71 -20 91 -47h3v11c0 16 9 25 25 25h29c16 0 25 -9 25 -25v-134c0 -61 20 -93 64 -93
c49 0 74 40 74 118c0 166 -114 274 -282 274c-169 0 -302 -111 -302 -300c0 -176 117 -299 322 -299c20 0 57 1 94 8c17 3 28 -4 29 -21l2 -29c1 -15 -5 -25 -20 -29c-48 -14 -94 -16 -123 -16c-233 0 -401 155 -401 387c0 236 173 390 400 390zM441 358
c-48 0 -74 -36 -74 -92c0 -61 30 -94 74 -94c47 0 80 33 83 89v16c-4 53 -37 81 -83 81z" />
    <glyph glyph-name="ampersand" unicode="&#x26;" horiz-adv-x="777" 
d="M691 0h-90c-13 0 -22 4 -30 14l-27 29c-57 -42 -132 -65 -217 -65c-153 0 -263 74 -263 195c0 93 64 157 164 218c-56 68 -77 112 -77 170c0 105 74 187 201 187c124 0 193 -80 193 -179c0 -78 -41 -142 -147 -209l136 -146c6 21 9 44 9 68c0 7 0 15 -1 24
c-1 16 7 26 24 26h61c15 0 25 -7 27 -22c2 -12 3 -24 3 -37c0 -57 -14 -107 -39 -149l86 -93c15 -16 9 -31 -13 -31zM351 649c-58 0 -89 -43 -89 -85c0 -31 18 -70 69 -130c63 42 103 78 103 130c0 42 -26 85 -83 85zM333 82c58 0 105 14 139 39l-177 193
c-79 -50 -114 -91 -114 -135c0 -57 55 -97 152 -97z" />
    <glyph glyph-name="paragraph" unicode="&#xb6;" horiz-adv-x="759" 
d="M243 616h168c16 0 25 -9 25 -25v-666c0 -16 -9 -25 -25 -25h-59c-16 0 -25 9 -25 25v306h-84c-126 0 -205 81 -205 194c0 112 79 191 205 191zM582 616h65c16 0 25 -9 25 -25v-666c0 -16 -9 -25 -25 -25h-65c-16 0 -25 9 -25 25v666c0 16 9 25 25 25z" />
    <glyph glyph-name="copyright" unicode="&#xa9;" horiz-adv-x="860" 
d="M430 731c202 0 366 -145 366 -365s-164 -365 -366 -365c-201 0 -366 145 -366 365s165 365 366 365zM430 654c-159 0 -288 -115 -288 -288s129 -288 288 -288s288 115 288 288s-129 288 -288 288zM436 571c88 0 148 -55 167 -113c6 -17 -5 -27 -22 -27h-35
c-14 0 -22 6 -29 18c-17 29 -41 45 -81 45c-59 0 -100 -34 -100 -133c0 -92 42 -125 106 -125c39 0 60 15 75 37c7 12 15 18 29 18h32c18 0 28 -12 20 -28c-24 -53 -79 -105 -165 -105c-112 0 -185 80 -185 201c0 131 78 212 188 212z" />
    <glyph glyph-name="registered" unicode="&#xae;" horiz-adv-x="572" 
d="M286 768c105 0 191 -86 191 -191c0 -104 -86 -191 -191 -191s-190 87 -190 191c0 105 85 191 190 191zM286 444c74 0 135 60 135 134s-61 134 -135 134s-134 -60 -134 -134s60 -134 134 -134zM358 605c0 -21 -11 -37 -32 -45l18 -29c12 -17 4 -30 -16 -30
c-12 0 -20 5 -27 17l-23 37h-10v-29c0 -16 -9 -25 -25 -25c-14 0 -22 9 -22 25v102c0 16 9 25 25 25h52c40 0 60 -21 60 -48zM268 594h29c10 0 15 1 15 9c0 7 -7 10 -15 10h-29v-19z" />
    <glyph glyph-name="section" unicode="&#xa7;" horiz-adv-x="582" 
d="M452 242c49 -31 66 -67 66 -114c0 -103 -86 -171 -214 -171c-131 0 -202 71 -231 150c-7 17 2 28 21 28h67c14 0 22 -5 30 -17c28 -42 67 -57 119 -57c54 0 88 16 88 54c0 35 -28 51 -119 80l-18 6c-104 35 -175 70 -175 156c0 50 28 94 73 124c-46 26 -73 60 -73 113
c0 97 90 169 207 169c118 0 189 -74 210 -140c5 -17 -5 -27 -22 -27h-64c-13 0 -22 5 -30 16c-23 29 -56 47 -101 47c-52 0 -84 -26 -84 -57c0 -32 30 -43 112 -68l19 -6c141 -42 185 -87 185 -162c0 -52 -24 -95 -66 -124zM202 364c0 -31 30 -43 112 -68l14 -4
c43 10 70 27 70 61c0 33 -26 49 -113 78c-52 -10 -83 -34 -83 -67z" />
    <glyph glyph-name="trademark" unicode="&#x2122;" horiz-adv-x="674" 
d="M294 707v-3c0 -16 -9 -25 -25 -25h-53v-182c0 -16 -9 -25 -25 -25h-9c-16 0 -25 9 -25 25v182l-52 -1c-16 0 -25 9 -25 25v4c0 16 9 25 25 25h164c16 0 25 -9 25 -25zM585 707l8 -210c1 -16 -8 -25 -25 -25h-5c-16 0 -25 9 -26 25l-4 143h-4l-36 -146
c-3 -15 -12 -22 -27 -22h-13c-15 0 -24 7 -28 21l-38 147h-5l-3 -143c-1 -16 -10 -25 -26 -25h-5c-17 0 -26 9 -25 25l8 210c1 17 9 25 26 25h35c15 0 24 -7 27 -22l38 -151h4l39 152c4 14 13 21 28 21h31c17 0 25 -8 26 -25z" />
    <glyph glyph-name="degree" unicode="&#xb0;" horiz-adv-x="471" 
d="M235 768c86 0 156 -69 156 -155s-70 -155 -156 -155s-155 69 -155 155s69 155 155 155zM235 681c-38 0 -68 -30 -68 -68c0 -37 30 -68 68 -68c37 0 68 31 68 68c0 38 -31 68 -68 68z" />
    <glyph glyph-name="asciicircum" unicode="^" horiz-adv-x="738" 
d="M635 219h-51c-14 0 -23 6 -29 18l-184 362l-188 -362c-6 -12 -15 -18 -29 -18h-50c-20 0 -27 12 -18 30l228 427c6 13 15 18 29 18h58c14 0 23 -6 29 -18l223 -427c9 -18 1 -30 -18 -30z" />
    <glyph glyph-name="dagger" unicode="&#x2020;" horiz-adv-x="659" 
d="M539 316v-43c0 -16 -9 -25 -25 -25h-136l2 -447c0 -16 -9 -25 -25 -25h-52c-16 0 -25 9 -25 25l3 447h-136c-16 0 -25 9 -25 25v43c0 16 9 25 25 25h137l1 175c0 16 9 25 25 25h43c16 0 25 -9 25 -25l1 -175h137c16 0 25 -9 25 -25z" />
    <glyph glyph-name="daggerdbl" unicode="&#x2021;" horiz-adv-x="659" 
d="M377 248v-154h137c16 0 25 -9 25 -25v-43c0 -16 -9 -25 -25 -25h-137l1 -200c0 -16 -9 -25 -25 -25h-47c-16 0 -25 9 -25 25l1 200h-137c-16 0 -25 9 -25 25v43c0 16 9 25 25 25h137v154h-137c-16 0 -25 9 -25 25v43c0 16 9 25 25 25h137l1 175c0 16 9 25 25 25h43
c16 0 25 -9 25 -25l1 -175h137c16 0 25 -9 25 -25v-43c0 -16 -9 -25 -25 -25h-137z" />
    <glyph glyph-name="acute" unicode="&#xb4;" horiz-adv-x="436" 
d="M290 732l-92 -114c-9 -11 -18 -15 -31 -15h-11c-20 0 -27 12 -18 30l61 112c7 13 16 18 30 18h46c21 0 28 -14 15 -31z" />
    <glyph glyph-name="breve" unicode="&#x2d8;" horiz-adv-x="538" 
d="M416 725c0 -92 -61 -133 -148 -133c-85 0 -146 41 -146 133c0 10 9 16 25 16h21c16 0 25 -6 25 -16c0 -51 32 -69 75 -69c45 0 76 18 76 69c0 10 9 16 25 16h22c16 0 25 -6 25 -16z" />
    <glyph glyph-name="caron" unicode="&#x2c7;" horiz-adv-x="573" 
d="M377 740h34c21 0 28 -14 14 -31l-97 -115c-8 -10 -17 -14 -31 -14h-20c-14 0 -23 4 -31 14l-98 115c-14 17 -7 31 14 31h35c13 0 22 -5 30 -16l57 -82h10l52 82c8 11 17 16 31 16z" />
    <glyph glyph-name="caron.alt" horiz-adv-x="338" 
d="M211 735l-22 -121c-3 -15 -12 -23 -27 -23h-14c-16 0 -25 9 -23 26l12 121c1 16 10 24 26 24h25c18 0 26 -10 23 -27z" />
    <glyph glyph-name="cedilla" unicode="&#xb8;" horiz-adv-x="431" 
d="M251 -14l-13 -35c41 -8 71 -35 71 -84c0 -53 -36 -94 -106 -94c-20 0 -41 3 -61 12c-14 6 -18 18 -13 33l2 7c5 16 16 20 32 15c15 -5 29 -8 40 -8c23 0 39 13 39 32c0 18 -12 38 -59 38c-16 0 -23 11 -18 28l20 64c4 14 13 21 28 21h18c18 0 26 -11 20 -29z" />
    <glyph glyph-name="circumflex" unicode="&#x2c6;" horiz-adv-x="573" 
d="M327 749l98 -115c14 -17 7 -31 -14 -31h-35c-13 0 -22 5 -30 16l-57 82h-10l-52 -82c-8 -11 -17 -16 -31 -16h-34c-21 0 -28 14 -14 31l97 115c8 10 17 14 31 14h20c14 0 23 -4 31 -14z" />
    <glyph glyph-name="dieresis" unicode="&#xa8;" horiz-adv-x="496" 
d="M214 727v-65c0 -16 -9 -25 -25 -25h-42c-16 0 -25 9 -25 25v65c0 16 9 25 25 25h42c16 0 25 -9 25 -25zM374 727v-65c0 -16 -9 -25 -25 -25h-42c-16 0 -25 9 -25 25v65c0 16 9 25 25 25h42c16 0 25 -9 25 -25z" />
    <glyph glyph-name="dotaccent" unicode="&#x2d9;" horiz-adv-x="359" 
d="M237 727v-65c0 -16 -9 -25 -25 -25h-65c-16 0 -25 9 -25 25v65c0 16 9 25 25 25h65c16 0 25 -9 25 -25z" />
    <glyph glyph-name="grave" unicode="`" horiz-adv-x="436" 
d="M161 763h46c14 0 23 -5 30 -18l61 -112c9 -18 2 -30 -18 -30h-11c-13 0 -22 4 -31 15l-92 114c-13 17 -6 31 15 31z" />
    <glyph glyph-name="hungarumlaut" unicode="&#x2dd;" horiz-adv-x="602" 
d="M290 732l-92 -114c-9 -11 -18 -15 -31 -15h-11c-20 0 -27 12 -18 30l61 112c7 13 16 18 30 18h46c21 0 28 -14 15 -31zM456 732l-92 -114c-9 -11 -18 -15 -31 -15h-11c-20 0 -27 12 -18 30l60 112c7 13 16 18 30 18h47c21 0 28 -14 15 -31z" />
    <glyph glyph-name="macron" unicode="&#xaf;" horiz-adv-x="499" 
d="M377 671v-21c0 -16 -9 -25 -25 -25h-205c-16 0 -25 9 -25 25v21c0 16 9 25 25 25h205c16 0 25 -9 25 -25z" />
    <glyph glyph-name="ring" unicode="&#x2da;" horiz-adv-x="448" 
d="M224 776c56 0 101 -40 101 -101s-45 -102 -101 -102s-102 41 -102 102s46 101 102 101zM224 723c-27 0 -49 -18 -49 -48c0 -29 22 -49 49 -49s48 20 48 49c0 30 -21 48 -48 48z" />
    <glyph glyph-name="tilde" unicode="&#x2dc;" horiz-adv-x="545" 
d="M215 744c69 0 89 -73 119 -73c14 0 20 14 23 31c2 16 9 25 25 25h15c17 0 26 -9 25 -26c-6 -50 -29 -100 -88 -100c-63 0 -78 73 -118 73c-16 0 -24 -14 -27 -32c-3 -16 -10 -24 -26 -24h-15c-17 0 -26 9 -25 26c6 56 30 100 92 100z" />
    </font>
</defs>
</svg>
