<?xml version="1.0" encoding="utf-8"?>
<!-- Generator: Adobe Illustrator 18.0.0, SVG Export Plug-In . SVG Version: 6.00 Build 0)  -->
<!DOCTYPE svg PUBLIC "-//W3C//DTD SVG 1.1//EN" "http://www.w3.org/Graphics/SVG/1.1/DTD/svg11.dtd">
<svg version="1.1" id="Layer_1" xmlns="http://www.w3.org/2000/svg" xmlns:xlink="http://www.w3.org/1999/xlink" x="0px" y="0px"
	 viewBox="0 0 442.8 108.1" enable-background="new 0 0 442.8 108.1" xml:space="preserve">
<g>
	<g>
		<g>
			<g>
				<path fill="#FFE313" d="M6.3,31.8c-8.4,8.4-8.4,22,0,30.3l29.6,29.6c1.5,1.5,3.2,2.1,4.9,2.1c4.7,0,9-4.7,6.7-10.1
					c0,0-2.6-4.5-5.9-10.1L30.7,55.2c-0.1-0.2-0.2-0.5-0.3-0.7c0-0.1-0.1-0.1-0.1-0.2c-9.9-17.5-7.4-37.6,5-51.6L6.3,31.8z"/>
				<path fill="#FFBC00" d="M47.5,3.9c-1.2-1.8-3.3-3-5.4-3c-1.6,0-3.1,0.6-4.3,1.9l-0.5,0.5c-10.8,12.2-13.6,28.8-8,43.8
					c0-1.2,0.1-2.5,0.3-3.7c0.4-2.4,1.3-4.7,2.6-6.9L47.9,9.6C48.7,7.6,48.6,5.6,47.5,3.9z"/>
			</g>
			<g>
				<path fill="#FFE313" d="M105.7,62.1c8.4-8.4,8.4-22,0-30.3L76.1,2.1C74.6,0.7,72.8,0,71.2,0c-4.7,0-9,4.7-6.7,10.1
					c0,0,2.6,4.5,5.9,10.1l10.9,18.6c0.1,0.2,0.2,0.5,0.3,0.7c0,0.1,0.1,0.1,0.1,0.2c9.9,17.5,7.4,37.6-5,51.6L105.7,62.1z"/>
				<path fill="#FFBC00" d="M82.7,46.7c0,1.2-0.1,2.5-0.3,3.7c-0.4,2.4-1.3,4.7-2.6,6.9L64.1,84.3c-0.9,2-0.7,4,0.4,5.8
					c1.2,1.8,3.3,3,5.4,3h0c1.6,0,3.1-0.6,4.3-1.9l0.5-0.5C85.5,78.4,88.4,61.8,82.7,46.7z"/>
			</g>
		</g>
		<g>
			<g>
				<path fill="none" d="M180.6,30.9c-1.8-2-4.1-3.6-6.7-4.8c-2.6-1.2-5.6-1.7-8.9-1.7h-10.8v44.4H165c3.3,0,6.2-0.6,8.8-1.7
					c2.6-1.1,4.8-2.7,6.6-4.6c1.8-2,3.2-4.3,4.2-7c1-2.7,1.5-5.6,1.6-8.8c0.1-3-0.4-5.9-1.4-8.6C183.8,35.3,182.4,32.9,180.6,30.9z"
					/>
				<path fill="none" d="M227.3,44.6c-1.2-1.3-2.6-2.3-4.2-3c-1.6-0.7-3.3-1.1-5.1-1.1s-3.5,0.4-5.1,1.1c-1.6,0.7-3,1.7-4.2,3
					c-1.2,1.3-2.1,2.8-2.8,4.5c-0.7,1.7-1,3.6-1,5.6c0,2,0.3,3.9,1,5.6c0.7,1.7,1.6,3.2,2.8,4.5c1.2,1.3,2.6,2.3,4.2,3
					c1.6,0.7,3.3,1.1,5.1,1.1s3.5-0.4,5.1-1.1c1.6-0.7,3-1.7,4.2-3c1.2-1.3,2.1-2.8,2.8-4.5c0.7-1.7,1-3.6,1-5.6c0-2-0.3-3.9-1-5.6
					C229.5,47.4,228.5,45.9,227.3,44.6z"/>
				<path fill="none" d="M227.3,44.6c-1.2-1.3-2.6-2.3-4.2-3c-1.6-0.7-3.3-1.1-5.1-1.1s-3.5,0.4-5.1,1.1c-1.6,0.7-3,1.7-4.2,3
					c-1.2,1.3-2.1,2.8-2.8,4.5c-0.7,1.7-1,3.6-1,5.6c0,2,0.3,3.9,1,5.6c0.7,1.7,1.6,3.2,2.8,4.5c1.2,1.3,2.6,2.3,4.2,3
					c1.6,0.7,3.3,1.1,5.1,1.1s3.5-0.4,5.1-1.1c1.6-0.7,3-1.7,4.2-3c1.2-1.3,2.1-2.8,2.8-4.5c0.7-1.7,1-3.6,1-5.6c0-2-0.3-3.9-1-5.6
					C229.5,47.4,228.5,45.9,227.3,44.6z"/>
				<path fill="none" d="M227.3,44.6c-1.2-1.3-2.6-2.3-4.2-3c-1.6-0.7-3.3-1.1-5.1-1.1s-3.5,0.4-5.1,1.1c-1.6,0.7-3,1.7-4.2,3
					c-1.2,1.3-2.1,2.8-2.8,4.5c-0.7,1.7-1,3.6-1,5.6c0,2,0.3,3.9,1,5.6c0.7,1.7,1.6,3.2,2.8,4.5c1.2,1.3,2.6,2.3,4.2,3
					c1.6,0.7,3.3,1.1,5.1,1.1s3.5-0.4,5.1-1.1c1.6-0.7,3-1.7,4.2-3c1.2-1.3,2.1-2.8,2.8-4.5c0.7-1.7,1-3.6,1-5.6c0-2-0.3-3.9-1-5.6
					C229.5,47.4,228.5,45.9,227.3,44.6z"/>
				<path fill="none" d="M218,30.1c0.9,0,1.7,0,2.5,0.1C219.7,30.1,218.8,30.1,218,30.1z"/>
				<path fill="none" d="M225.5,46.3c-1-1.1-2.1-1.9-3.4-2.5c-1.3-0.6-2.6-0.9-4.1-0.9c-1.5,0-2.8,0.3-4.1,0.9
					c-1.3,0.6-2.4,1.4-3.4,2.5c-1,1.1-1.8,2.4-2.4,3.8c-0.6,1.4-0.9,3-0.9,4.7c0,1.7,0.3,3.3,0.9,4.7c0.6,1.4,1.4,2.7,2.4,3.8
					c1,1.1,2.1,1.9,3.4,2.5c1.3,0.6,2.6,0.9,4.1,0.9c1.5,0,2.8-0.3,4.1-0.9c1.3-0.6,2.4-1.4,3.4-2.5c1-1.1,1.8-2.4,2.4-3.8
					c0.6-1.4,0.9-3,0.9-4.7c0-1.7-0.3-3.3-0.9-4.7C227.3,48.6,226.5,47.3,225.5,46.3z"/>
				<path fill="none" d="M220.5,30.2c0.8,0.1,1.6,0.2,2.5,0.4C222.1,30.4,221.3,30.3,220.5,30.2z"/>
				<path fill="none" d="M220.5,79.3c-0.8,0.1-1.7,0.1-2.5,0.1C218.8,79.5,219.7,79.4,220.5,79.3z"/>
				<path fill="none" d="M195.2,45.1c0.4-0.9,0.8-1.8,1.3-2.6C196,43.3,195.6,44.2,195.2,45.1z"/>
				<path fill="none" d="M222.9,79c-0.8,0.2-1.6,0.3-2.5,0.4C221.3,79.3,222.1,79.1,222.9,79z"/>
				<path fill="#4F4F4F" d="M227.6,32c-1.5-0.6-3.1-1.1-4.7-1.4c-0.8-0.2-1.6-0.3-2.5-0.4c-0.8-0.1-1.7-0.1-2.5-0.1
					c-3.4,0-6.6,0.6-9.5,1.9c-3,1.3-5.6,3-7.9,5.3c-0.9,0.9-1.7,1.8-2.4,2.8c-0.6,0.8-1.1,1.6-1.6,2.4c-0.5,0.8-0.9,1.7-1.3,2.6
					c-1.3,3-2,6.2-2,9.6c0,1.9,0.2,3.8,0.6,5.6c0.2,1.1,0.5,2.1,0.9,3.1c0.1,0.3,0.3,0.7,0.4,1c1.3,3,3,5.6,5.3,7.8
					c2.2,2.2,4.9,4,7.9,5.2c3,1.3,6.2,1.9,9.6,1.9c0.9,0,1.7,0,2.5-0.1c0.8-0.1,1.6-0.2,2.5-0.4c1.6-0.3,3.2-0.8,4.7-1.4
					c3-1.3,5.7-3,7.9-5.2c2-1.9,3.6-4.1,4.8-6.7V54.8V43.9c-1.2-2.6-2.8-4.8-4.8-6.7C233.3,35,230.7,33.2,227.6,32z M230.2,60.4
					c-0.7,1.7-1.6,3.2-2.8,4.5c-1.2,1.3-2.6,2.3-4.2,3c-0.4,0.2-0.8,0.3-1.2,0.5c-1,0.3-2.1,0.5-3.2,0.6c-0.2,0-0.4,0-0.7,0
					c-1.8,0-3.5-0.4-5.1-1.1c-1.6-0.7-3-1.7-4.2-3c-1.2-1.3-2.1-2.8-2.8-4.5c-0.7-1.7-1-3.6-1-5.6c0-2,0.3-3.9,1-5.6
					c0.7-1.7,1.6-3.2,2.8-4.5c1.2-1.3,2.6-2.3,4.2-3c1.6-0.7,3.3-1.1,5.1-1.1c0.2,0,0.5,0,0.7,0c1.1,0.1,2.2,0.3,3.2,0.6
					c0.4,0.1,0.8,0.3,1.2,0.5c1.6,0.7,3,1.7,4.2,3c1.2,1.3,2.1,2.8,2.8,4.5c0.7,1.7,1,3.6,1,5.6C231.2,56.8,230.9,58.6,230.2,60.4z"
					/>
				<path fill="none" d="M227.3,44.6c-1.2-1.3-2.6-2.3-4.2-3c-0.4-0.2-0.8-0.3-1.2-0.5c-1-0.3-2.1-0.5-3.2-0.6c-0.2,0-0.4,0-0.7,0
					c-1.8,0-3.5,0.4-5.1,1.1c-1.6,0.7-3,1.7-4.2,3c-1.2,1.3-2.1,2.8-2.8,4.5c-0.7,1.7-1,3.6-1,5.6c0,2,0.3,3.9,1,5.6
					c0.7,1.7,1.6,3.2,2.8,4.5c1.2,1.3,2.6,2.3,4.2,3c1.6,0.7,3.3,1.1,5.1,1.1c0.2,0,0.5,0,0.7,0c1.1-0.1,2.2-0.3,3.2-0.6
					c0.4-0.1,0.8-0.3,1.2-0.5c1.6-0.7,3-1.7,4.2-3c1.2-1.3,2.1-2.8,2.8-4.5c0.7-1.7,1-3.6,1-5.6c0-2-0.3-3.9-1-5.6
					C229.5,47.4,228.5,45.9,227.3,44.6z M227.9,59.5c-0.6,1.4-1.4,2.7-2.4,3.8c-1,1.1-2.1,1.9-3.4,2.5c-1.3,0.6-2.6,0.9-4.1,0.9
					c-1.5,0-2.8-0.3-4.1-0.9c-1.3-0.6-2.4-1.4-3.4-2.5c-1-1.1-1.8-2.4-2.4-3.8c-0.6-1.4-0.9-3-0.9-4.7c0-1.7,0.3-3.3,0.9-4.7
					c0.6-1.4,1.4-2.7,2.4-3.8c1-1.1,2.1-1.9,3.4-2.5c1.3-0.6,2.6-0.9,4.1-0.9c1.5,0,2.8,0.3,4.1,0.9c1.3,0.6,2.4,1.4,3.4,2.5
					c1,1.1,1.8,2.4,2.4,3.8c0.6,1.4,0.9,3,0.9,4.7C228.8,56.4,228.5,58,227.9,59.5z"/>
				<g>
					<path fill="#4F4F4F" d="M193.8,60.3c0.2,1.1,0.5,2.1,0.9,3.1c-0.5-1.2-0.8-2.5-1-3.9C193.8,59.8,193.8,60.1,193.8,60.3z"/>
					<path fill="#4F4F4F" d="M193.6,58.8c-0.2-1.3-0.3-2.6-0.3-4C193.2,56.1,193.4,57.5,193.6,58.8z"/>
					<path fill="#4F4F4F" d="M192.9,65.4c-0.1-0.3-0.3-0.7-0.5-1.1c-1.1-3-1.7-6.2-1.7-9.5c0-3.7,0.7-7.3,2.2-10.6
						c0.9-2,1.9-3.8,3.2-5.5c0.4-0.5,0.8-1,1.3-1.5c-0.3-0.9-0.6-1.9-0.9-2.8c-1.5-4-3.6-7.4-6.3-10.3c-2.7-2.9-5.9-5.3-9.6-7
						c-3.7-1.7-7.8-2.6-12.2-2.6h-26.8v65h26.8c4.4,0,8.4-0.9,12.2-2.6c3.7-1.7,6.9-4,9.6-7c1.1-1.2,2.1-2.6,3-3.9
						C193.1,65.8,193,65.6,192.9,65.4z M184.6,55.5c-1,2.7-2.4,5-4.2,7c-1.8,2-4,3.5-6.6,4.6c-2.6,1.1-5.5,1.7-8.8,1.7h-10.8V24.4
						H165c3.3,0,6.3,0.6,8.9,1.7c2.6,1.2,4.9,2.8,6.7,4.8c1.8,2,3.2,4.4,4.2,7.1c1,2.7,1.4,5.6,1.4,8.6
						C186.1,49.8,185.6,52.8,184.6,55.5z"/>
				</g>
				<path fill="none" d="M293.6,44c-0.3,0.2-0.6,0.5-0.9,0.7C293,44.4,293.3,44.2,293.6,44z"/>
				<path fill="none" d="M298.5,41.6c-0.2,0-0.5,0.1-0.7,0.1C298.1,41.7,298.3,41.6,298.5,41.6z"/>
				<path fill="none" d="M297.9,41.7c-0.3,0.1-0.5,0.1-0.7,0.2C297.4,41.9,297.6,41.8,297.9,41.7z"/>
				<path fill="none" d="M306.6,31.7c0.6,0.1,1.1,0.3,1.7,0.5C307.7,32,307.2,31.8,306.6,31.7z"/>
				<path fill="none" d="M303.2,31.3L303.2,31.3c0.6,0,1.1,0,1.7,0.1C304.3,31.3,303.8,31.3,303.2,31.3z"/>
				<path fill="none" d="M300.3,41.4c-0.2,0-0.5,0-0.7,0.1C299.8,41.4,300,41.4,300.3,41.4z"/>
				<polygon fill="none" points="278.1,71.7 278.1,71.7 265.2,55.3 				"/>
				<path fill="none" d="M311.7,33.7c0.5,0.3,1.1,0.7,1.5,1C312.7,34.3,312.2,34,311.7,33.7z"/>
				<polygon fill="none" points="278.1,67.7 278.1,43.7 268.4,55.4 				"/>
				<path fill="none" d="M320.4,48c0.1,0.5,0.1,1.1,0.1,1.7C320.5,49.1,320.5,48.6,320.4,48z"/>
				<path fill="none" d="M293.8,43.8c0.8-0.6,1.6-1.1,2.4-1.5c0.1,0,0.1-0.1,0.2-0.1c-0.1,0-0.1,0.1-0.2,0.1
					C295.5,42.7,294.7,43.2,293.8,43.8z"/>
				
					<rect x="290.4" y="34.2" transform="matrix(3.993218e-003 1 -1 3.993218e-003 325.1946 -258.0028)" fill="none" width="3.5" height="0"/>
				<rect x="292.1" y="45.3" fill="none" width="0" height="34.2"/>
				<path fill="none" d="M313.2,34.7c0.5,0.4,1,0.8,1.4,1.2C314.2,35.5,313.7,35.1,313.2,34.7z"/>
				<path fill="none" d="M348.4,43.9c0.2,0.7,0.3,1.4,0.5,2.1C348.8,45.3,348.6,44.6,348.4,43.9z"/>
				<path fill="none" d="M348.1,42.9c-0.1-0.3-0.2-0.6-0.3-0.9c-0.2-0.6-0.5-1.2-0.8-1.8c0.3,0.6,0.5,1.2,0.8,1.8
					C347.9,42.3,348,42.6,348.1,42.9z"/>
				<path fill="none" d="M323.3,32.7c0.6-0.2,1.2-0.4,1.9-0.6C324.5,32.2,323.9,32.4,323.3,32.7z"/>
				<path fill="none" d="M300.3,41.4c0.2,0,0.4,0,0.7,0l0,0C300.7,41.4,300.5,41.4,300.3,41.4z"/>
				<polygon fill="#4F4F4F" points="254.6,52.4 254.6,14.5 242.8,14.5 242.8,54.8 242.8,79.5 254.6,79.5 254.6,58.4 270.8,79.5 
					278.1,79.5 278.1,71.7 265.2,55.3 278.1,39.9 278.1,32.5 270.8,32.5 				"/>
				<polygon fill="none" points="278.1,79.5 270.8,79.5 254.6,58.4 254.6,79.5 242.8,79.5 242.8,54.8 242.8,14.5 254.6,14.5 
					254.6,52.4 270.8,32.5 278.1,32.5 278.1,30.1 270.8,30.1 269.6,30.1 268.9,31 257,45.5 257,14.5 257,12 254.6,12 242.8,12 
					240.3,12 240.3,14.5 240.3,39.1 240.3,43.9 240.3,54.8 240.3,65.7 240.3,70.5 240.3,79.5 240.3,81.9 242.8,81.9 254.6,81.9 
					257,81.9 257,79.5 257,65.6 268.8,80.9 269.6,81.9 270.8,81.9 278.1,81.9 278.1,79.5 				"/>
				<polygon fill="none" points="278.1,71.7 278.1,67.7 268.4,55.4 278.1,43.7 278.1,39.9 265.2,55.3 				"/>
				
					<rect x="290.4" y="34.2" transform="matrix(3.993218e-003 1 -1 3.993218e-003 325.1946 -258.0028)" fill="none" width="3.5" height="0"/>
				<path fill="none" d="M293.8,43.8c0.8-0.6,1.6-1.1,2.4-1.5c0.1,0,0.1-0.1,0.2-0.1c-0.1,0-0.1,0.1-0.2,0.1
					C295.5,42.7,294.7,43.2,293.8,43.8z"/>
				<path fill="none" d="M348.1,42.9c-0.1-0.3-0.2-0.6-0.3-0.9c-0.2-0.6-0.5-1.2-0.8-1.8c0.3,0.6,0.5,1.2,0.8,1.8
					C347.9,42.3,348,42.6,348.1,42.9z"/>
				<rect x="292.1" y="45.3" fill="none" width="0" height="34.2"/>
				<path fill="none" d="M293.6,44c-0.3,0.2-0.6,0.5-0.9,0.7C293,44.4,293.3,44.2,293.6,44z"/>
				<path fill="none" d="M303.2,31.3L303.2,31.3c0.6,0,1.1,0,1.7,0.1C304.3,31.3,303.8,31.3,303.2,31.3z"/>
				<path fill="none" d="M379.9,44.9c-1.9-1.5-4-2.2-6.4-2.2c-2.3,0-4.4,0.7-6.3,2.2c-1,0.8-1.9,1.8-2.6,2.8h17.8
					C381.8,46.6,381,45.7,379.9,44.9z"/>
				<path fill="none" d="M371.1,30.2c0.8-0.1,1.7-0.1,2.5-0.1C372.8,30.1,371.9,30.1,371.1,30.2z"/>
				<path fill="#4F4F4F" d="M348.1,42.9c-0.1-0.3-0.2-0.6-0.3-0.9c-0.2-0.6-0.5-1.2-0.8-1.8c-0.8-1.7-1.9-3.1-3.1-4.3
					c-1.6-1.6-3.5-2.8-5.7-3.5s-4.5-1.1-6.9-1.1c-2.2,0-4.3,0.3-6.2,0.8c-0.6,0.2-1.3,0.4-1.9,0.6c-2.5,0.9-4.9,2.5-7.3,4.6
					c-0.4-0.5-0.9-0.9-1.3-1.4c-0.5-0.4-0.9-0.8-1.4-1.2c-0.5-0.4-1-0.7-1.5-1s-1.1-0.6-1.7-0.9c-0.6-0.3-1.1-0.5-1.7-0.7
					c-0.6-0.2-1.1-0.4-1.7-0.5c-0.6-0.1-1.1-0.2-1.7-0.3c-0.6-0.1-1.1-0.1-1.7-0.1c-2,0-4,0.4-6,1.3c-1.2,0.5-2.3,1.2-3.4,1.9
					c-0.2,0.2-0.4,0.3-0.6,0.5c-0.4,0.3-0.8,0.7-1.1,1v0l0,0l0-3.5h-7.9h-3.7v47h11.6V45.3l0,0c0.2-0.2,0.4-0.4,0.6-0.6
					c0.3-0.3,0.6-0.5,0.9-0.7c0.1-0.1,0.2-0.1,0.2-0.2c0.8-0.6,1.6-1.1,2.4-1.5c0.1,0,0.1-0.1,0.2-0.1c0.2-0.1,0.4-0.2,0.6-0.2
					c0.2-0.1,0.5-0.2,0.7-0.2c0.2-0.1,0.4-0.1,0.7-0.1c0.3-0.1,0.7-0.1,1-0.1c0.2,0,0.5,0,0.7-0.1c0.2,0,0.4,0,0.7,0h0
					c0.6,0,1.1,0.1,1.6,0.2c0.1,0,0.3,0.1,0.4,0.1c1.4,0.4,2.6,1.1,3.7,2.3c0.8,0.9,1.4,1.9,1.8,3.2c0.2,0.6,0.3,1.3,0.4,2
					s0.1,1.5,0.1,2.3v28h11.6v-28c0-0.6,0-1.2,0-1.7c0-0.6-0.1-1.1-0.1-1.7c-0.1-1.1-0.3-2.1-0.5-3c1.5-1.3,3-2.2,4.6-2.8
					c1.6-0.6,3.2-0.9,5-0.9c2.3,0,4.2,0.9,5.8,2.6c0.4,0.4,0.7,0.9,1,1.4c0.3,0.5,0.5,1.1,0.7,1.7c0.2,0.6,0.3,1.3,0.4,2
					c0.1,0.7,0.1,1.5,0.1,2.3v28h11.6V66.8c-0.2-0.5-0.5-0.9-0.7-1.4c-1.4-3.3-2.1-6.9-2.1-10.6c0-3.7,0.7-7.2,2.1-10.5
					c0-0.1-0.1-0.3-0.1-0.4C348.3,43.6,348.2,43.2,348.1,42.9z"/>
				<path fill="none" d="M349.2,79.5h-11.6v-28c0-0.8,0-1.6-0.1-2.3c-0.1-0.7-0.2-1.4-0.4-2c-0.2-0.6-0.4-1.2-0.7-1.7
					c-0.3-0.5-0.6-1-1-1.4c-1.6-1.7-3.5-2.6-5.8-2.6c-1.8,0-3.4,0.3-5,0.9c-1.6,0.6-3.1,1.5-4.6,2.8c0.2,0.9,0.4,2,0.5,3
					c0.1,0.5,0.1,1.1,0.1,1.7c0,0.6,0,1.1,0,1.7v28H309v-28c0-0.8,0-1.6-0.1-2.3s-0.2-1.4-0.4-2c-0.4-1.3-1-2.3-1.8-3.2
					c-1.1-1.2-2.3-1.9-3.7-2.3c-0.1,0-0.3-0.1-0.4-0.1c-0.5-0.1-1.1-0.2-1.6-0.2h0c-0.2,0-0.4,0-0.7,0c-0.2,0-0.5,0-0.7,0.1
					c-0.4,0-0.7,0.1-1,0.1c-0.2,0-0.5,0.1-0.7,0.1c-0.3,0.1-0.5,0.1-0.7,0.2c-0.2,0.1-0.4,0.2-0.6,0.2c-0.1,0-0.1,0.1-0.2,0.1
					c-0.8,0.4-1.6,0.9-2.4,1.5c-0.1,0.1-0.2,0.1-0.2,0.2c-0.3,0.2-0.6,0.5-0.9,0.7c-0.2,0.2-0.4,0.4-0.6,0.6v34.2h0h-11.6v-47h3.7
					h7.9h0l0,3.5v0c0.4-0.4,0.7-0.7,1.1-1c0.2-0.2,0.4-0.3,0.6-0.5c1-0.8,2.1-1.4,3.4-1.9c2-0.9,3.9-1.3,6-1.3h0
					c0.6,0,1.1,0,1.7,0.1c0.6,0.1,1.1,0.2,1.7,0.3c0.6,0.1,1.1,0.3,1.7,0.5c0.6,0.2,1.1,0.4,1.7,0.7c0.6,0.3,1.1,0.5,1.7,0.9
					s1.1,0.7,1.5,1c0.5,0.4,1,0.8,1.4,1.2c0.5,0.4,0.9,0.9,1.3,1.4c2.4-2.2,4.8-3.7,7.3-4.6c0.6-0.2,1.2-0.4,1.9-0.6
					c1.9-0.5,4-0.8,6.2-0.8c2.4,0,4.7,0.4,6.9,1.1s4.1,1.9,5.7,3.5c1.2,1.2,2.2,2.6,3.1,4.3c0.3,0.6,0.5,1.2,0.8,1.8
					c0.1,0.3,0.2,0.6,0.3,0.9c0.1,0.3,0.2,0.7,0.3,1c0,0.1,0.1,0.3,0.1,0.4c0,0,0-0.1,0.1-0.1c0.4-1,1-2.1,1.5-3c0,0,0-0.1,0-0.1
					c-1.1-2.8-2.6-5.1-4.4-6.9c-1.9-1.9-4.1-3.2-6.6-4.1c-2.4-0.8-5-1.2-7.6-1.2c-3.2,0-6.2,0.5-9,1.5c-2.1,0.8-4.2,2-6.3,3.6
					c-1.5-1.4-3.3-2.5-5.1-3.4c-2.6-1.2-5.2-1.8-7.8-1.8c-2.4,0-4.7,0.5-7,1.5c-0.6,0.3-1.1,0.5-1.7,0.8l0-1.1h-2.4h-2.7h-5.2h-3.7
					h-2.4v2.4v7.4v3.8v24.1v3.9v0v7.8v0v2.4v0h2.4h11.6h2.4v-2.4V46.3c1-0.8,1.9-1.4,2.8-1.8c1-0.5,2.2-0.7,3.6-0.7
					c1.6,0,2.8,0.6,3.9,1.8c1.1,1.2,1.7,3.2,1.7,5.9v28v2.4h2.4h11.6h2.4v-2.4v-28c0-1.9-0.2-3.8-0.5-5.5c0.9-0.7,1.8-1.1,2.7-1.5
					c1.3-0.5,2.7-0.7,4.2-0.7c1.6,0,2.9,0.6,4,1.8c1.1,1.2,1.7,3.2,1.7,5.9v28v2.4h2.4h11.6h2.4v-2.4v-8.6c-0.9-1.3-1.7-2.6-2.4-4
					V79.5z"/>
				<path fill="none" d="M381.4,42.9c-0.9-0.7-1.8-1.2-2.7-1.7c-1.6-0.7-3.3-1.1-5.2-1.1c-1.8,0-3.5,0.4-5.1,1.1
					c-0.9,0.4-1.8,1-2.7,1.7c-0.6,0.5-1.1,0.9-1.6,1.5c-1.5,1.6-2.5,3.5-3.2,5.7h25.4c-0.7-2.2-1.8-4.1-3.2-5.7
					C382.5,43.9,382,43.4,381.4,42.9z M364.7,47.7c0.7-1.1,1.5-2,2.6-2.8c1.9-1.5,3.9-2.2,6.3-2.2c2.4,0,4.5,0.7,6.4,2.2
					c1,0.8,1.9,1.7,2.6,2.8H364.7z"/>
				<path fill="none" d="M364.8,62.1c0.6,1,1.4,1.8,2.3,2.6c0.9,0.7,2,1.3,3.1,1.7c1.1,0.4,2.4,0.6,3.9,0.6c1.8,0,3.6-0.3,5.5-1
					c1.8-0.6,3.3-1.5,4.4-2.5l1.7-1.5l1.6,1.7l7.3,7.4l1.4,1.4V62h-31.2C364.7,62,364.8,62.1,364.8,62.1z"/>
				<path fill="none" d="M381.4,42.9c-0.9-0.7-1.8-1.2-2.7-1.7c-1.6-0.7-3.3-1.1-5.2-1.1c-1.8,0-3.5,0.4-5.1,1.1
					c-0.9,0.4-1.8,1-2.7,1.7c-0.6,0.5-1.1,0.9-1.6,1.5c-1.5,1.6-2.5,3.5-3.2,5.7h25.4c-0.7-2.2-1.8-4.1-3.2-5.7
					C382.5,43.9,382,43.4,381.4,42.9z"/>
				<path fill="#4F4F4F" d="M390.9,37c-2.3-2.2-4.9-3.9-7.9-5.1c-3-1.2-6.1-1.8-9.4-1.8c-0.9,0-1.7,0-2.5,0.1
					c-2.5,0.2-4.9,0.9-7.1,1.8c-3,1.3-5.6,3.1-7.9,5.3c-2.2,2.2-4,4.8-5.3,7.8c-1.3,3-1.9,6.2-1.9,9.6c0,0.9,0,1.7,0.1,2.5
					c0.2,2.5,0.8,4.9,1.8,7.1c0.2,0.4,0.3,0.7,0.5,1.1c0.9,1.8,1.9,3.5,3.2,5c0.5,0.6,1,1.2,1.6,1.7c0.8,0.8,1.7,1.6,2.7,2.3
					c0.9,0.7,1.9,1.3,3,1.9c0.7,0.4,1.4,0.7,2.2,1.1c3,1.3,6.3,1.9,9.7,1.9c1.3,0,2.5-0.1,3.8-0.2c2.1-0.2,4-0.7,6-1.3
					c0.4-0.1,0.8-0.3,1.2-0.4c2.7-1,5.5-2.6,8.3-4.7l-7.3-7.4c-1.4,1.2-3.1,2.2-5.2,3c-2.1,0.7-4.2,1.1-6.3,1.1
					c-1.7,0-3.3-0.3-4.7-0.8c-1.4-0.5-2.7-1.2-3.8-2.1c-1.1-0.9-2.1-1.9-2.8-3.2c-0.8-1.2-1.4-2.5-1.8-3.9h35V43.8
					C394.7,41.2,393,38.9,390.9,37z M360.9,50.1c0.7-2.2,1.8-4.1,3.2-5.7c0.5-0.5,1-1,1.6-1.5c0.9-0.7,1.8-1.2,2.7-1.7
					c1.6-0.7,3.3-1.1,5.1-1.1c1.8,0,3.6,0.4,5.2,1.1c1,0.4,1.9,1,2.7,1.7c0.6,0.5,1.1,0.9,1.6,1.5c1.5,1.6,2.6,3.5,3.2,5.7H360.9z"
					/>
				<path fill="none" d="M394.6,71.1l-7.3-7.4l-1.6-1.7l-1.7,1.5c-1.1,1-2.6,1.9-4.4,2.5c-1.8,0.6-3.7,1-5.5,1
					c-1.4,0-2.7-0.2-3.9-0.6c-1.2-0.4-2.2-1-3.1-1.7c-0.9-0.7-1.7-1.6-2.3-2.6c0,0,0-0.1-0.1-0.1H396v-2.4h-35
					c0.4,1.4,1,2.6,1.8,3.9c0.8,1.2,1.7,2.3,2.8,3.2c1.1,0.9,2.4,1.6,3.8,2.1c1.4,0.5,3,0.8,4.7,0.8c2.1,0,4.2-0.4,6.3-1.1
					c2.1-0.7,3.8-1.7,5.2-3l7.3,7.4c-2.8,2.1-5.6,3.7-8.3,4.7c-0.4,0.1-0.8,0.3-1.2,0.4c-1.9,0.6-3.9,1.1-6,1.3
					c-1.2,0.1-2.5,0.2-3.8,0.2c-3.5,0-6.7-0.7-9.7-1.9c-0.8-0.3-1.5-0.7-2.2-1.1c-1.1-0.6-2.1-1.2-3-1.9c-0.9-0.7-1.8-1.5-2.7-2.3
					c-0.6-0.6-1.1-1.1-1.6-1.7c-1.2-1.5-2.3-3.2-3.2-5c-0.2-0.4-0.3-0.7-0.5-1.1c-1-2.3-1.6-4.6-1.8-7.1c-0.1-0.8-0.1-1.7-0.1-2.5
					c0-3.4,0.6-6.6,1.9-9.6c1.3-3,3-5.6,5.3-7.8c2.2-2.2,4.9-4,7.9-5.3c2.2-1,4.6-1.6,7.1-1.8c0.8-0.1,1.7-0.1,2.5-0.1
					c3.3,0,6.4,0.6,9.4,1.8c3,1.2,5.6,2.9,7.9,5.1c2.1,1.9,3.7,4.2,5,6.8v-4.8c-1-1.4-2.1-2.7-3.4-3.9c-2.5-2.4-5.4-4.2-8.7-5.6
					c-3.3-1.3-6.7-2-10.3-2c-3.7,0-7.3,0.7-10.6,2.2c-3.3,1.4-6.2,3.4-8.6,5.8c-1.7,1.7-3.1,3.5-4.3,5.6c-0.6,1-1.1,2-1.5,3
					c0,0,0,0.1-0.1,0.1c-1.4,3.3-2.1,6.8-2.1,10.5c0,3.7,0.7,7.3,2.1,10.6c0.2,0.5,0.4,1,0.7,1.4c0.7,1.4,1.5,2.8,2.4,4
					c0.8,1.1,1.7,2.2,2.7,3.1c2.4,2.4,5.3,4.4,8.6,5.8c3.3,1.4,6.9,2.1,10.7,2.1c3.7,0,7.2-0.5,10.5-1.6c3.3-1.1,6.7-2.9,10.1-5.5
					l1.6-1.2v-1L394.6,71.1z"/>
				<path fill="#4F4F4F" d="M435,36c-1.7-1.6-3.6-2.8-5.7-3.6c-2.1-0.8-4.4-1.2-6.8-1.2c-2.1,0-4.3,0.3-6.5,1
					c-2.2,0.6-4.2,1.7-5.9,3L410,14.5h-11.6v65H410V44.4c0.4-0.2,0.8-0.5,1.1-0.7c1.1-0.6,2.3-1.2,3.5-1.6c1.6-0.5,3.3-0.8,5.1-0.8
					c1.2,0,2.3,0.2,3.4,0.6c0.6,0.2,1.1,0.5,1.6,0.8c0.5,0.3,0.9,0.7,1.4,1.1c0.8,0.8,1.5,1.9,2,3.2c0.1,0.3,0.2,0.6,0.3,1
					c0.3,1,0.4,2.2,0.4,3.4v28.1h11.6V50.5c0-3.3-0.5-6.2-1.4-8.6C438,39.6,436.6,37.6,435,36z"/>
				<path fill="none" d="M441.2,41.1c-1.1-2.7-2.6-5-4.5-6.9c-1.9-1.8-4.1-3.2-6.5-4.1c-2.4-0.9-5-1.3-7.7-1.3
					c-2.3,0-4.7,0.4-7.2,1.1c-1,0.3-1.9,0.6-2.8,1l-0.1-16.4l0-2.4H410h-11.6H396v2.4v24.6v4.8v15.7V62v10.5v1v6v2.4h2.4H410h2.4
					v-2.4V45.7c1-0.5,2-1,3-1.3c1.4-0.5,2.8-0.7,4.3-0.7c0.9,0,1.8,0.2,2.6,0.5c0.8,0.3,1.4,0.7,2,1.3c0.6,0.6,1.1,1.4,1.5,2.4
					c0.4,1,0.6,2.2,0.6,3.5v28.1v2.4h2.4h11.6h2.4v-2.4V50.5C442.8,46.9,442.3,43.7,441.2,41.1z M440.4,79.5h-11.6V51.3
					c0-1.3-0.1-2.4-0.4-3.4c-0.1-0.3-0.2-0.7-0.3-1c-0.5-1.3-1.2-2.3-2-3.2c-0.4-0.4-0.9-0.8-1.4-1.1c-0.5-0.3-1-0.6-1.6-0.8
					c-1.1-0.4-2.2-0.6-3.4-0.6c-1.8,0-3.5,0.3-5.1,0.8c-1.2,0.4-2.4,0.9-3.5,1.6c-0.4,0.2-0.8,0.4-1.1,0.7v35.1h-11.6v-65H410
					l0.1,20.7c1.7-1.4,3.7-2.4,5.9-3c2.2-0.6,4.4-1,6.5-1c2.4,0,4.7,0.4,6.8,1.2c2.1,0.8,4,2,5.7,3.6c1.7,1.6,3,3.6,3.9,6
					c1,2.4,1.4,5.3,1.4,8.6V79.5z"/>
			</g>
			<g>
				<path fill="#4F4F4F" d="M434,15.4h-1.5v4.7h-1.1v-4.7h-1.5v-1h4.2V15.4z M440.4,20.1h-1.1v-3.8l-1.8,3l-1.7-3v3.8h-1.1v-5.7h1.3
					l1.5,2.7l1.6-2.7h1.2V20.1z"/>
			</g>
		</g>
	</g>
	<g>
		<path fill="#4F4F4F" d="M167.9,92.3l-3.6,11.3h-0.9l-3.1-10.3l-3.1,10.3h-0.9l-3.6-11.3h1l3.1,9.8l3-9.8h0.9h0.3l3,9.8l3.1-9.8
			H167.9z"/>
		<path fill="#4F4F4F" d="M176.2,99.9h-6.9c0,1.6,1.4,2.9,3,2.9c1.3,0,2.3-0.8,2.8-1.9h0.9c-0.5,1.6-2,2.8-3.7,2.8
			c-2.1,0-3.9-1.7-3.9-3.9c0-2.2,1.7-3.9,3.9-3.9c2.1,0,3.8,1.7,3.8,3.8V99.9z M169.5,99.1h5.8c-0.3-1.3-1.5-2.3-2.9-2.3
			C171,96.8,169.8,97.7,169.5,99.1z"/>
		<path fill="#4F4F4F" d="M185.9,99.8c0,2.2-1.7,3.9-3.9,3.9c-1.2,0-2.3-0.6-3-1.4v1.3h-0.9V89.7h0.9v7.6c0.7-0.9,1.8-1.4,3-1.4
			C184.2,95.9,185.9,97.6,185.9,99.8z M185,99.8c0-1.7-1.4-3-3-3c-1.7,0-3,1.3-3,3c0,1.7,1.3,3,3,3C183.7,102.8,185,101.5,185,99.8z
			"/>
		<path fill="#FFBC00" d="M200.7,99.3h-4.2v-0.8h4.2v-4.3h0.8v4.3h4.2v0.8h-4.2v4.2h-0.8V99.3z"/>
		<path fill="#4F4F4F" d="M227.9,97.7v0.3c0,3.2-2.6,5.8-5.7,5.8c-3.2,0-5.7-2.6-5.7-5.8s2.5-5.8,5.7-5.8c2.1,0,4,1.2,5,2.9
			l-0.8,0.4c-0.8-1.5-2.4-2.5-4.2-2.5c-2.7,0-4.8,2.2-4.8,4.9c0,2.7,2.2,4.9,4.8,4.9c2.5,0,4.5-1.9,4.8-4.3h-4.8v-0.9H227.9z"/>
		<path fill="#4F4F4F" d="M234,95.9v0.9c-0.2-0.1-0.4-0.1-0.6-0.1c-1.4,0-2.5,1.1-2.5,2.5v4.3H230V96h0.9v1.2
			c0.5-0.8,1.4-1.3,2.5-1.3C233.6,95.9,233.8,95.9,234,95.9z"/>
		<path fill="#4F4F4F" d="M243.7,102.8v0.7c-0.2,0.1-0.4,0.2-0.6,0.2c-0.9,0-1.5-0.6-1.6-1.5c-0.7,0.9-1.8,1.5-3,1.5
			c-2.1,0-3.9-1.7-3.9-3.9c0-2.2,1.7-3.9,3.9-3.9c1.2,0,2.3,0.6,3,1.4V96h0.9v5.8c0,0.7,0.3,1,0.8,1H243.7z M241.5,99.8
			c0-1.7-1.3-3-3-3c-1.7,0-3,1.3-3,3c0,1.7,1.3,3,3,3C240.2,102.8,241.5,101.5,241.5,99.8z"/>
		<path fill="#4F4F4F" d="M252.8,99.8c0,2.2-1.7,3.9-3.9,3.9c-1.2,0-2.3-0.6-3-1.4v5.8H245V96h0.9v1.3c0.7-0.9,1.8-1.4,3-1.4
			C251,95.9,252.8,97.6,252.8,99.8z M251.9,99.8c0-1.7-1.4-3-3-3c-1.7,0-3,1.3-3,3c0,1.7,1.3,3,3,3
			C250.5,102.8,251.9,101.5,251.9,99.8z"/>
		<path fill="#4F4F4F" d="M260.3,98.7v4.8h-0.9v-4.8c0-1.1-0.9-2-1.9-2c-1,0-1.9,0.9-1.9,2v4.8h-0.9V89.7h0.9v6.9
			c0.5-0.5,1.2-0.7,1.9-0.7C259,95.9,260.3,97.1,260.3,98.7z"/>
		<path fill="#4F4F4F" d="M262.6,93.9c0-0.4,0.3-0.7,0.7-0.7s0.7,0.3,0.7,0.7c0,0.4-0.3,0.7-0.7,0.7S262.6,94.3,262.6,93.9z
			 M262.9,96h0.9v7.5h-0.9V96z"/>
		<path fill="#4F4F4F" d="M265.9,99.8c0-2.2,1.7-3.9,3.9-3.9c1.7,0,3.1,1.1,3.6,2.6h-0.9c-0.5-1.1-1.5-1.7-2.7-1.7c-1.7,0-3,1.3-3,3
			s1.4,3,3,3c1.2,0,2.2-0.7,2.7-1.7h0.9c-0.5,1.5-1.9,2.6-3.6,2.6C267.6,103.7,265.9,102,265.9,99.8z"/>
		<path fill="#FFBC00" d="M287.9,99.3h-4.2v-0.8h4.2v-4.3h0.8v4.3h4.2v0.8h-4.2v4.2h-0.8V99.3z"/>
		<path fill="#4F4F4F" d="M304.1,92.3h0.9v11.3h-0.9V92.3z"/>
		<path fill="#4F4F4F" d="M314.8,89.7v13.8h-0.9v-1.3c-0.7,0.9-1.8,1.4-3,1.4c-2.1,0-3.9-1.7-3.9-3.9c0-2.2,1.7-3.9,3.9-3.9
			c1.2,0,2.3,0.6,3,1.4v-7.6H314.8z M313.9,99.8c0-1.7-1.3-3-3-3c-1.7,0-3,1.3-3,3c0,1.7,1.3,3,3,3
			C312.6,102.8,313.9,101.5,313.9,99.8z"/>
		<path fill="#4F4F4F" d="M324.5,99.9h-6.9c0,1.6,1.4,2.9,3,2.9c1.3,0,2.3-0.8,2.8-1.9h0.9c-0.5,1.6-2,2.8-3.7,2.8
			c-2.1,0-3.9-1.7-3.9-3.9c0-2.2,1.7-3.9,3.9-3.9c2.1,0,3.8,1.7,3.8,3.8V99.9z M317.8,99.1h5.8c-0.3-1.3-1.5-2.3-2.9-2.3
			C319.3,96.8,318.1,97.7,317.8,99.1z"/>
		<path fill="#4F4F4F" d="M332.1,98.7v4.8h-0.9v-4.8c0-1.1-0.9-2-1.9-2c-1.1,0-1.9,0.9-1.9,2v4.8h-0.9V96h0.9v0.8c0.5-0.6,1.2-1,2-1
			C330.8,95.9,332.1,97.1,332.1,98.7z"/>
		<path fill="#4F4F4F" d="M335.7,96.9v4.7c0,0.7,0.5,1.2,1.2,1.2h0.8v0.6c-0.2,0.1-0.6,0.2-0.9,0.2c-1.1,0-2-0.9-2-2v-4.8h-1.2V96
			h1.2v-3.3h0.9V96h2v0.9H335.7z"/>
		<path fill="#4F4F4F" d="M339.4,93.9c0-0.4,0.3-0.7,0.7-0.7s0.7,0.3,0.7,0.7c0,0.4-0.3,0.7-0.7,0.7S339.4,94.3,339.4,93.9z
			 M339.7,96h0.9v7.5h-0.9V96z"/>
		<path fill="#4F4F4F" d="M344.4,96.9v4.7c0,0.7,0.5,1.2,1.2,1.2h0.8v0.6c-0.2,0.1-0.6,0.2-0.9,0.2c-1.1,0-2-0.9-2-2v-4.8h-1.2V96
			h1.2v-3.3h0.9V96h2v0.9H344.4z"/>
		<path fill="#4F4F4F" d="M354,96l-4.8,12h-0.9l1.8-4.5l-3-7.6h1l2.5,6.5L353,96H354z"/>
		<path fill="#FFBC00" d="M368.2,99.3H364v-0.8h4.2v-4.3h0.8v4.3h4.2v0.8H369v4.2h-0.8V99.3z"/>
		<path fill="#4F4F4F" d="M384.3,92.3h2.9c3.1,0,5.6,2.5,5.6,5.6c0,3.1-2.5,5.6-5.6,5.6h-2.9V92.3z M387.2,102.6
			c2.6,0,4.7-2,4.7-4.7c0-2.7-2.1-4.7-4.7-4.7h-2v9.5H387.2z"/>
		<path fill="#4F4F4F" d="M402,99.9h-6.9c0,1.6,1.4,2.9,3,2.9c1.3,0,2.3-0.8,2.8-1.9h0.9c-0.5,1.6-1.9,2.8-3.7,2.8
			c-2.1,0-3.9-1.7-3.9-3.9c0-2.2,1.7-3.9,3.9-3.9c2.1,0,3.8,1.7,3.8,3.8V99.9z M395.3,99.1h5.8c-0.3-1.3-1.5-2.3-2.9-2.3
			C396.8,96.8,395.6,97.7,395.3,99.1z"/>
		<path fill="#4F4F4F" d="M403.2,102.1l0.8-0.3c0.1,0.6,0.9,1.1,1.7,1.1c0.8,0,1.4-0.4,1.4-1.2c0-0.7-0.6-1.1-1.5-1.4
			c-1.2-0.5-2.1-1-2.1-2.2c0-1.4,1.1-2.1,2.1-2.1c0.9,0,1.7,0.5,2,1.1l-0.7,0.4c-0.3-0.4-0.7-0.7-1.3-0.7c-0.7,0-1.3,0.3-1.3,1.1
			c0,0.8,0.6,1.1,1.5,1.4c1,0.4,2.1,0.9,2.1,2.3c0,1.2-1,2.1-2.3,2.1C404.6,103.7,403.5,103,403.2,102.1z"/>
		<path fill="#4F4F4F" d="M409.8,93.9c0-0.4,0.3-0.7,0.7-0.7c0.4,0,0.7,0.3,0.7,0.7c0,0.4-0.3,0.7-0.7,0.7
			C410.1,94.6,409.8,94.3,409.8,93.9z M410,96h0.9v7.5H410V96z"/>
		<path fill="#4F4F4F" d="M420.8,96v8.2c0,2.2-1.7,3.9-3.9,3.9c-1.6,0-3-1-3.6-2.4l0.8-0.4c0.4,1.1,1.5,1.9,2.8,1.9c1.7,0,3-1.4,3-3
			v-1.9c-0.7,0.9-1.8,1.4-3,1.4c-2.1,0-3.9-1.7-3.9-3.9c0-2.2,1.7-3.9,3.9-3.9c1.2,0,2.3,0.5,3,1.4V96H420.8z M419.9,99.8
			c0-1.7-1.3-3-3-3c-1.7,0-3,1.3-3,3c0,1.7,1.3,3,3,3C418.6,102.8,419.9,101.5,419.9,99.8z"/>
		<path fill="#4F4F4F" d="M429,98.7v4.8h-0.9v-4.8c0-1.1-0.9-2-1.9-2c-1.1,0-1.9,0.9-1.9,2v4.8h-0.9V96h0.9v0.8c0.5-0.6,1.2-1,2-1
			C427.7,95.9,429,97.1,429,98.7z"/>
		<path fill="#4F4F4F" d="M148,92.3l0.4,0.5l-5.7,5.4l5.7,5.4l-0.4,0.5l-6.3-5.9L148,92.3z"/>
		<path fill="#4F4F4F" d="M433.2,104.1l-0.4-0.5l5.7-5.4l-5.7-5.4l0.4-0.5l6.3,5.9L433.2,104.1z"/>
	</g>
</g>
</svg>
