<?xml version="1.0" encoding="utf-8"?>
<!-- Generator: Adobe Illustrator 19.0.0, SVG Export Plug-In . SVG Version: 6.00 Build 0)  -->
<svg version="1.1" id="Layer_1" xmlns="http://www.w3.org/2000/svg" xmlns:xlink="http://www.w3.org/1999/xlink" x="0px" y="0px"
	 viewBox="-99 101 800 800" style="enable-background:new -99 101 800 800;" xml:space="preserve">
<style type="text/css">
	.st0{fill:none;stroke:#000000;stroke-width:14;stroke-miterlimit:10;}
	.st1{fill:#FFFFFF;stroke:#FFFFFF;stroke-miterlimit:10;}
	.st2{fill:#FFFFFF;stroke:#FFFFFF;stroke-width:14;stroke-miterlimit:10;}
</style>
<g id="XMLID_14_">
	<g id="XMLID_25_">
		<line id="XMLID_28_" class="st0" x1="-127" y1="-474" x2="-897" y2="-474"/>
		<g id="XMLID_26_">
			<polygon id="XMLID_27_" points="-803.9,-588.5 -784.8,-568 -885.9,-474 -784.8,-380 -803.9,-359.5 -927,-474 			"/>
		</g>
	</g>
</g>
<g id="XMLID_15_">
	<path id="XMLID_33_" class="st1" d="M687,367.9v266.2H-85V367.9H687 M701,353.9H-99v294.2h800V353.9L701,353.9z"/>
</g>
<g id="XMLID_16_">
	<g id="XMLID_38_">
		<line id="XMLID_43_" class="st2" x1="142.7" y1="556.2" x2="459.3" y2="445.8"/>
		<g id="XMLID_41_">
			<polygon id="XMLID_42_" class="st1" points="205.4,595 211,582.2 147.8,554.4 180.1,493.4 167.7,486.9 128.4,561.2 			"/>
		</g>
		<g id="XMLID_39_">
			<polygon id="XMLID_40_" class="st1" points="434.3,515.2 421.9,508.6 454.2,447.6 391,419.9 396.6,407 473.6,440.8 			"/>
		</g>
	</g>
</g>
</svg>
