<?xml version="1.0" encoding="utf-8"?>
<!-- Generator: Adobe Illustrator 19.0.0, SVG Export Plug-In . SVG Version: 6.00 Build 0)  -->
<svg version="1.1" id="Layer_1" xmlns="http://www.w3.org/2000/svg" xmlns:xlink="http://www.w3.org/1999/xlink" x="0px" y="0px"
	 viewBox="251 -250 551 551" style="enable-background:new 251 -250 551 551;" xml:space="preserve">
<style type="text/css">
	.st0{fill:#FFFFFF;}
</style>
<g id="XMLID_13_">
	<path id="XMLID_17_" class="st0" d="M637.8-250.1H415.1c-90.5,0-164.2,73.6-164.2,164.2v222.7c0,90.5,73.6,164.2,164.2,164.2h222.7
		c90.5,0,164.2-73.6,164.2-164.2V-86C802-176.5,728.3-250.1,637.8-250.1z M746.5,136.7c0,60-48.7,108.7-108.7,108.7H415.2
		c-60,0-108.7-48.7-108.7-108.7V-86c0-60,48.7-108.7,108.7-108.7h222.7c60,0,108.7,48.7,108.7,108.7V136.7L746.5,136.7z"/>
	<path id="XMLID_81_" class="st0" d="M526.5-117.1C447.9-117.1,384-53.2,384,25.4s63.9,142.5,142.5,142.5S669,104,669,25.4
		S605-117.1,526.5-117.1z M526.5,112.5c-48.1,0-87.1-39-87.1-87.1s39-87.1,87.1-87.1s87.1,39,87.1,87.1S574.5,112.5,526.5,112.5z"/>
	<circle id="XMLID_83_" class="st0" cx="669.3" cy="-116.1" r="34.1"/>
</g>
</svg>
